<svg width="157" height="158" viewBox="0 0 157 158" fill="none" xmlns="http://www.w3.org/2000/svg">
<path d="M97.0809 119.134C97.0765 103.192 90.8536 88.1872 79.5591 76.8928C68.3081 65.6417 53.3617 59.4189 37.4714 59.3665C31.048 59.3509 25.8225 64.5652 25.8247 70.9864C25.8225 74.109 27.0417 77.0443 29.2526 79.2553C31.4536 81.4563 34.3767 82.6721 37.4836 82.681C47.1556 82.7111 56.2547 86.4989 63.1038 93.3481C69.9786 100.223 73.7676 109.357 73.772 119.061C73.7742 122.179 74.9901 125.115 77.1988 127.324C79.402 129.527 82.324 130.742 85.432 130.752C91.8602 130.772 97.0831 125.56 97.0809 119.134Z" fill="#1E73E8"/>
<path d="M63 126.232C63 143.629 48.897 157.732 31.5 157.732C14.103 157.732 0 143.629 0 126.232C0 108.835 14.103 94.7316 31.5 94.7316C48.897 94.7316 63 108.835 63 126.232ZM18.9 126.232C18.9 133.19 24.5412 138.832 31.5 138.832C38.4588 138.832 44.1 133.19 44.1 126.232C44.1 119.273 38.4588 113.632 31.5 113.632C24.5412 113.632 18.9 119.273 18.9 126.232Z" fill="#1E73E8"/>
<path d="M134.511 119.605C134.481 93.6825 124.355 69.2982 105.998 50.9417C87.675 32.6186 63.3387 22.4954 37.4733 22.4307C34.3597 22.4218 31.4355 23.6276 29.2334 25.823C27.0369 28.0195 25.8256 30.9426 25.83 34.0562C25.8334 37.171 27.0503 40.1041 29.2568 42.3106C31.46 44.5138 34.3875 45.7296 37.4978 45.7419C57.1459 45.792 75.6317 53.4814 89.545 67.3948C103.487 81.3371 111.176 99.8596 111.199 119.548C111.202 122.667 112.418 125.599 114.626 127.807C116.83 130.011 119.759 131.228 122.867 131.233C125.978 131.24 128.905 130.037 131.105 127.839C133.305 125.642 134.512 122.719 134.511 119.605Z" fill="#1E73E8"/>
</svg>
