<svg width="50" height="50" viewBox="0 0 50 50" fill="none" xmlns="http://www.w3.org/2000/svg">
<path d="M18.0342 40.2018C17.6865 40.2666 17.5347 40.4297 17.5782 40.6899C17.6216 40.9502 17.8169 41.0372 18.164 40.9502C18.5117 40.8636 18.6634 40.7114 18.6198 40.4945C18.5767 40.256 18.3814 40.1582 18.0342 40.2018Z" fill="#333333"/>
<path d="M16.1786 40.4625C15.8313 40.4625 15.6578 40.5812 15.6578 40.8204C15.6578 41.1024 15.8424 41.2215 16.2111 41.1782C16.5584 41.1782 16.7321 41.0588 16.7321 40.8204C16.7321 40.5386 16.5476 40.4188 16.1786 40.4625Z" fill="#333333"/>
<path d="M13.6396 40.3641C13.5529 40.6029 13.6941 40.7653 14.0627 40.8525C14.3882 40.9822 14.5945 40.9173 14.6811 40.6571C14.7463 40.4187 14.6052 40.2455 14.258 40.1363C13.9324 40.0497 13.7264 40.1246 13.6396 40.3641Z" fill="#333333"/>
<path d="M47.2493 2.7504C45.4154 0.916914 43.2079 0 40.6248 0H9.37494C6.79271 0 4.58434 0.916914 2.7504 2.7504C0.916914 4.58423 0 6.7926 0 9.37494V40.6253C0 43.2077 0.916914 45.4159 2.7504 47.2493C4.58423 49.0832 6.79271 50.0001 9.37494 50.0001H16.6666C17.1436 50.0001 17.502 49.9837 17.7406 49.9517C17.9791 49.9189 18.2177 49.7778 18.4565 49.5279C18.6955 49.2786 18.8145 48.915 18.8145 48.4377C18.8145 48.373 18.8088 47.6344 18.7981 46.2239C18.7871 44.8129 18.7817 43.6955 18.7817 42.8707L18.033 43.001C17.5556 43.0877 16.9533 43.1259 16.2263 43.1149C15.4995 43.104 14.7452 43.0283 13.9641 42.8871C13.1825 42.7458 12.4558 42.4204 11.783 41.9109C11.1105 41.4005 10.6331 40.7333 10.3509 39.9089L10.0253 39.1597C9.80832 38.6611 9.46673 38.1075 9.00006 37.5003C8.53339 36.8924 8.06148 36.48 7.5841 36.263L7.35618 36.1002C7.20442 35.9918 7.06339 35.861 6.93307 35.7093C6.80298 35.557 6.70538 35.4049 6.64028 35.2535C6.57517 35.1013 6.62922 34.9765 6.80298 34.8785C6.97674 34.781 7.29108 34.7327 7.74703 34.7327L8.39783 34.8302C8.832 34.9168 9.36879 35.177 10.0093 35.6113C10.6494 36.0453 11.1756 36.6094 11.588 37.3036C12.0874 38.1936 12.689 38.8714 13.3947 39.338C14.0998 39.8051 14.8106 40.0384 15.5267 40.0384C16.2427 40.0384 16.8611 39.9842 17.3822 39.8761C17.9026 39.7673 18.391 39.6041 18.8469 39.3872C19.0422 37.9334 19.574 36.8151 20.4418 36.034C19.2049 35.9036 18.0928 35.7086 17.1051 35.4479C16.1179 35.1873 15.0978 34.7644 14.0455 34.1782C12.9927 33.5922 12.1193 32.8657 11.4248 31.9971C10.7305 31.1286 10.1606 29.9893 9.71608 28.5792C9.2713 27.1682 9.04886 25.5404 9.04886 23.696C9.04886 21.0703 9.90637 18.8347 11.6207 16.9903C10.8176 15.0155 10.8934 12.8022 11.8484 10.3498C12.4778 10.1543 13.4111 10.301 14.6479 10.7893C15.885 11.278 16.7908 11.6958 17.3661 12.0426C17.9414 12.3894 18.4024 12.6826 18.7497 12.9216C20.7683 12.3574 22.8515 12.0753 24.9998 12.0753C27.1479 12.0753 29.2315 12.3574 31.2502 12.9216L32.4872 12.1404C33.3339 11.6193 34.332 11.142 35.4823 10.7081C36.6325 10.2742 37.5112 10.1547 38.1191 10.3501C39.0953 12.8026 39.1826 15.0159 38.3789 16.9905C40.0933 18.8352 40.951 21.0707 40.951 23.6963C40.951 25.5411 40.7286 27.1744 40.2838 28.5955C39.8394 30.0169 39.2646 31.1566 38.5587 32.0138C37.8537 32.8711 36.9746 33.5921 35.9222 34.1785C34.8697 34.7642 33.8497 35.1879 32.8621 35.4477C31.8746 35.7083 30.7626 35.9042 29.5256 36.0345C30.6534 37.0107 31.2175 38.5511 31.2175 40.6565V48.4367C31.2175 48.8058 31.2713 49.1039 31.3799 49.3318C31.4891 49.5596 31.6624 49.7165 31.901 49.804C32.1407 49.8906 32.3513 49.9448 32.5362 49.9663C32.7211 49.9881 32.9865 49.9991 33.3337 49.9991H40.6254C43.2076 49.9991 45.4161 49.0821 47.2491 47.2483C49.083 45.4145 49.9999 43.206 49.9999 40.6238V9.37494C49.9997 6.7926 49.0827 4.58389 47.2493 2.7504Z" fill="#333333"/>
<path d="M9.89575 36.3933C9.744 36.5013 9.76566 36.675 9.96097 36.9137C10.1783 37.1306 10.3517 37.1633 10.482 37.0112C10.6338 36.9031 10.6121 36.7295 10.4165 36.4903C10.1996 36.2953 10.0261 36.2626 9.89575 36.3933Z" fill="#333333"/>
<path d="M8.82185 35.5794C8.75687 35.7316 8.8328 35.8619 9.04977 35.97C9.22319 36.0789 9.36468 36.0575 9.47288 35.9053C9.53787 35.7531 9.46194 35.6227 9.24497 35.5139C9.02799 35.4486 8.88696 35.4705 8.82185 35.5794Z" fill="#333333"/>
<path d="M10.9052 37.6629C10.7096 37.771 10.7096 37.9669 10.9052 38.2486C11.1005 38.5312 11.2846 38.6069 11.4585 38.4764C11.6539 38.3243 11.6539 38.1182 11.4585 37.8577C11.2851 37.5763 11.1005 37.5104 10.9052 37.6629Z" fill="#333333"/>
<path d="M12.0447 39.1272C11.8493 39.3012 11.8924 39.5066 12.1749 39.7461C12.435 40.006 12.6521 40.0387 12.8257 39.8429C12.9995 39.6697 12.9561 39.4637 12.6955 39.225C12.4355 38.965 12.2184 38.9322 12.0447 39.1272Z" fill="#333333"/>
</svg>
