<svg width="50" height="50" viewBox="0 0 50 50" fill="none" xmlns="http://www.w3.org/2000/svg">
<path d="M42.8571 0H7.14286C3.19857 0 0 3.19857 0 7.14286V42.8571C0 46.8014 3.19857 50 7.14286 50H42.8571C46.8029 50 50 46.8014 50 42.8571V7.14286C50 3.19857 46.8029 0 42.8571 0ZM10.3571 8.92857H24.6986C25.8829 8.92857 26.8414 9.88714 26.8414 11.0714C26.8414 12.2557 25.8829 13.2143 24.6986 13.2143H10.3571C9.17286 13.2143 8.21429 12.2557 8.21429 11.0714C8.21429 9.88714 9.17286 8.92857 10.3571 8.92857ZM10.3571 18.2143H24.6429C25.8271 18.2143 26.7857 19.1729 26.7857 20.3571C26.7857 21.5414 25.8271 22.5 24.6429 22.5H10.3571C9.17286 22.5 8.21429 21.5414 8.21429 20.3571C8.21429 19.1729 9.17286 18.2143 10.3571 18.2143ZM39.6429 41.0714H10.3571C9.17286 41.0714 8.21429 40.1129 8.21429 38.9286C8.21429 37.7443 9.17286 36.7857 10.3571 36.7857H39.6429C40.8271 36.7857 41.7857 37.7443 41.7857 38.9286C41.7857 40.1129 40.8271 41.0714 39.6429 41.0714ZM39.6429 31.7857H10.3571C9.17286 31.7857 8.21429 30.8271 8.21429 29.6429C8.21429 28.4586 9.17286 27.5 10.3571 27.5H39.6429C40.8271 27.5 41.7857 28.4586 41.7857 29.6429C41.7857 30.8271 40.8271 31.7857 39.6429 31.7857Z" fill="#333333"/>
</svg>
