<svg width="50" height="50" viewBox="0 0 50 50" fill="none" xmlns="http://www.w3.org/2000/svg">
<path d="M47.2489 2.7504C45.4159 0.916914 43.2074 0 40.6252 0H9.37494C6.79271 0 4.58423 0.916914 2.7504 2.7504C0.916914 4.58423 0 6.7926 0 9.37494V40.6248C0 43.2069 0.916914 45.4155 2.7504 47.2493C4.58423 49.0832 6.79271 50.0001 9.37494 50.0001H40.6248C43.207 50.0001 45.4155 49.0832 47.2486 47.2493C49.0824 45.4155 49.9993 43.207 49.9993 40.6248V9.37494C49.9992 6.7926 49.0823 4.58389 47.2489 2.7504ZM38.2486 19.2384C38.2704 19.4337 38.2814 19.7262 38.2814 20.1175C38.2814 21.9405 38.0153 23.7688 37.4839 25.6021C36.9525 27.4363 36.1385 29.1941 35.0421 30.8758C33.9469 32.5574 32.6394 34.0444 31.1205 35.3355C29.6012 36.6262 27.7785 37.6574 25.6514 38.4273C23.5252 39.1982 21.2461 39.5837 18.8158 39.5837C15.04 39.5837 11.5461 38.5631 8.3342 36.524C8.85503 36.5888 9.39786 36.6215 9.96178 36.6215C13.1086 36.6215 15.9406 35.6449 18.4581 33.6913C16.9826 33.6702 15.664 33.2148 14.5031 32.3241C13.3419 31.4345 12.5337 30.3062 12.0779 28.9389C12.6419 29.0255 13.0651 29.0685 13.3471 29.0685C13.8245 29.0685 14.3781 28.9819 15.0072 28.8087C13.4231 28.5044 12.0886 27.7185 11.0035 26.4489C9.91822 25.1792 9.37574 23.7308 9.37574 22.1033V22.0382C10.5256 22.5803 11.6107 22.8624 12.6308 22.8844C10.6559 21.5604 9.66853 19.6618 9.66853 17.1879C9.66853 15.9725 9.98298 14.8224 10.6124 13.7373C12.3266 15.8425 14.4103 17.5241 16.8622 18.7827C19.3144 20.0412 21.9405 20.7469 24.7398 20.8986C24.6315 20.4863 24.5771 19.9653 24.5771 19.3361C24.5771 17.4478 25.2444 15.8368 26.5792 14.502C27.9135 13.1673 29.525 12.4998 31.4128 12.4998C33.4098 12.4998 35.0703 13.2161 36.3939 14.6485C37.8914 14.3664 39.346 13.8128 40.7562 12.9884C40.2138 14.659 39.2041 15.9287 37.729 16.7968C39.1392 16.6011 40.4517 16.2324 41.6668 15.6899C40.7555 17.0787 39.6158 18.2614 38.2486 19.2384Z" fill="#333333"/>
</svg>
