<svg xmlns="http://www.w3.org/2000/svg" xmlns:xlink="http://www.w3.org/1999/xlink" version="1.1" width="533.333" height="533.333" style="" xml:space="preserve"><rect id="backgroundrect" width="100%" height="100%" x="0" y="0" fill="none" stroke="none"/>
















<g class="currentLayer" style=""><title>Layer 1</title><g id="svg_1" class="selected" fill="#ffffff" fill-opacity="1">
	<path d="M443.72777469825746,0 H88.19677469825744 C39.30077469825745,0 -0.7042253017425537,39.992 -0.7042253017425537,88.884 v355.55 c0,48.894 40.005,88.898 88.901,88.898 h355.532 c48.926,0 88.9,-40.005 88.9,-88.898 V88.884 C532.6287746982574,39.992 492.6547746982574,0 443.72777469825746,0 zM132.62877469825744,133.333 H399.29577469825745 c4.76,0 9.377,1.021 13.617,2.949 l-146.95,171.441 l-146.95,-171.442 C123.25177469825745,134.356 127.86977469825746,133.333 132.62877469825744,133.333 zM99.29577469825745,366.667 v-200 c0,-0.6980000000000002 0.029000000000000005,-1.3920000000000001 0.07300000000000001,-2.083 l97.742,114.032 l-96.666,96.666 C99.69177469825745,372.502 99.29577469825745,369.611 99.29577469825745,366.667 zM399.29577469825745,400 H132.62877469825744 c-2.9450000000000003,0 -5.834,-0.3960000000000001 -8.614,-1.149 l94.853,-94.854 l47.095,54.946 l47.096,-54.944 l94.852,94.854 C405.1287746982575,399.604 402.24077469825744,400 399.29577469825745,400 zM432.6287746982575,366.667 c0,2.944 -0.3970000000000001,5.833 -1.1480000000000001,8.614 l-96.668,-96.666 l97.743,-114.032 c0.04300000000000001,0.6910000000000002 0.07300000000000001,1.385 0.07300000000000001,2.083 V366.667 z" id="svg_2" fill="#ffffff" fill-opacity="1"/>
</g><g id="svg_3">
</g><g id="svg_4">
</g><g id="svg_5">
</g><g id="svg_6">
</g><g id="svg_7">
</g><g id="svg_8">
</g><g id="svg_9">
</g><g id="svg_10">
</g><g id="svg_11">
</g><g id="svg_12">
</g><g id="svg_13">
</g><g id="svg_14">
</g><g id="svg_15">
</g><g id="svg_16">
</g><g id="svg_17">
</g></g></svg>