<svg width="157" height="158" viewBox="0 0 157 158" fill="none" xmlns="http://www.w3.org/2000/svg">
<g clip-path="url(#clip0)">
<path d="M111.081 107.134C111.076 91.1916 104.854 76.1872 93.559 64.8928C82.308 53.6417 67.3616 47.4189 51.4713 47.3665C45.0479 47.3509 39.8224 52.5652 39.8246 58.9864C39.8224 62.109 41.0416 65.0443 43.2526 67.2553C45.4535 69.4563 48.3766 70.6721 51.4835 70.681C61.1555 70.7111 70.2546 74.4989 77.1037 81.3481C83.9785 88.2228 87.7675 97.3565 87.7719 107.061C87.7741 110.179 88.99 113.115 91.1987 115.324C93.4019 117.527 96.3239 118.742 99.4319 118.752C105.86 118.772 111.083 113.56 111.081 107.134Z" fill="white"/>
<path d="M77 114.232C77 131.629 62.897 145.732 45.5 145.732C28.103 145.732 14 131.629 14 114.232C14 96.8346 28.103 82.7316 45.5 82.7316C62.897 82.7316 77 96.8346 77 114.232ZM32.9 114.232C32.9 121.19 38.5412 126.832 45.5 126.832C52.4588 126.832 58.1 121.19 58.1 114.232C58.1 107.273 52.4588 101.632 45.5 101.632C38.5412 101.632 32.9 107.273 32.9 114.232Z" fill="white"/>
<path d="M148.511 107.605C148.481 81.6825 138.355 57.2982 119.998 38.9417C101.675 20.6186 77.3387 10.4954 51.4733 10.4307C48.3597 10.4218 45.4355 11.6276 43.2334 13.823C41.0369 16.0195 39.8256 18.9426 39.83 22.0562C39.8334 25.171 41.0503 28.1041 43.2568 30.3106C45.46 32.5138 48.3876 33.7296 51.4979 33.7419C71.1459 33.792 89.6317 41.4814 103.545 55.3948C117.487 69.3371 125.176 87.8596 125.199 107.548C125.202 110.667 126.418 113.599 128.626 115.807C130.83 118.011 133.759 119.228 136.867 119.233C139.978 119.24 142.905 118.037 145.105 115.839C147.305 113.642 148.512 110.719 148.511 107.605Z" fill="white"/>
</g>
<defs>
<clipPath id="clip0">
<rect width="157" height="157.732" fill="white"/>
</clipPath>
</defs>
</svg>
