<svg width="300" height="300" viewBox="0 0 300 300" fill="none" xmlns="http://www.w3.org/2000/svg">
<path d="M161.125 18.125L261.125 68.125C265.29 70.1947 268.795 73.3853 271.246 77.338C273.697 81.2908 274.997 85.8489 275 90.5V209.625C274.997 214.276 273.697 218.834 271.246 222.787C268.795 226.74 265.29 229.93 261.125 232L161.125 282C157.652 283.738 153.821 284.643 149.937 284.643C146.054 284.643 142.223 283.738 138.75 282L38.7499 232C34.589 229.903 31.0968 226.686 28.6672 222.71C26.2377 218.735 24.9674 214.159 24.9999 209.5V90.5C25.0023 85.8489 26.3022 81.2908 28.7534 77.338C31.2045 73.3853 34.7097 70.1947 38.8749 68.125L138.875 18.125C142.332 16.4072 146.14 15.5132 150 15.5132C153.86 15.5132 157.668 16.4072 161.125 18.125Z" stroke="white" stroke-width="15" stroke-linecap="round" stroke-linejoin="round"/>
<path d="M215.854 50.4582C219.559 48.6058 221.061 44.1007 219.208 40.3959C217.356 36.6911 212.851 35.1894 209.146 37.0418L215.854 50.4582ZM84.1459 50.4582L145.751 81.261L152.46 67.8446L90.8541 37.0418L84.1459 50.4582ZM154.249 81.261L215.854 50.4582L209.146 37.0418L147.54 67.8446L154.249 81.261ZM145.751 81.261C148.426 82.5982 151.574 82.5982 154.249 81.261L147.54 67.8446C149.089 67.0704 150.911 67.0704 152.46 67.8446L145.751 81.261Z" fill="white"/>
<path d="M29.0001 77L150 137.5L271 77" stroke="white" stroke-width="15" stroke-linecap="round" stroke-linejoin="round"/>
<path d="M150 284.5V137.5" stroke="white" stroke-width="15" stroke-linecap="round" stroke-linejoin="round"/>
<path d="M87.5 256.25V182.486C87.5 181.729 87.072 181.036 86.3944 180.697L25 150M212.5 256.25V182.486C212.5 181.729 212.928 181.036 213.606 180.697L275 150" stroke="white" stroke-width="15"/>
</svg>
