<svg width="401" height="411" viewBox="0 0 401 411" fill="none" xmlns="http://www.w3.org/2000/svg">
<path d="M353.439 178.008C357.678 198.027 357.932 218.684 354.187 238.801C350.443 258.918 342.772 278.1 331.614 295.253C320.456 312.405 306.029 327.192 289.156 338.769C272.284 350.346 253.296 358.486 233.277 362.725L224.08 319.289C238.395 316.258 251.972 310.437 264.037 302.159C276.102 293.881 286.418 283.307 294.397 271.042C302.376 258.777 307.861 245.061 310.538 230.676C313.216 216.291 313.034 201.52 310.003 187.205L353.439 178.008Z" fill="white"/>
<path d="M58.5786 134.582C69.8089 110.304 87.1 89.3266 108.787 73.6681C130.475 58.0097 155.828 48.198 182.406 45.1777C208.984 42.1573 235.893 46.03 260.54 56.423C285.188 66.8159 306.745 83.3791 323.137 104.518L288.05 131.725C276.329 116.609 260.915 104.765 243.29 97.3337C225.665 89.9022 206.424 87.1329 187.419 89.2927C168.414 91.4524 150.285 98.4683 134.777 109.665C119.27 120.862 106.905 135.862 98.8752 153.222L58.5786 134.582Z" fill="white"/>
<path d="M163.498 362.874C129.754 354.663 99.7201 335.415 78.1649 308.186C56.6097 280.956 44.7689 247.306 44.5225 212.578L88.9203 212.263C89.0965 237.096 97.5634 261.157 112.977 280.628C128.39 300.099 149.866 313.863 173.995 319.734L163.498 362.874Z" fill="white"/>
<circle cx="200.282" cy="210.492" r="69.8179" fill="white"/>
</svg>
