<svg width="250" height="250" viewBox="0 0 250 250" fill="none" xmlns="http://www.w3.org/2000/svg">
<path d="M125 0C56.2992 0 0 56.7875 0 125.488C0 193.79 55.7861 250 125 250C194.128 250 250 193.874 250 125.488C250 56.7875 193.701 0 125 0ZM146.973 233.154C139.942 234.619 132.471 235.352 125 235.352C117.529 235.352 110.058 234.619 103.027 233.154V198.877C103.027 190.674 105.225 187.744 108.154 183.788C109.646 182.083 110.546 180.553 117.235 170.46L105.957 168.701C76.952 164.454 65.527 149.364 60.9856 137.646C55.1262 121.973 58.2027 102.343 68.7504 89.8933C70.3621 87.9879 71.6801 84.7645 70.509 81.3961C68.3098 74.6574 68.6035 63.9648 70.0684 59.8621C77.8351 60.9722 85.8212 66.5359 92.4816 70.5566C95.5505 72.3476 97.1603 71.8746 98.6328 72.0215C103.985 70.9076 112.333 68.2125 125.147 68.2125C133.057 68.2125 141.407 69.3836 149.611 71.7278C151.077 71.6934 153.435 72.9408 157.52 70.5566C164.482 66.3147 172.197 60.9417 179.932 59.8621C181.396 63.9648 181.69 74.6574 179.493 81.3961C178.32 84.7645 179.638 87.9879 181.252 89.8933C191.797 102.345 194.874 121.973 189.014 137.646C184.473 149.364 173.048 164.454 144.043 168.701L132.765 170.46C139.679 180.893 140.408 182.144 141.848 183.788C144.775 187.744 146.973 190.674 146.973 198.877V233.154ZM161.621 228.907V198.877C161.621 190.527 159.863 184.961 157.518 180.859C179.785 174.854 195.606 161.669 202.637 142.773C210.108 122.852 206.739 99.1211 194.286 82.7141C196.486 72.9008 196.486 57.2262 191.212 49.902C188.868 46.6804 185.644 44.9219 181.543 44.9219C181.396 44.9219 181.396 44.9219 181.396 44.9219C170.038 45.536 161.098 51.2562 151.514 57.0793C142.725 54.7352 133.789 53.5641 124.853 53.5641C115.772 53.5641 106.689 54.882 98.6347 57.0793C88.5448 50.9949 79.6909 45.5208 68.018 44.9219C64.3559 44.9219 61.1324 46.6804 58.7883 49.902C53.5164 57.2262 53.5164 72.9008 55.7137 82.7141C43.2606 99.1211 39.8922 122.997 47.3633 142.773C54.3938 161.669 70.2152 174.854 92.4816 180.859C90.6639 184.038 89.2258 188.141 88.6593 193.693C84.1618 195.244 80.2612 195.749 76.6335 194.683C72.8073 193.552 69.8261 190.998 67.2359 186.642C61.4185 176.868 51.5099 168.89 40.2279 169.928L41.5154 184.519C46.7396 184.04 51.939 189.568 54.6398 194.124C59.0954 201.628 65.0978 206.549 72.485 208.731C77.9686 210.346 82.9811 210.308 88.3789 209.156V228.907C45.7516 213.964 14.6484 173.243 14.6484 125.488C14.6484 64.8441 64.3559 14.6484 125 14.6484C185.644 14.6484 235.352 64.8441 235.352 125.488C235.352 173.243 204.248 213.964 161.621 228.907Z" fill="white"/>
</svg>
