<svg width="60" height="35" viewBox="0 0 60 35" fill="none" xmlns="http://www.w3.org/2000/svg">
<path d="M3.75002 35C2.83502 35 1.92002 34.67 1.19502 34C-0.319982 32.59 -0.404985 30.215 1.00001 28.7L17.25 11.2C18.61 9.74001 20.865 9.59501 22.4 10.87L34.685 21.11L52.27 2.43001C53.69 0.920014 56.07 0.850016 57.57 2.27002C59.08 3.69002 59.15 6.06502 57.73 7.57502L37.73 28.825C36.375 30.275 34.13 30.41 32.6 29.135L20.335 18.91L6.50002 33.8C5.75502 34.595 4.75502 35 3.75002 35Z" fill="white"/>
<path d="M56.25 20C54.18 20 52.5 18.32 52.5 16.25V7.5H43.75C41.68 7.5 40 5.82 40 3.75C40 1.68 41.68 0 43.75 0H56.25C58.32 0 60 1.68 60 3.75V16.25C60 18.32 58.32 20 56.25 20Z" fill="white"/>
</svg>
