<svg xmlns="http://www.w3.org/2000/svg" xmlns:xlink="http://www.w3.org/1999/xlink" version="1.1" width="438.536" height="438.536" style="" xml:space="preserve"><rect id="backgroundrect" width="100%" height="100%" x="0" y="0" fill="none" stroke="none"/>
















<g class="currentLayer" style=""><title>Layer 1</title><g id="svg_1" class="selected" fill="#ffffff" fill-opacity="1">
	<g id="svg_2" fill="#ffffff" fill-opacity="1">
		<path d="M158.87722530174256,352.599 c-3.049,0.5680000000000001 -4.381,1.999 -3.999,4.281 c0.38000000000000006,2.283 2.093,3.046 5.138,2.283 c3.049,-0.7600000000000001 4.38,-2.095 3.997,-3.997 C163.63522530174257,353.074 161.92222530174254,352.216 158.87722530174256,352.599 z" id="svg_3" fill="#ffffff" fill-opacity="1"/>
		<path d="M142.60222530174255,354.885 c-3.046,0 -4.568,1.041 -4.568,3.1390000000000002 c0,2.474 1.6190000000000002,3.518 4.853,3.138 c3.046,0 4.57,-1.047 4.57,-3.138 C147.45722530174254,355.553 145.83822530174254,354.502 142.60222530174255,354.885 z" id="svg_4" fill="#ffffff" fill-opacity="1"/>
		<path d="M120.33322530174256,354.022 c-0.7600000000000001,2.095 0.47800000000000004,3.519 3.7110000000000003,4.284 c2.855,1.137 4.664,0.5680000000000001 5.424,-1.714 c0.5720000000000001,-2.091 -0.6660000000000001,-3.6100000000000003 -3.7110000000000003,-4.568 C122.90122530174256,351.265 121.09422530174255,351.922 120.33322530174256,354.022 z" id="svg_5" fill="#ffffff" fill-opacity="1"/>
		<path d="M415.1142253017426,24.123 C399.0302253017426,8.042 379.66822530174255,0 357.0132253017426,0 H82.92922530174255 C60.28122530174255,0 40.91222530174255,8.042 24.827225301742555,24.123 C8.746225301742554,40.207 0.7042253017425537,59.576 0.7042253017425537,82.225 v274.088 c0,22.65 8.042,42.017 24.123,58.098 c16.084,16.084 35.454,24.126 58.102,24.126 h63.953 c4.184,0 7.327,-0.14400000000000002 9.42,-0.42400000000000004 c2.092,-0.28800000000000003 4.184,-1.526 6.279,-3.717 c2.096,-2.187 3.14,-5.376 3.14,-9.562 c0,-0.5680000000000001 -0.05000000000000001,-7.046 -0.14400000000000002,-19.417 c-0.09700000000000003,-12.375 -0.14400000000000002,-22.176 -0.14400000000000002,-29.41 l-6.567,1.143 c-4.187,0.7600000000000001 -9.469,1.095 -15.846,0.999 c-6.374,-0.09600000000000003 -12.99,-0.7600000000000001 -19.841,-1.998 c-6.855,-1.239 -13.229,-4.093 -19.13,-8.562 c-5.898,-4.477 -10.085,-10.328 -12.56,-17.559 l-2.856,-6.571 c-1.903,-4.373 -4.899,-9.229 -8.992,-14.554 c-4.093,-5.332 -8.232,-8.949 -12.419,-10.852 l-1.999,-1.428 c-1.331,-0.9510000000000001 -2.568,-2.098 -3.7110000000000003,-3.4290000000000003 c-1.141,-1.335 -1.9969999999999999,-2.669 -2.568,-3.997 c-0.5710000000000001,-1.335 -0.09700000000000003,-2.43 1.427,-3.289 c1.524,-0.8550000000000001 4.281,-1.279 8.28,-1.279 l5.708,0.8550000000000001 c3.808,0.7600000000000001 8.516,3.042 14.134,6.851 c5.614,3.806 10.229,8.754 13.846,14.843 c4.38,7.806 9.657,13.75 15.846,17.843 c6.184,4.097 12.419,6.143 18.699,6.143 s11.704,-0.47600000000000003 16.274,-1.424 c4.565,-0.9540000000000001 8.848,-2.3850000000000002 12.847,-4.288 c1.713,-12.751 6.377,-22.559 13.988,-29.41 c-10.848,-1.143 -20.602,-2.854 -29.265,-5.14 c-8.658,-2.286 -17.605,-5.995 -26.835,-11.136 c-9.234,-5.14 -16.894,-11.512 -22.985,-19.13 c-6.09,-7.618 -11.088,-17.61 -14.987,-29.978 c-3.901,-12.375 -5.852,-26.652 -5.852,-42.829 c0,-23.029 7.521,-42.637 22.557,-58.814 c-7.044,-17.32 -6.3790000000000004,-36.732 1.9969999999999999,-58.242 c5.52,-1.714 13.706,-0.42800000000000005 24.554,3.855 c10.85,4.286 18.794,7.9510000000000005 23.84,10.992 c5.046,3.042 9.089,5.614 12.135,7.71 c17.705,-4.949 35.976,-7.423 54.818,-7.423 c18.841,0 37.115,2.474 54.821,7.423 l10.849,-6.852 c7.426,-4.57 16.18,-8.757 26.269,-12.562 c10.088,-3.806 17.795,-4.854 23.127,-3.14 c8.562,21.51 9.328,40.922 2.279,58.241 c15.036,16.179 22.559,35.786 22.559,58.815 c0,16.18 -1.951,30.505 -5.852,42.969 c-3.898,12.467 -8.939,22.463 -15.13,29.981 c-6.184,7.519 -13.894,13.843 -23.124,18.986 c-9.232,5.1370000000000005 -18.178,8.853 -26.84,11.132 c-8.661,2.286 -18.414,4.004 -29.263,5.147 c9.891,8.562 14.839,22.072 14.839,40.538 v68.238 c0,3.237 0.47200000000000003,5.852 1.424,7.851 c0.9580000000000001,1.998 2.478,3.374 4.571,4.141 c2.102,0.7600000000000001 3.949,1.235 5.571,1.424 c1.622,0.19100000000000003 3.949,0.28700000000000003 6.995,0.28700000000000003 h63.953 c22.648,0 42.018,-8.042 58.095,-24.126 c16.084,-16.084 24.126,-35.454 24.126,-58.102 V82.225 C439.23722530174257,59.576 431.19522530174254,40.204 415.1142253017426,24.123 z" id="svg_6" fill="#ffffff" fill-opacity="1"/>
		<path d="M87.49722530174256,319.195 c-1.331,0.9480000000000001 -1.141,2.471 0.5720000000000001,4.565 c1.9060000000000001,1.9020000000000001 3.427,2.189 4.57,0.8550000000000001 c1.331,-0.9480000000000001 1.141,-2.471 -0.5750000000000001,-4.569 C90.16222530174255,318.336 88.64022530174256,318.049 87.49722530174256,319.195 z" id="svg_7" fill="#ffffff" fill-opacity="1"/>
		<path d="M78.07822530174255,312.057 c-0.5700000000000001,1.335 0.09600000000000003,2.478 1.999,3.426 c1.521,0.9550000000000001 2.762,0.7670000000000001 3.7110000000000003,-0.5680000000000001 c0.5700000000000001,-1.335 -0.09600000000000003,-2.478 -1.999,-3.433 C79.88622530174256,310.91 78.64922530174255,311.102 78.07822530174255,312.057 z" id="svg_8" fill="#ffffff" fill-opacity="1"/>
		<path d="M96.35022530174255,330.331 c-1.715,0.9480000000000001 -1.715,2.6660000000000004 0,5.1370000000000005 c1.713,2.478 3.3280000000000003,3.142 4.853,1.998 c1.714,-1.334 1.714,-3.142 0,-5.427 C99.68222530174255,329.571 98.06322530174255,328.993 96.35022530174255,330.331 z" id="svg_9" fill="#ffffff" fill-opacity="1"/>
		<path d="M106.34522530174256,343.174 c-1.714,1.526 -1.336,3.327 1.142,5.428 c2.281,2.279 4.185,2.566 5.708,0.8490000000000001 c1.524,-1.5190000000000001 1.143,-3.326 -1.142,-5.42 C109.77222530174255,341.751 107.86822530174256,341.463 106.34522530174256,343.174 z" id="svg_10" fill="#ffffff" fill-opacity="1"/>
	</g>
</g><g id="svg_11">
</g><g id="svg_12">
</g><g id="svg_13">
</g><g id="svg_14">
</g><g id="svg_15">
</g><g id="svg_16">
</g><g id="svg_17">
</g><g id="svg_18">
</g><g id="svg_19">
</g><g id="svg_20">
</g><g id="svg_21">
</g><g id="svg_22">
</g><g id="svg_23">
</g><g id="svg_24">
</g><g id="svg_25">
</g></g></svg>