<svg xmlns="http://www.w3.org/2000/svg" width="512" height="512" style=""><rect id="backgroundrect" width="100%" height="100%" x="0" y="0" fill="none" stroke="none"/><g class="currentLayer" style=""><title>Layer 1</title><path d="m437,0 h-362 c-41.351562,0 -75,33.648438 -75,75 v362 c0,41.351562 33.648438,75 75,75 h362 c41.351562,0 75,-33.648438 75,-75 v-362 c0,-41.351562 -33.648438,-75 -75,-75 zm-256,406 h-60 v-210 h60 zm0,-240 h-60 v-60 h60 zm210,240 h-60 v-120 c0,-16.539062 -13.460938,-30 -30,-30 s-30,13.460938 -30,30 v120 h-60 v-210 h60 v11.308594 c15.71875,-4.886719 25.929688,-11.308594 45,-11.308594 c40.691406,0.042969000000000014 75,36.546875 75,79.6875 zm0,0 " id="svg_1" class="" fill="#ffffff" fill-opacity="1"/></g></svg>