<svg xmlns="http://www.w3.org/2000/svg" xmlns:xlink="http://www.w3.org/1999/xlink" version="1.1" width="35" height="35" style="enable-background:new 0 0 35 35;" xml:space="preserve"><rect id="backgroundrect" width="100%" height="100%" x="0" y="0" fill="none" stroke="none"/>
















<g class="currentLayer" style=""><title>Layer 1</title><g id="svg_1" class="selected" fill="#ffffff" fill-opacity="1">
	<path d="M30,0H5C2.239,0,0,2.239,0,5v25c0,2.761,2.239,5,5,5h25c2.762,0,5-2.239,5-5V5C35,2.239,32.762,0,30,0z M7.25,6.25h10.039   c0.829,0,1.5,0.671,1.5,1.5s-0.671,1.5-1.5,1.5H7.25c-0.829,0-1.5-0.671-1.5-1.5S6.421,6.25,7.25,6.25z M7.25,12.75h10   c0.829,0,1.5,0.671,1.5,1.5s-0.671,1.5-1.5,1.5h-10c-0.829,0-1.5-0.671-1.5-1.5S6.421,12.75,7.25,12.75z M27.75,28.75H7.25   c-0.829,0-1.5-0.671-1.5-1.5s0.671-1.5,1.5-1.5h20.5c0.829,0,1.5,0.671,1.5,1.5S28.579,28.75,27.75,28.75z M27.75,22.25H7.25   c-0.829,0-1.5-0.671-1.5-1.5s0.671-1.5,1.5-1.5h20.5c0.829,0,1.5,0.671,1.5,1.5S28.579,22.25,27.75,22.25z" id="svg_2" fill="#ffffff" fill-opacity="1"/>
</g><g id="svg_3">
</g><g id="svg_4">
</g><g id="svg_5">
</g><g id="svg_6">
</g><g id="svg_7">
</g><g id="svg_8">
</g><g id="svg_9">
</g><g id="svg_10">
</g><g id="svg_11">
</g><g id="svg_12">
</g><g id="svg_13">
</g><g id="svg_14">
</g><g id="svg_15">
</g><g id="svg_16">
</g><g id="svg_17">
</g></g></svg>