<svg width="50" height="50" viewBox="0 0 50 50" fill="none" xmlns="http://www.w3.org/2000/svg">
<path d="M41.6655 0H8.33447C3.75047 0 0 3.74925 0 8.33288V41.6657C0 46.2495 3.75047 49.9999 8.33447 49.9999H41.6656C46.2524 49.9999 50 46.2494 50 41.6657V8.33288C50 3.74925 46.2524 0 41.6655 0ZM12.5 12.5H37.5C37.9463 12.5 38.3791 12.5957 38.7766 12.7764L25 28.849L11.2235 12.7764C11.6209 12.5959 12.0538 12.5 12.5 12.5ZM9.37501 34.375V15.625C9.37501 15.5596 9.37772 15.4945 9.38185 15.4298L18.5452 26.1203L9.48272 35.1827C9.41213 34.9221 9.37501 34.651 9.37501 34.375ZM37.5 37.5H12.5C12.2239 37.5 11.953 37.4629 11.6924 37.3923L20.5849 28.4997L25 33.6509L29.4153 28.4999L38.3077 37.3925C38.0469 37.4629 37.7761 37.5 37.5 37.5ZM40.625 34.375C40.625 34.651 40.5878 34.9219 40.5174 35.1826L31.4547 26.1202L40.6182 15.4297C40.6222 15.4944 40.625 15.5595 40.625 15.6249V34.375V34.375Z" fill="white"/>
</svg>
