<svg width="513" height="513" viewBox="0 0 513 513" fill="none" xmlns="http://www.w3.org/2000/svg">
<g clip-path="url(#clip0)">
<path d="M468.214 512.02C457.006 512.02 445.806 507.74 437.254 499.188L12.838 74.756C-4.26599 57.652 -4.26599 29.916 12.838 12.828C29.942 -4.276 57.654 -4.276 74.766 12.828L499.182 437.26C516.286 454.364 516.286 482.1 499.182 499.188C490.622 507.74 479.414 512.02 468.214 512.02Z" fill="white"/>
<path d="M43.798 512.02C32.59 512.02 21.39 507.74 12.838 499.188C-4.26599 482.1 -4.26599 454.372 12.838 437.26L437.254 12.836C454.358 -4.268 482.07 -4.268 499.182 12.836C516.286 29.924 516.286 57.652 499.182 74.764L74.758 499.188C66.206 507.74 55.006 512.02 43.798 512.02Z" fill="white"/>
</g>
<defs>
<clipPath id="clip0">
<rect width="512.02" height="512.02" fill="white"/>
</clipPath>
</defs>
</svg>
