<svg width="1136" height="208" viewBox="0 0 1136 208" fill="none" xmlns="http://www.w3.org/2000/svg">
<path d="M80.44 0.199948C80.44 0.399948 80.04 5.69995 79.54 11.9999C76.84 47.6999 62.84 78.9999 38.24 104C33.64 108.7 27.44 114.4 24.44 116.7C19.04 120.8 2.54 131.5 0.24 132.3C-0.56 132.6 0.64 135.9 3.84 142.2C20.34 175.1 51.84 198.7 89.04 206.1C99.24 208.1 124.04 207.9 134.14 205.8C172.04 197.6 202.44 174.2 219.44 140.3C221.14 136.9 222.54 133.9 222.54 133.6C222.54 133.4 219.24 131.4 215.24 129.2C173.44 106.3 145.84 62.9999 141.34 13.4999L140.14 -5.192e-05H110.34C93.94 -5.192e-05 80.54 0.0999481 80.44 0.199948ZM128.94 15.1999C129.24 16.4999 129.54 18.7999 129.54 20.2999C129.54 30.3999 136.74 55.2999 144.14 70.6999C156.44 96.4999 174.34 116.4 203.94 137.3C205.74 138.5 205.74 138.8 204.24 141.7C201.14 147.6 190.44 161 188.74 161C182.44 160.9 148.54 130.3 136.54 114C116.44 86.7 104.34 55.8999 100.64 22.9999C100.14 18.3999 99.94 14.1999 100.14 13.7999C100.44 13.2999 106.84 12.9999 114.44 12.9999C127.94 12.9999 128.34 13.0999 128.94 15.1999ZM93.24 51.2999C94.94 57.9999 97.94 67.6999 99.94 72.6999L103.64 81.8999L100.44 88.1999C92.64 103.8 81.84 118.4 65.64 135.4C51.64 150 47.64 157.5 47.54 169.2C47.54 171.9 47.14 173 46.04 173C43.54 173 26.94 155.8 21.64 147.6C18.84 143.3 16.54 139.2 16.54 138.6C16.54 138 20.54 134.7 25.44 131.2C53.14 111.6 73.74 83.9999 84.14 52.2999C86.04 46.3999 87.84 40.8999 88.04 40.1999C89.04 37.0999 90.34 39.8999 93.24 51.2999ZM116.04 105.6C122.14 115.7 129.64 125.8 138.44 135.7C142.34 140.2 145.54 144.1 145.54 144.5C145.54 145.6 132.74 151 126.24 152.5C117.44 154.6 103.44 154.4 94.34 152.1C86.84 150.2 77.24 145.9 76.04 144.1C75.74 143.5 78.44 139.9 82.04 135.9C92.04 125.1 97.34 117.9 108.24 100.2C108.94 98.9999 110.04 97.9999 110.44 97.9999C110.94 97.9999 113.44 101.4 116.04 105.6ZM169.34 163.3C174.44 167.1 178.54 170.6 178.54 171C178.54 172.2 166.34 180.1 158.54 184C130.94 197.9 94.54 198.7 67.34 186C61.24 183.1 58.44 167.6 62.34 158.6C63.54 156.1 64.94 154 65.64 154C66.24 154 69.14 155.3 71.94 156.9C74.74 158.6 81.34 161.4 86.54 163.2C95.44 166.2 96.84 166.4 110.04 166.5C126.84 166.5 132.84 165.1 146.54 158.2C155.44 153.7 156.14 153.5 158.14 154.9C159.24 155.8 164.34 159.6 169.34 163.3Z" fill="white"/>
<path d="M311.44 30.7C305.04 47.4 258.54 172.6 258.54 173.2C258.54 173.7 265.14 173.9 273.24 173.8L287.94 173.5L293.44 158.3L299.04 143H329.24H359.34L362.34 150.7C363.94 155 366.44 162 368.04 166.2L370.84 174H386.04H401.24L374.04 101.2L346.84 28.5L329.64 28.2L312.54 28L311.44 30.7ZM339.34 89C344.34 102.5 348.74 114.3 349.04 115.2C349.74 116.9 348.34 117 329.24 117H308.74L318.84 89.4C324.54 73.7 329.24 62.5 329.64 63.2C329.94 63.9 334.34 75.5 339.34 89Z" fill="white"/>
<path d="M415.54 101V174H430.04H444.54L444.74 124.2L445.04 74.4L478.64 123.9L512.24 173.5L525.44 173.8L538.54 174.1V101V28H524.54H510.54L510.34 75.7L510.04 123.5L478.14 75.7L446.24 28H430.84H415.54V101Z" fill="white"/>
<path d="M564.54 101V174.1L598.34 173.8C629.74 173.4 632.54 173.2 639.54 171.1C665.34 163.3 681.74 145.2 687.14 118.6C689.14 108.9 688.64 87.7 686.14 78.5C679.64 54.4 662.74 37.6 637.94 30.8C630.74 28.8 627.14 28.6 597.34 28.2L564.54 27.8V101ZM632.84 56.9C649.94 63.6 658.94 78.8 658.94 101C658.94 116.3 655.44 126.8 647.34 135.6C638.54 145.2 629.54 148.1 608.64 148.4L594.04 148.5L593.74 101.1L593.54 53.8L610.24 54.2C624.74 54.6 627.84 55 632.84 56.9Z" fill="white"/>
<path d="M704.74 77.7C705.24 124.7 705.34 127.9 707.34 135.3C713.24 156.7 727.24 170.1 748.54 174.6C760.04 177 778.64 176.1 788.94 172.6C806.64 166.6 817.64 154.9 823.14 136.4C824.74 131.2 824.94 124.6 825.24 79.2L825.64 28H810.64H795.64L795.34 77.2C795.04 112.8 794.64 127.5 793.74 130.2C791.24 137.4 786.44 143.3 780.14 146.5C774.74 149.2 773.24 149.5 765.14 149.5C757.64 149.5 755.24 149.1 751.34 147.1C744.84 144 739.94 138 737.54 130.2C735.64 124.2 735.54 120.8 735.54 75.9V28H719.94H704.34L704.74 77.7Z" fill="white"/>
<path d="M848.54 100.9V174H863.54H878.54V147V120H888.84H899.24L915.94 147L932.74 174H949.64C958.94 174 966.54 173.8 966.54 173.6C966.54 173.3 958.84 161.1 949.44 146.3C940.04 131.6 932.14 119 931.84 118.4C931.64 117.8 934.84 115.7 938.94 113.7C952.34 107.3 960.54 96.2 962.74 81C965.74 61 956.84 42.7 940.14 34.5C928.74 28.9 926.94 28.7 886.34 28.3L848.54 27.9V100.9ZM918.64 55C930.84 58.4 936.84 71.2 931.64 82.5C929.44 87.4 926.24 90.3 921.04 92.6C917.84 94 913.24 94.5 897.84 94.8L878.54 95.2V74.6V54H896.84C906.84 54 916.64 54.5 918.64 55Z" fill="white"/>
<path d="M983.54 101V174H998.54H1013.54V101V28H998.54H983.54V101Z" fill="white"/>
<path d="M1038.54 101V174H1087.04H1135.54V161V148H1102.04H1068.54V88V28H1053.54H1038.54V101Z" fill="white"/>
</svg>
