<svg width="344" height="71" viewBox="0 0 344 71" fill="none" xmlns="http://www.w3.org/2000/svg">
<path d="M65.436 5.47957C61.9045 1.94609 57.2066 0 52.21 0C47.2128 0 42.5165 1.94609 38.9834 5.47957L22.2313 22.2305L5.4787 38.9835C1.94617 42.517 0 47.2148 0 52.2101C0 57.2055 1.94617 61.9033 5.4787 65.4346C9.01015 68.9681 13.7081 70.9142 18.7047 70.9142C23.7014 70.9142 28.3982 68.9681 31.9308 65.4346L48.6834 48.6837L65.436 31.9306C68.9685 28.3972 70.9142 23.6994 70.9142 18.704C70.9142 13.7087 68.9685 9.01089 65.436 5.47957ZM28.4042 61.9081C25.8125 64.4991 22.3677 65.9269 18.7047 65.9269C15.0402 65.9269 11.5964 64.4997 9.00528 61.9081C6.41418 59.3166 4.98797 55.8735 4.98797 52.2107C4.98797 48.5479 6.41526 45.1015 9.00528 42.5105L23.9946 27.5207L43.3935 46.921L28.4042 61.9081ZM61.9094 28.4042L46.9201 43.394L37.2206 33.6939L27.5212 23.9937L42.5105 9.00602C45.1016 6.41502 48.5465 4.98723 52.21 4.98723C55.874 4.98723 59.3178 6.41448 61.9089 9.00602C64.5 11.5976 65.9262 15.0407 65.9262 18.7035C65.9262 22.3663 64.4994 25.8126 61.9094 28.4042Z" fill="white"/>
<path d="M58.903 16.9995C58.1184 16.9995 57.3472 16.6248 56.8705 15.9304C55.7193 14.2486 53.8202 13.2468 51.7888 13.2468C50.1455 13.2468 48.6019 13.8857 47.4389 15.0487C46.4776 16.0094 44.9207 16.0094 43.96 15.0487C42.9993 14.0874 42.9993 12.5305 43.96 11.5698C46.0517 9.47703 48.8314 8.32629 51.7888 8.32629C55.4444 8.32629 58.8619 10.1282 60.9306 13.1486C61.6982 14.27 61.4126 15.8007 60.2907 16.5698C59.8664 16.8602 59.3823 16.9995 58.903 16.9995Z" fill="white"/>
<rect x="1.70453" y="48.1608" width="30.9704" height="29.6661" transform="rotate(-45 1.70453 48.1608)" fill="white"/>
<rect x="1.379" y="54.3386" width="6.21306" height="21.3822" transform="rotate(-45 1.379 54.3386)" fill="white"/>
<rect x="24.6674" y="26.8655" width="8.42901" height="27.4171" transform="rotate(-45 24.6674 26.8655)" fill="#E4564D"/>
<path d="M117.442 54.7827C123.217 54.7827 128.682 51.9262 132.035 47.0827L124.335 41.8044C122.782 44.102 120.174 45.4682 117.442 45.4682C112.785 45.4682 109.059 41.6802 109.059 37.0851C109.059 32.4278 112.785 28.7019 117.442 28.7019C120.112 28.7019 122.72 30.006 124.273 32.2415L131.911 26.9011C130.296 24.6035 128.123 22.7406 125.701 21.4366C123.155 20.0705 120.299 19.3874 117.442 19.3874C115.02 19.3874 112.723 19.8221 110.549 20.7535C108.438 21.685 106.513 22.9269 104.898 24.5414C103.284 26.2181 101.98 28.081 101.111 30.1923C100.179 32.3657 99.7444 34.7254 99.7444 37.0851C99.7444 39.4447 100.179 41.8044 101.111 43.9778C101.98 46.0891 103.284 47.952 104.898 49.6287C106.513 51.2432 108.438 52.4851 110.549 53.4166C112.723 54.2859 115.02 54.7827 117.442 54.7827Z" fill="white"/>
<path d="M170.524 19.3253L170.586 21.3124C168.102 20.0704 165.37 19.3874 162.575 19.3874C160.216 19.3874 157.856 19.822 155.682 20.7535C153.571 21.6849 151.708 22.9269 150.032 24.5414C148.417 26.1559 147.175 28.0809 146.244 30.1922C145.374 32.3656 144.878 34.7253 144.878 37.085C144.878 39.4447 145.374 41.8044 146.244 43.9778C147.175 46.0891 148.417 47.952 150.032 49.6286C151.708 51.2431 153.571 52.4851 155.682 53.4165C157.856 54.2859 160.216 54.7827 162.575 54.7827C165.37 54.7827 168.102 54.0996 170.586 52.8577L170.524 54.2859H179.838V19.3253H170.524ZM166.798 44.2883C165.556 45.0334 164.066 45.4681 162.575 45.4681C157.98 45.4681 154.192 41.6802 154.192 37.085C154.192 32.4898 157.98 28.7019 162.575 28.7019C164.19 28.7019 165.804 29.1366 167.108 30.068C168.474 30.8753 169.53 32.1172 170.151 33.5455C170.71 34.6632 170.958 35.8431 170.958 37.085C170.958 38.5753 170.586 40.0036 169.841 41.3076C169.095 42.5495 168.102 43.6052 166.798 44.2883Z" fill="white"/>
<path d="M231.121 30.1923C230.19 28.081 228.948 26.2181 227.333 24.5414C225.657 22.9269 223.794 21.685 221.682 20.7535C219.509 19.8221 217.211 19.3874 214.79 19.3874C212.43 19.3874 210.07 19.8221 207.897 20.7535C205.785 21.685 203.923 22.9269 202.246 24.5414C200.631 26.156 199.389 28.081 198.458 30.1923C197.589 32.3657 197.092 34.6633 197.092 37.085V63.4763L206.406 66.5811V52.6714C206.903 52.9198 207.4 53.1682 207.897 53.3545C210.07 54.2859 212.43 54.7827 214.79 54.7827C217.149 54.7827 219.509 54.2859 221.682 53.3545C223.794 52.4851 225.657 51.2432 227.333 49.5666C228.948 47.952 230.19 46.0891 231.121 43.9778C232.052 41.8044 232.487 39.4447 232.487 37.085C232.487 34.6633 232.052 32.3657 231.121 30.1923ZM214.79 45.4681C210.194 45.4681 206.406 41.6802 206.406 37.085C206.406 32.4899 210.194 28.7019 214.79 28.7019C219.385 28.7019 223.173 32.4899 223.173 37.085C223.173 41.6802 219.385 45.4681 214.79 45.4681Z" fill="white"/>
<path d="M248.733 54.2859H258.109V4.23572L248.733 7.34057V54.2859Z" fill="white"/>
<path d="M291.174 54.5343C293.596 54.5343 295.956 54.0375 298.191 53.0439C300.365 52.1125 302.29 50.7463 303.904 49.0697L297.322 42.86C295.707 44.5987 293.534 45.5302 291.174 45.5302C288.132 45.5302 285.461 43.9157 283.971 41.556H308.624V37.0229C308.624 32.3656 306.823 27.9567 303.532 24.6656C300.241 21.3744 295.832 19.5115 291.174 19.5115C286.455 19.5115 282.108 21.3744 278.755 24.6656C275.464 27.9567 273.663 32.3656 273.663 37.0229C273.663 41.6802 275.464 46.0891 278.755 49.3802C282.108 52.6714 286.455 54.5343 291.174 54.5343ZM283.971 32.5519C285.461 30.1301 288.132 28.5156 291.174 28.5156C294.155 28.5156 296.825 30.1301 298.378 32.5519H283.971Z" fill="white"/>
<path d="M343.588 28.3915V19.6979H333.715V8.58252L324.4 11.6874V35.781C324.4 38.3891 324.897 40.873 325.891 43.2327C326.822 45.5303 328.25 47.5795 329.989 49.3182C331.728 51.119 333.777 52.4851 336.075 53.4787C338.434 54.4722 340.98 54.969 343.588 54.969V45.6545C338.124 45.6545 333.715 41.2456 333.715 35.781V28.3915H343.588Z" fill="white"/>
</svg>
