<svg width="727" height="158" viewBox="0 0 727 158" fill="none" xmlns="http://www.w3.org/2000/svg">
<path d="M222.154 78.4C216.854 78.4 212.404 80.25 208.804 83.95C205.204 87.65 203.404 92.7 203.404 99.1C203.404 105.5 205.204 110.6 208.804 114.4C212.504 118.1 217.004 119.95 222.304 119.95C227.004 119.95 230.754 118.75 233.554 116.35C236.354 113.85 238.254 110.9 239.254 107.5L256.804 113.35C255.004 120.15 251.104 126 245.104 130.9C239.104 135.8 231.504 138.25 222.304 138.25C211.304 138.25 202.054 134.55 194.554 127.15C187.154 119.65 183.454 110.3 183.454 99.1C183.454 87.8 187.104 78.45 194.404 71.05C201.804 63.65 210.904 59.95 221.704 59.95C231.104 59.95 238.804 62.4 244.804 67.3C250.804 72.1 254.654 77.95 256.354 84.85L238.504 90.85C236.104 82.55 230.654 78.4 222.154 78.4ZM290.543 114.55C294.243 118.25 298.693 120.1 303.893 120.1C309.093 120.1 313.493 118.25 317.093 114.55C320.793 110.85 322.643 105.7 322.643 99.1C322.643 92.5 320.793 87.35 317.093 83.65C313.493 79.95 309.093 78.1 303.893 78.1C298.693 78.1 294.243 79.95 290.543 83.65C286.943 87.35 285.143 92.5 285.143 99.1C285.143 105.7 286.943 110.85 290.543 114.55ZM276.143 71.05C283.543 63.65 292.793 59.95 303.893 59.95C314.993 59.95 324.193 63.65 331.493 71.05C338.893 78.45 342.593 87.8 342.593 99.1C342.593 110.4 338.893 119.75 331.493 127.15C324.193 134.55 314.993 138.25 303.893 138.25C292.793 138.25 283.543 134.55 276.143 127.15C268.843 119.75 265.193 110.4 265.193 99.1C265.193 87.8 268.843 78.45 276.143 71.05ZM378.29 136H358.34V27.4H378.29V136ZM469.999 27.4V122.65C469.999 127.55 470.199 132 470.599 136H451.549C451.049 133.5 450.799 130.65 450.799 127.45C449.099 130.55 446.399 133.05 442.699 134.95C439.099 136.85 434.899 137.8 430.099 137.8C419.599 137.8 410.949 134.15 404.149 126.85C397.449 119.45 394.099 110.15 394.099 98.95C394.099 88.05 397.399 78.9 403.999 71.5C410.699 64.1 419.199 60.4 429.499 60.4C440.099 60.4 447.049 63.45 450.349 69.55V27.4H469.999ZM414.199 98.95C414.199 105.45 415.899 110.6 419.299 114.4C422.699 118.1 427.099 119.95 432.499 119.95C437.799 119.95 442.149 118.05 445.549 114.25C448.949 110.45 450.649 105.3 450.649 98.8C450.649 92.4 448.949 87.4 445.549 83.8C442.149 80.1 437.799 78.25 432.499 78.25C427.199 78.25 422.799 80.1 419.299 83.8C415.899 87.5 414.199 92.55 414.199 98.95ZM524.791 78.4C519.491 78.4 515.041 80.25 511.441 83.95C507.841 87.65 506.041 92.7 506.041 99.1C506.041 105.5 507.841 110.6 511.441 114.4C515.141 118.1 519.641 119.95 524.941 119.95C529.641 119.95 533.391 118.75 536.191 116.35C538.991 113.85 540.891 110.9 541.891 107.5L559.441 113.35C557.641 120.15 553.741 126 547.741 130.9C541.741 135.8 534.141 138.25 524.941 138.25C513.941 138.25 504.691 134.55 497.191 127.15C489.791 119.65 486.091 110.3 486.091 99.1C486.091 87.8 489.741 78.45 497.041 71.05C504.441 63.65 513.541 59.95 524.341 59.95C533.741 59.95 541.441 62.4 547.441 67.3C553.441 72.1 557.291 77.95 558.991 84.85L541.141 90.85C538.741 82.55 533.291 78.4 524.791 78.4ZM569.319 115.9C569.319 109.6 571.369 104.55 575.469 100.75C579.569 96.95 584.869 94.55 591.369 93.55L609.519 90.85C613.219 90.35 615.069 88.6 615.069 85.6C615.069 82.8 613.969 80.5 611.769 78.7C609.669 76.9 606.619 76 602.619 76C598.419 76 595.069 77.15 592.569 79.45C590.169 81.75 588.819 84.6 588.519 88L570.819 84.25C571.519 77.85 574.669 72.2 580.269 67.3C585.869 62.4 593.269 59.95 602.469 59.95C613.469 59.95 621.569 62.6 626.769 67.9C631.969 73.1 634.569 79.8 634.569 88V124.3C634.569 128.7 634.869 132.6 635.469 136H617.169C616.669 133.8 616.419 130.85 616.419 127.15C611.719 134.45 604.469 138.1 594.669 138.1C587.069 138.1 580.919 135.9 576.219 131.5C571.619 127.1 569.319 121.9 569.319 115.9ZM598.869 123.25C603.569 123.25 607.419 121.95 610.419 119.35C613.519 116.65 615.069 112.25 615.069 106.15V102.85L598.419 105.4C592.319 106.3 589.269 109.4 589.269 114.7C589.269 117.1 590.119 119.15 591.819 120.85C593.519 122.45 595.869 123.25 598.869 123.25ZM674.628 136H654.678V27.4H674.628V136ZM715.937 136H695.987V27.4H715.937V136Z" fill="white"/>
<path d="M97.0808 119.134C97.0763 103.192 90.8535 88.1872 79.559 76.8928C68.308 65.6417 53.3616 59.4189 37.4713 59.3665C31.0478 59.3509 25.8224 64.5652 25.8246 70.9864C25.8224 74.109 27.0415 77.0443 29.2525 79.2553C31.4535 81.4563 34.3766 82.6721 37.4835 82.681C47.1554 82.7111 56.2546 86.4989 63.1037 93.3481C69.9785 100.223 73.7674 109.357 73.7719 119.061C73.7741 122.179 74.9899 125.115 77.1987 127.324C79.4019 129.527 82.3238 130.742 85.4319 130.752C91.8601 130.772 97.083 125.56 97.0808 119.134Z" fill="white"/>
<path d="M63 126.232C63 143.629 48.897 157.732 31.5 157.732C14.103 157.732 0 143.629 0 126.232C0 108.835 14.103 94.7316 31.5 94.7316C48.897 94.7316 63 108.835 63 126.232ZM18.9 126.232C18.9 133.19 24.5412 138.832 31.5 138.832C38.4588 138.832 44.1 133.19 44.1 126.232C44.1 119.273 38.4588 113.632 31.5 113.632C24.5412 113.632 18.9 119.273 18.9 126.232Z" fill="white"/>
<path d="M134.511 119.605C134.481 93.6825 124.355 69.2982 105.998 50.9417C87.675 32.6186 63.3387 22.4954 37.4733 22.4307C34.3597 22.4218 31.4355 23.6276 29.2334 25.823C27.0369 28.0195 25.8255 30.9426 25.83 34.0562C25.8334 37.171 27.0503 40.1041 29.2568 42.3106C31.46 44.5138 34.3875 45.7296 37.4978 45.7419C57.1459 45.792 75.6317 53.4814 89.545 67.3948C103.487 81.3371 111.176 99.8596 111.199 119.548C111.202 122.667 112.418 125.599 114.626 127.807C116.83 130.011 119.759 131.228 122.867 131.233C125.978 131.24 128.905 130.037 131.105 127.839C133.305 125.642 134.512 122.719 134.511 119.605Z" fill="white"/>
</svg>
