<svg width="373" height="69" viewBox="0 0 373 69" fill="none" xmlns="http://www.w3.org/2000/svg">
<path d="M99.6256 29.375C96.8256 29.375 94.4506 30.4 92.5006 32.45C90.5506 34.45 89.5756 37.2 89.5756 40.7C89.5756 44.25 90.5506 47.05 92.5006 49.1C94.5006 51.15 96.9256 52.175 99.7756 52.175C102.326 52.175 104.351 51.5 105.851 50.15C107.401 48.75 108.426 47.175 108.926 45.425L116.576 48.2C115.576 51.45 113.626 54.25 110.726 56.6C107.876 58.95 104.226 60.125 99.7756 60.125C94.4256 60.125 89.9256 58.275 86.2756 54.575C82.6756 50.875 80.8756 46.25 80.8756 40.7C80.8756 35.1 82.6506 30.475 86.2006 26.825C89.8006 23.175 94.2506 21.35 99.5506 21.35C104.101 21.35 107.801 22.525 110.651 24.875C113.551 27.225 115.426 30.05 116.276 33.35L108.476 36.2C107.976 34.3 107.001 32.7 105.551 31.4C104.151 30.05 102.176 29.375 99.6256 29.375ZM132.711 49.25C134.711 51.3 137.136 52.325 139.986 52.325C142.836 52.325 145.236 51.3 147.186 49.25C149.186 47.2 150.186 44.35 150.186 40.7C150.186 37.1 149.186 34.3 147.186 32.3C145.236 30.25 142.836 29.225 139.986 29.225C137.136 29.225 134.711 30.25 132.711 32.3C130.761 34.3 129.786 37.1 129.786 40.7C129.786 44.3 130.761 47.15 132.711 49.25ZM139.986 21.35C145.486 21.35 150.011 23.175 153.561 26.825C157.161 30.475 158.961 35.1 158.961 40.7C158.961 46.3 157.161 50.95 153.561 54.65C150.011 58.3 145.486 60.125 139.986 60.125C134.536 60.125 130.011 58.3 126.411 54.65C122.861 50.95 121.086 46.3 121.086 40.7C121.086 35.1 122.861 30.475 126.411 26.825C130.011 23.175 134.536 21.35 139.986 21.35ZM176.068 59H167.368V4.7H176.068V59ZM193.14 40.625C193.14 44.125 194.04 46.95 195.84 49.1C197.64 51.2 200.015 52.25 202.965 52.25C205.815 52.25 208.14 51.175 209.94 49.025C211.74 46.875 212.64 44.05 212.64 40.55C212.64 37.1 211.765 34.35 210.015 32.3C208.265 30.25 205.94 29.225 203.04 29.225C200.14 29.225 197.765 30.275 195.915 32.375C194.065 34.425 193.14 37.175 193.14 40.625ZM221.04 4.7V52.325C221.04 54.775 221.165 57 221.415 59H213.09C212.84 57.6 212.715 56.025 212.715 54.275C211.815 55.925 210.415 57.275 208.515 58.325C206.615 59.375 204.44 59.9 201.99 59.9C196.79 59.9 192.565 58.075 189.315 54.425C186.065 50.775 184.44 46.175 184.44 40.625C184.44 35.275 186.065 30.75 189.315 27.05C192.615 23.35 196.79 21.5 201.84 21.5C204.74 21.5 207.065 22.025 208.815 23.075C210.615 24.125 211.865 25.35 212.565 26.75V4.7H221.04ZM248.307 29.375C245.507 29.375 243.132 30.4 241.182 32.45C239.232 34.45 238.257 37.2 238.257 40.7C238.257 44.25 239.232 47.05 241.182 49.1C243.182 51.15 245.607 52.175 248.457 52.175C251.007 52.175 253.032 51.5 254.532 50.15C256.082 48.75 257.107 47.175 257.607 45.425L265.257 48.2C264.257 51.45 262.307 54.25 259.407 56.6C256.557 58.95 252.907 60.125 248.457 60.125C243.107 60.125 238.607 58.275 234.957 54.575C231.357 50.875 229.557 46.25 229.557 40.7C229.557 35.1 231.332 30.475 234.882 26.825C238.482 23.175 242.932 21.35 248.232 21.35C252.782 21.35 256.482 22.525 259.332 24.875C262.232 27.225 264.107 30.05 264.957 33.35L257.157 36.2C256.657 34.3 255.682 32.7 254.232 31.4C252.832 30.05 250.857 29.375 248.307 29.375ZM270.514 49.1C270.514 46 271.514 43.525 273.514 41.675C275.564 39.775 278.239 38.575 281.539 38.075L290.914 36.65C292.714 36.4 293.614 35.525 293.614 34.025C293.614 32.375 293.039 31.05 291.889 30.05C290.739 29 289.014 28.475 286.714 28.475C284.514 28.475 282.764 29.1 281.464 30.35C280.164 31.55 279.414 33.125 279.214 35.075L271.264 33.275C271.614 29.975 273.189 27.175 275.989 24.875C278.789 22.525 282.339 21.35 286.639 21.35C291.939 21.35 295.839 22.625 298.339 25.175C300.889 27.725 302.164 31 302.164 35V53.15C302.164 55.55 302.314 57.5 302.614 59H294.514C294.264 58.25 294.139 56.7 294.139 54.35C291.739 58.2 287.989 60.125 282.889 60.125C279.189 60.125 276.189 59.05 273.889 56.9C271.639 54.7 270.514 52.1 270.514 49.1ZM284.539 53.3C287.239 53.3 289.414 52.575 291.064 51.125C292.764 49.625 293.614 47.2 293.614 43.85V42.2L284.089 43.625C280.839 44.175 279.214 45.825 279.214 48.575C279.214 49.875 279.689 51 280.639 51.95C281.589 52.85 282.889 53.3 284.539 53.3ZM321.381 59H312.681V4.7H321.381V59ZM341.303 59H332.603V4.7H341.303V59Z" fill="white"/>
<path d="M42.1832 51.7658C42.1813 44.8384 39.4774 38.3188 34.5697 33.4112C29.681 28.5224 23.1865 25.8185 16.2819 25.7957C13.4908 25.7889 11.2203 28.0546 11.2212 30.8448C11.2203 32.2016 11.75 33.477 12.7107 34.4377C13.6671 35.3941 14.9372 35.9224 16.2872 35.9262C20.4898 35.9393 24.4436 37.5852 27.4196 40.5613C30.4068 43.5485 32.0532 47.5172 32.0551 51.7339C32.0561 53.0887 32.5844 54.3647 33.5441 55.3244C34.5014 56.2817 35.7711 56.8095 37.1216 56.8139C39.9147 56.8225 42.1842 54.5579 42.1832 51.7658Z" fill="white"/>
<path d="M27.3745 54.8497C27.3745 62.409 21.2465 68.537 13.6873 68.537C6.128 68.537 0 62.409 0 54.8497C0 47.2904 6.128 41.1624 13.6873 41.1624C21.2465 41.1624 27.3745 47.2904 27.3745 54.8497ZM8.21236 54.8497C8.21236 57.8734 10.6636 60.3246 13.6873 60.3246C16.711 60.3246 19.1622 57.8734 19.1622 54.8497C19.1622 51.826 16.711 49.3748 13.6873 49.3748C10.6636 49.3748 8.21236 51.826 8.21236 54.8497Z" fill="white"/>
<path d="M58.4474 51.9702C58.4343 40.7066 54.0341 30.1112 46.0579 22.135C38.0962 14.1733 27.5217 9.77461 16.2828 9.74653C14.9298 9.74266 13.6592 10.2666 12.7024 11.2205C11.748 12.1749 11.2216 13.4451 11.2236 14.798C11.225 16.1514 11.7538 17.4259 12.7126 18.3847C13.6699 19.342 14.9419 19.8703 16.2934 19.8756C24.8308 19.8974 32.8632 23.2386 38.9088 29.2841C44.967 35.3423 48.3076 43.3907 48.3178 51.9455C48.3193 53.3009 48.8475 54.5748 49.8068 55.5341C50.7646 56.4919 52.0372 57.0207 53.3877 57.0231C54.7396 57.026 56.0112 56.503 56.9671 55.5481C57.9234 54.5937 58.4478 53.3236 58.4474 51.9702Z" fill="white"/>
</svg>
