<svg width="827" height="158" viewBox="0 0 827 158" fill="none" xmlns="http://www.w3.org/2000/svg">
<path d="M227.154 82.4C221.854 82.4 217.404 84.25 213.804 87.95C210.204 91.65 208.404 96.7 208.404 103.1C208.404 109.5 210.204 114.6 213.804 118.4C217.504 122.1 222.004 123.95 227.304 123.95C232.004 123.95 235.754 122.75 238.554 120.35C241.354 117.85 243.254 114.9 244.254 111.5L261.804 117.35C260.004 124.15 256.104 130 250.104 134.9C244.104 139.8 236.504 142.25 227.304 142.25C216.304 142.25 207.054 138.55 199.554 131.15C192.154 123.65 188.454 114.3 188.454 103.1C188.454 91.8 192.104 82.45 199.404 75.05C206.804 67.65 215.904 63.95 226.704 63.95C236.104 63.95 243.804 66.4 249.804 71.3C255.804 76.1 259.654 81.95 261.354 88.85L243.504 94.85C241.104 86.55 235.654 82.4 227.154 82.4ZM295.543 118.55C299.243 122.25 303.693 124.1 308.893 124.1C314.093 124.1 318.493 122.25 322.093 118.55C325.793 114.85 327.643 109.7 327.643 103.1C327.643 96.5 325.793 91.35 322.093 87.65C318.493 83.95 314.093 82.1 308.893 82.1C303.693 82.1 299.243 83.95 295.543 87.65C291.943 91.35 290.143 96.5 290.143 103.1C290.143 109.7 291.943 114.85 295.543 118.55ZM281.143 75.05C288.543 67.65 297.793 63.95 308.893 63.95C319.993 63.95 329.193 67.65 336.493 75.05C343.893 82.45 347.593 91.8 347.593 103.1C347.593 114.4 343.893 123.75 336.493 131.15C329.193 138.55 319.993 142.25 308.893 142.25C297.793 142.25 288.543 138.55 281.143 131.15C273.843 123.75 270.193 114.4 270.193 103.1C270.193 91.8 273.843 82.45 281.143 75.05ZM383.29 140H363.34V31.4H383.29V140ZM474.999 31.4V126.65C474.999 131.55 475.199 136 475.599 140H456.549C456.049 137.5 455.799 134.65 455.799 131.45C454.099 134.55 451.399 137.05 447.699 138.95C444.099 140.85 439.899 141.8 435.099 141.8C424.599 141.8 415.949 138.15 409.149 130.85C402.449 123.45 399.099 114.15 399.099 102.95C399.099 92.05 402.399 82.9 408.999 75.5C415.699 68.1 424.199 64.4 434.499 64.4C445.099 64.4 452.049 67.45 455.349 73.55V31.4H474.999ZM419.199 102.95C419.199 109.45 420.899 114.6 424.299 118.4C427.699 122.1 432.099 123.95 437.499 123.95C442.799 123.95 447.149 122.05 450.549 118.25C453.949 114.45 455.649 109.3 455.649 102.8C455.649 96.4 453.949 91.4 450.549 87.8C447.149 84.1 442.799 82.25 437.499 82.25C432.199 82.25 427.799 84.1 424.299 87.8C420.899 91.5 419.199 96.55 419.199 102.95ZM529.791 82.4C524.491 82.4 520.041 84.25 516.441 87.95C512.841 91.65 511.041 96.7 511.041 103.1C511.041 109.5 512.841 114.6 516.441 118.4C520.141 122.1 524.641 123.95 529.941 123.95C534.641 123.95 538.391 122.75 541.191 120.35C543.991 117.85 545.891 114.9 546.891 111.5L564.441 117.35C562.641 124.15 558.741 130 552.741 134.9C546.741 139.8 539.141 142.25 529.941 142.25C518.941 142.25 509.691 138.55 502.191 131.15C494.791 123.65 491.091 114.3 491.091 103.1C491.091 91.8 494.741 82.45 502.041 75.05C509.441 67.65 518.541 63.95 529.341 63.95C538.741 63.95 546.441 66.4 552.441 71.3C558.441 76.1 562.291 81.95 563.991 88.85L546.141 94.85C543.741 86.55 538.291 82.4 529.791 82.4ZM574.319 119.9C574.319 113.6 576.369 108.55 580.469 104.75C584.569 100.95 589.869 98.55 596.369 97.55L614.519 94.85C618.219 94.35 620.069 92.6 620.069 89.6C620.069 86.8 618.969 84.5 616.769 82.7C614.669 80.9 611.619 80 607.619 80C603.419 80 600.069 81.15 597.569 83.45C595.169 85.75 593.819 88.6 593.519 92L575.819 88.25C576.519 81.85 579.669 76.2 585.269 71.3C590.869 66.4 598.269 63.95 607.469 63.95C618.469 63.95 626.569 66.6 631.769 71.9C636.969 77.1 639.569 83.8 639.569 92V128.3C639.569 132.7 639.869 136.6 640.469 140H622.169C621.669 137.8 621.419 134.85 621.419 131.15C616.719 138.45 609.469 142.1 599.669 142.1C592.069 142.1 585.919 139.9 581.219 135.5C576.619 131.1 574.319 125.9 574.319 119.9ZM603.869 127.25C608.569 127.25 612.419 125.95 615.419 123.35C618.519 120.65 620.069 116.25 620.069 110.15V106.85L603.419 109.4C597.319 110.3 594.269 113.4 594.269 118.7C594.269 121.1 595.119 123.15 596.819 124.85C598.519 126.45 600.869 127.25 603.869 127.25ZM679.628 140H659.678V31.4H679.628V140ZM720.937 140H700.987V31.4H720.937V140Z" fill="white"/>
<path d="M97.0808 119.134C97.0763 103.192 90.8535 88.1872 79.559 76.8927C68.308 65.6417 53.3616 59.4189 37.4713 59.3665C31.0478 59.3509 25.8224 64.5652 25.8246 70.9864C25.8224 74.109 27.0415 77.0443 29.2525 79.2553C31.4535 81.4563 34.3766 82.6721 37.4835 82.681C47.1554 82.7111 56.2546 86.4989 63.1037 93.3481C69.9785 100.223 73.7674 109.357 73.7719 119.061C73.7741 122.179 74.9899 125.115 77.1987 127.324C79.4019 129.527 82.3238 130.742 85.4319 130.752C91.8601 130.772 97.083 125.56 97.0808 119.134Z" fill="white"/>
<path d="M63 126.232C63 143.629 48.897 157.732 31.5 157.732C14.103 157.732 0 143.629 0 126.232C0 108.835 14.103 94.7316 31.5 94.7316C48.897 94.7316 63 108.835 63 126.232ZM18.9 126.232C18.9 133.19 24.5412 138.832 31.5 138.832C38.4588 138.832 44.1 133.19 44.1 126.232C44.1 119.273 38.4588 113.632 31.5 113.632C24.5412 113.632 18.9 119.273 18.9 126.232Z" fill="white"/>
<path d="M134.511 119.605C134.481 93.6825 124.355 69.2982 105.998 50.9417C87.675 32.6186 63.3387 22.4954 37.4733 22.4307C34.3597 22.4218 31.4355 23.6276 29.2334 25.823C27.0369 28.0195 25.8255 30.9426 25.83 34.0562C25.8333 37.171 27.0503 40.1041 29.2568 42.3106C31.46 44.5138 34.3875 45.7296 37.4978 45.7419C57.1459 45.792 75.6317 53.4814 89.545 67.3948C103.487 81.3371 111.176 99.8596 111.199 119.548C111.202 122.667 112.418 125.599 114.626 127.807C116.83 130.011 119.759 131.228 122.867 131.233C125.978 131.24 128.905 130.037 131.105 127.839C133.305 125.642 134.512 122.719 134.511 119.605Z" fill="white"/>
</svg>
