<svg width="2500" height="484" viewBox="0 0 2500 484" fill="none" xmlns="http://www.w3.org/2000/svg">
<g clip-path="url(#clip0)">
<path d="M195.826 76.3692C166.51 76.3692 157.716 89.2679 157.716 117.997V165.487H236.28L228.659 242.88H157.716V476.815H63.3208V242.88H0V166.074H63.3208V119.756C63.3208 41.1909 94.9812 0.149658 182.341 0.149658C200.516 0.149658 219.278 1.32227 237.453 3.66748V76.3692" fill="white"/>
<path d="M242.73 311.477C242.73 224.704 283.771 159.038 370.544 159.038C417.448 159.038 446.177 183.077 460.249 213.564V166.074H550.539V477.401H459.662V430.497C446.764 460.398 416.862 483.85 369.958 483.85C283.771 483.85 242.144 418.771 242.144 331.411L242.73 311.477ZM337.125 332.584C337.125 378.902 354.128 409.976 398.1 409.976C436.796 409.976 456.145 381.834 456.145 337.274V305.614C456.145 261.055 436.21 232.912 398.1 232.912C354.128 232.912 337.125 263.4 337.125 310.305V332.584V332.584Z" fill="white"/>
<path d="M746.365 159.038C782.716 159.038 817.894 166.66 836.656 180.145L815.549 246.984C796.201 237.603 774.508 232.912 752.814 232.912C701.806 232.912 679.526 262.228 679.526 312.65V330.825C679.526 381.247 701.806 410.562 752.814 410.562C774.508 410.562 796.201 405.286 815.549 395.905L836.656 462.744C817.894 475.642 783.302 483.85 746.365 483.85C635.554 483.85 585.718 424.634 585.718 329.066V314.409C585.718 218.841 635.554 159.038 746.365 159.038" fill="white"/>
<path d="M848.968 333.17V305.614C848.968 217.082 899.39 159.038 1001.99 159.038C1098.73 159.038 1141.53 217.668 1141.53 304.441V354.277H943.363C945.122 397.078 964.47 415.839 1016.65 415.839C1050.66 415.839 1084.66 409.39 1116.91 397.077L1133.91 461.571C1109.29 474.47 1058.28 484.437 1013.13 484.437C893.527 483.85 848.968 424.634 848.968 333.17V333.17ZM943.363 292.129H1057.11V284.507C1057.11 250.501 1043.62 223.532 1001.99 223.532C959.78 223.532 943.363 250.501 943.363 292.129Z" fill="white"/>
<path d="M1490.97 331.411C1490.97 418.184 1449.34 483.85 1362.57 483.85C1315.67 483.85 1282.83 460.398 1269.93 430.497V477.401H1180.82V9.53052L1275.21 1.32227V209.46C1288.7 181.904 1319.18 159.624 1363.16 159.624C1449.34 159.624 1491.56 224.704 1491.56 312.063L1490.97 331.411ZM1396.58 309.718C1396.58 265.745 1379.57 232.912 1334.43 232.912C1295.73 232.912 1275.21 260.469 1275.21 305.028V337.861C1275.21 382.42 1296.32 409.976 1334.43 409.976C1379.57 409.976 1396.58 377.143 1396.58 333.17V309.718Z" fill="white"/>
<path d="M1522.04 329.066V313.236C1522.04 223.532 1573.05 159.038 1676.83 159.038C1780.6 159.038 1831.61 223.532 1831.61 313.236V329.066C1831.61 418.771 1780.6 483.264 1676.83 483.264C1573.05 483.264 1522.04 419.357 1522.04 329.066V329.066ZM1737.8 306.787C1737.8 265.745 1720.8 232.912 1676.83 232.912C1632.86 232.912 1615.85 265.745 1615.85 306.787V336.102C1615.85 377.143 1632.86 409.976 1676.83 409.976C1720.8 409.976 1737.8 377.143 1737.8 336.102V306.787V306.787Z" fill="white"/>
<path d="M1863.86 329.066V313.236C1863.86 223.532 1914.87 159.038 2018.64 159.038C2122.42 159.038 2173.43 223.532 2173.43 313.236V329.066C2173.43 418.771 2122.42 483.264 2018.64 483.264C1914.87 483.264 1863.86 419.357 1863.86 329.066V329.066ZM2079.62 306.787C2079.62 265.745 2062.62 232.912 2018.64 232.912C1974.67 232.912 1957.67 265.745 1957.67 306.787V336.102C1957.67 377.143 1974.67 409.976 2018.64 409.976C2062.62 409.976 2079.62 377.143 2079.62 336.102V306.787V306.787Z" fill="white"/>
<path d="M2303 314.409L2396.22 165.487H2495.9L2398.57 319.685L2500 477.401H2399.74L2303 324.962V477.401H2209.19V9.53052L2303 0.735962" fill="white"/>
</g>
<defs>
<clipPath id="clip0">
<rect width="2500" height="484" fill="white"/>
</clipPath>
</defs>
</svg>
