<svg width="310" height="42" viewBox="0 0 310 42" fill="none" xmlns="http://www.w3.org/2000/svg">
<path fill-rule="evenodd" clip-rule="evenodd" d="M78.8065 34.7873C80.6588 36.6413 82.846 38.1269 85.2522 39.1655V39.1913C87.7618 40.2357 90.4528 40.7749 93.1711 40.7782C96.3244 40.7858 99.4354 40.052 102.253 38.636C105.071 37.22 107.516 35.1616 109.391 32.6267L110.265 31.5309L104.476 27.2509L103.659 28.2847C102.316 30.0756 100.537 31.4933 98.4916 32.4032C96.4462 33.313 94.2022 33.6847 91.9726 33.483C89.7431 33.2813 87.6022 32.5129 85.7533 31.2508C83.9044 29.9886 82.4089 28.2747 81.409 26.2718C80.409 24.2689 79.9378 22.0436 80.0401 19.8074C80.1423 17.5711 80.8147 15.3981 81.9933 13.4948C83.1719 11.5916 84.8176 10.0213 86.774 8.93321C88.7304 7.8451 90.9325 7.2753 93.1711 7.27794C95.2102 7.26028 97.2244 7.72718 99.0478 8.64022C100.871 9.55325 102.452 10.8863 103.659 12.5296L104.476 13.6255L110.317 9.30419L109.448 8.20319C107.558 5.66576 105.104 3.60338 102.278 2.17951C99.453 0.755639 96.3349 0.00942102 93.1711 0C87.7753 0.0095354 82.6028 2.15511 78.7845 5.96762C74.9661 9.78012 72.8127 14.9494 72.7949 20.3452C72.7838 23.0751 73.3419 25.7774 74.4335 28.2796C75.4156 30.7331 76.906 32.9509 78.8065 34.7873ZM23.1054 21.2808V40.1527H30.4195V1.20439H23.1054V14.1114H7.31929V1.20439H0V40.1527H7.31929V21.2808H23.1054ZM144.396 40.1527L129.923 19.8024L123.699 25.7106V40.1527H116.432V1.20439H123.699V15.8068L139.206 1.20439H149.694L135.438 14.7161L153.519 40.1527H144.396ZM50.0255 1.20439H56.6315L71.6526 40.1527H63.7906L59.8001 29.6494L53.3544 12.9638L46.9138 29.6494L42.8716 40.1527H35.0613L50.0255 1.20439Z" fill="white"/>
<path d="M162.219 40.4887V1.53516H175.27C186.249 1.53516 195.207 10.2863 195.207 21.0119C195.207 31.7376 186.223 40.4887 175.27 40.4887H162.219ZM175.27 33.3245C182.259 33.3245 187.939 27.7988 187.939 21.0171C187.939 14.2354 182.254 8.70972 175.27 8.70972H169.481V33.3245H175.27Z" fill="white"/>
<path d="M202.521 25.8811V1.54028H209.784V25.8811C209.757 26.9308 209.94 27.9754 210.323 28.9531C210.706 29.9308 211.281 30.8219 212.014 31.5739C212.747 32.3259 213.623 32.9236 214.591 33.3316C215.559 33.7397 216.598 33.9499 217.648 33.9499C218.698 33.9499 219.738 33.7397 220.705 33.3316C221.673 32.9236 222.549 32.3259 223.282 31.5739C224.015 30.8219 224.59 29.9308 224.973 28.9531C225.356 27.9754 225.54 26.9308 225.513 25.8811V1.54028H232.832V25.8811C232.837 27.8713 232.448 29.8429 231.689 31.6826C230.93 33.5223 229.815 35.194 228.407 36.6016C226.286 38.7187 223.584 40.1598 220.644 40.743C217.704 41.3262 214.657 41.0253 211.887 39.8784C209.118 38.7315 206.75 36.79 205.084 34.2988C203.417 31.8077 202.525 28.8785 202.521 25.8811Z" fill="white"/>
<path d="M269.806 40.4886L255.333 20.1383L249.104 26.0465V40.4886H241.842V1.54028H249.104V16.1427L264.616 1.54028H275.104L260.848 15.0469L278.924 40.4886H269.806Z" fill="white"/>
<path d="M284.382 40.4886V1.54028H310V8.64765H291.702V14.3904H307.653V21.6683H291.702V33.2676H309.509V40.4835H284.382V40.4886Z" fill="white"/>
</svg>
