<svg width="363" height="114" viewBox="0 0 363 114" fill="none" xmlns="http://www.w3.org/2000/svg">
<path d="M26.1646 95.25H8.48463V27.25H26.1646V35.24H16.9846V87.26H26.1646V95.25ZM32.9553 91L52.5903 46.29L50.2953 39.915C49.3887 37.4783 48.397 35.58 47.3203 34.22C46.2437 32.8033 44.487 32.095 42.0503 32.095C41.0303 32.095 40.1237 32.1517 39.3303 32.265C38.5937 32.3783 37.9137 32.4917 37.2903 32.605V26.57C38.0837 26.4 38.962 26.2583 39.9253 26.145C40.8887 25.975 41.8803 25.89 42.9003 25.89C45.847 25.89 48.1987 26.4 49.9553 27.42C51.7687 28.44 53.2703 29.9983 54.4603 32.095C55.707 34.1917 56.897 36.8833 58.0303 40.17L72.7353 81.14C73.812 84.2 75.2287 85.73 76.9853 85.73C77.4387 85.73 77.892 85.6733 78.3453 85.56C78.8553 85.4467 79.252 85.3617 79.5353 85.305V90.83C78.912 91.1133 78.1753 91.34 77.3253 91.51C76.532 91.7367 75.6537 91.85 74.6903 91.85C72.5937 91.85 70.922 91.34 69.6753 90.32C68.4853 89.2433 67.437 87.4583 66.5303 84.965L60.3253 67.54C59.872 66.18 59.3337 64.6783 58.7103 63.035C58.1437 61.335 57.6053 59.6917 57.0953 58.105C56.642 56.4617 56.302 55.1017 56.0753 54.025H55.7353C55.2253 56.0083 54.5453 58.1333 53.6953 60.4C52.902 62.6667 52.0237 64.905 51.0603 67.115L40.6903 91H32.9553ZM86.8447 27.25H104.525V95.25H86.8447V87.26H96.0247V35.24H86.8447V27.25Z" fill="white"/>
<path d="M181.072 21.4639C181.072 19.5921 180.576 18.2575 179.583 17.46C178.606 16.6624 177.231 16.2637 175.457 16.2637H168.45V26.8594H175.457C177.231 26.8594 178.606 26.4281 179.583 25.5654C180.576 24.7028 181.072 23.3356 181.072 21.4639ZM188.519 21.415C188.519 25.6631 187.444 28.666 185.296 30.4238C183.147 32.1816 180.079 33.0605 176.092 33.0605H168.45V46H160.979V10.0137H176.653C180.267 10.0137 183.147 10.9414 185.296 12.7969C187.444 14.6523 188.519 17.5251 188.519 21.415ZM204.095 24.418C202.483 24.418 201.23 24.9225 200.335 25.9316C199.456 26.9408 198.903 28.3079 198.675 30.0332H209.49C209.376 28.194 208.815 26.8024 207.806 25.8584C206.813 24.8981 205.576 24.418 204.095 24.418ZM204.095 18.6807C206.308 18.6807 208.302 19.0957 210.076 19.9258C211.85 20.7559 213.315 22.0661 214.471 23.8564C215.512 25.4352 216.188 27.2663 216.497 29.3496C216.676 30.5703 216.749 32.3281 216.717 34.623H198.504C198.602 37.2923 199.44 39.1641 201.019 40.2383C201.979 40.9056 203.134 41.2393 204.485 41.2393C205.918 41.2393 207.081 40.8324 207.977 40.0186C208.465 39.5791 208.896 38.9688 209.271 38.1875H216.375C216.196 39.7663 215.374 41.3695 213.909 42.9971C211.631 45.585 208.44 46.8789 204.339 46.8789C200.953 46.8789 197.967 45.7884 195.379 43.6074C192.791 41.4264 191.497 37.8783 191.497 32.9629C191.497 28.3568 192.661 24.8249 194.988 22.3672C197.332 19.9095 200.368 18.6807 204.095 18.6807ZM236.102 33.0605C235.662 33.3372 235.215 33.5651 234.759 33.7441C234.319 33.9069 233.709 34.0615 232.928 34.208L231.365 34.501C229.9 34.7614 228.851 35.0788 228.216 35.4531C227.142 36.0879 226.604 37.0726 226.604 38.4072C226.604 39.5954 226.93 40.458 227.581 40.9951C228.248 41.516 229.054 41.7764 229.998 41.7764C231.495 41.7764 232.871 41.3369 234.124 40.458C235.394 39.5791 236.053 37.9759 236.102 35.6484V33.0605ZM231.878 29.8135C233.164 29.6507 234.083 29.4473 234.637 29.2031C235.63 28.7799 236.126 28.1208 236.126 27.2256C236.126 26.1351 235.743 25.3864 234.979 24.9795C234.23 24.5563 233.123 24.3447 231.658 24.3447C230.014 24.3447 228.851 24.7516 228.167 25.5654C227.679 26.1676 227.353 26.9814 227.19 28.0068H220.477C220.623 25.6794 221.274 23.7669 222.43 22.2695C224.269 19.9258 227.426 18.7539 231.902 18.7539C234.816 18.7539 237.404 19.3317 239.666 20.4873C241.928 21.6429 243.06 23.8239 243.06 27.0303V39.2373C243.06 40.0837 243.076 41.109 243.108 42.3135C243.157 43.2249 243.296 43.8434 243.523 44.1689C243.751 44.4945 244.093 44.763 244.549 44.9746V46H236.98C236.769 45.4629 236.622 44.9583 236.541 44.4863C236.46 44.0143 236.395 43.4772 236.346 42.875C235.385 43.9167 234.279 44.8037 233.025 45.5361C231.528 46.3988 229.835 46.8301 227.947 46.8301C225.538 46.8301 223.545 46.1465 221.966 44.7793C220.403 43.3958 219.622 41.4427 219.622 38.9199C219.622 35.6484 220.883 33.2803 223.406 31.8154C224.79 31.0179 226.824 30.4482 229.51 30.1064L231.878 29.8135ZM263.714 18.7539C263.844 18.7539 263.95 18.762 264.031 18.7783C264.129 18.7783 264.332 18.7865 264.642 18.8027V25.9316C264.202 25.8828 263.812 25.8503 263.47 25.834C263.128 25.8177 262.851 25.8096 262.64 25.8096C259.84 25.8096 257.96 26.721 257 28.5439C256.463 29.5693 256.194 31.1481 256.194 33.2803V46H249.188V19.3887H255.828V24.0273C256.902 22.2533 257.838 21.0407 258.636 20.3896C259.938 19.2992 261.631 18.7539 263.714 18.7539ZM274.163 37.5039C274.31 38.7409 274.627 39.6198 275.115 40.1406C275.978 41.0684 277.573 41.5322 279.9 41.5322C281.268 41.5322 282.35 41.3288 283.147 40.9219C283.961 40.515 284.368 39.9046 284.368 39.0908C284.368 38.3096 284.043 37.7155 283.392 37.3086C282.741 36.9017 280.324 36.2018 276.141 35.209C273.13 34.4603 271.006 33.5244 269.769 32.4014C268.532 31.2946 267.913 29.6995 267.913 27.6162C267.913 25.1585 268.873 23.0508 270.794 21.293C272.731 19.5189 275.449 18.6318 278.948 18.6318C282.269 18.6318 284.97 19.2992 287.054 20.6338C289.153 21.9521 290.358 24.2389 290.667 27.4941H283.709C283.611 26.599 283.359 25.891 282.952 25.3701C282.187 24.4261 280.885 23.9541 279.046 23.9541C277.532 23.9541 276.45 24.1901 275.799 24.6621C275.164 25.1341 274.847 25.6875 274.847 26.3223C274.847 27.1198 275.188 27.6976 275.872 28.0557C276.556 28.43 278.973 29.0729 283.123 29.9844C285.89 30.6354 287.965 31.6201 289.349 32.9385C290.716 34.2731 291.399 35.9414 291.399 37.9434C291.399 40.5801 290.415 42.7367 288.445 44.4131C286.492 46.0732 283.465 46.9033 279.363 46.9033C275.18 46.9033 272.088 46.0244 270.086 44.2666C268.1 42.4925 267.107 40.2383 267.107 37.5039H274.163ZM308.514 41.0928C310.548 41.0928 312.111 40.3685 313.201 38.9199C314.292 37.4714 314.837 35.4124 314.837 32.7432C314.837 30.0739 314.292 28.0231 313.201 26.5908C312.111 25.1423 310.548 24.418 308.514 24.418C306.479 24.418 304.909 25.1423 303.802 26.5908C302.711 28.0231 302.166 30.0739 302.166 32.7432C302.166 35.4124 302.711 37.4714 303.802 38.9199C304.909 40.3685 306.479 41.0928 308.514 41.0928ZM322.137 32.7432C322.137 36.6494 321.014 39.9941 318.768 42.7773C316.521 45.5443 313.112 46.9277 308.538 46.9277C303.965 46.9277 300.555 45.5443 298.309 42.7773C296.062 39.9941 294.939 36.6494 294.939 32.7432C294.939 28.902 296.062 25.5736 298.309 22.7578C300.555 19.9421 303.965 18.5342 308.538 18.5342C313.112 18.5342 316.521 19.9421 318.768 22.7578C321.014 25.5736 322.137 28.902 322.137 32.7432ZM341.888 18.7539C344.638 18.7539 346.884 19.4782 348.626 20.9268C350.384 22.359 351.263 24.7435 351.263 28.0801V46H344.134V29.8135C344.134 28.4137 343.947 27.3395 343.572 26.5908C342.889 25.2236 341.587 24.54 339.666 24.54C337.306 24.54 335.687 25.541 334.808 27.543C334.352 28.6009 334.124 29.9518 334.124 31.5957V46H327.19V19.4375H333.904V23.3193C334.799 21.9521 335.646 20.9674 336.443 20.3652C337.876 19.291 339.69 18.7539 341.888 18.7539ZM160.809 67.0137H168.328V96.5303H186.15V103H160.809V67.0137ZM205.486 90.0605C205.047 90.3372 204.599 90.5651 204.144 90.7441C203.704 90.9069 203.094 91.0615 202.312 91.208L200.75 91.501C199.285 91.7614 198.235 92.0788 197.601 92.4531C196.526 93.0879 195.989 94.0726 195.989 95.4072C195.989 96.5954 196.315 97.458 196.966 97.9951C197.633 98.516 198.439 98.7764 199.383 98.7764C200.88 98.7764 202.256 98.3369 203.509 97.458C204.778 96.5791 205.438 94.9759 205.486 92.6484V90.0605ZM201.263 86.8135C202.549 86.6507 203.468 86.4473 204.021 86.2031C205.014 85.7799 205.511 85.1208 205.511 84.2256C205.511 83.1351 205.128 82.3864 204.363 81.9795C203.615 81.5563 202.508 81.3447 201.043 81.3447C199.399 81.3447 198.235 81.7516 197.552 82.5654C197.063 83.1676 196.738 83.9814 196.575 85.0068H189.861C190.008 82.6794 190.659 80.7669 191.814 79.2695C193.654 76.9258 196.811 75.7539 201.287 75.7539C204.201 75.7539 206.788 76.3317 209.051 77.4873C211.313 78.6429 212.444 80.8239 212.444 84.0303V96.2373C212.444 97.0837 212.461 98.109 212.493 99.3135C212.542 100.225 212.68 100.843 212.908 101.169C213.136 101.494 213.478 101.763 213.934 101.975V103H206.365C206.154 102.463 206.007 101.958 205.926 101.486C205.844 101.014 205.779 100.477 205.73 99.875C204.77 100.917 203.663 101.804 202.41 102.536C200.913 103.399 199.22 103.83 197.332 103.83C194.923 103.83 192.929 103.146 191.351 101.779C189.788 100.396 189.007 98.4427 189.007 95.9199C189.007 92.6484 190.268 90.2803 192.791 88.8154C194.174 88.0179 196.209 87.4482 198.895 87.1064L201.263 86.8135ZM233.025 75.8027C236.525 75.8027 239.259 77.0641 241.229 79.5869C243.214 82.1097 244.207 85.3649 244.207 89.3525C244.207 93.4867 243.23 96.9128 241.277 99.6309C239.324 102.349 236.598 103.708 233.099 103.708C230.901 103.708 229.135 103.269 227.801 102.39C227.003 101.869 226.141 100.957 225.213 99.6553V103H218.401V67.0625H225.335V79.8555C226.214 78.6185 227.182 77.6745 228.24 77.0234C229.493 76.2096 231.089 75.8027 233.025 75.8027ZM231.243 97.9707C233.034 97.9707 234.425 97.2464 235.418 95.7979C236.411 94.3493 236.907 92.445 236.907 90.085C236.907 88.1969 236.663 86.6344 236.175 85.3975C235.247 83.0537 233.538 81.8818 231.048 81.8818C228.525 81.8818 226.792 83.0293 225.848 85.3242C225.359 86.5449 225.115 88.1237 225.115 90.0605C225.115 92.3392 225.62 94.2272 226.629 95.7246C227.638 97.222 229.176 97.9707 231.243 97.9707Z" fill="white"/>
</svg>
