<svg width="306" height="78" viewBox="0 0 306 78" fill="none" xmlns="http://www.w3.org/2000/svg">
<path fill-rule="evenodd" clip-rule="evenodd" d="M11.8361 15.7925C11.5094 15.6708 11.1617 15.9124 11.1617 16.261V24.4802C11.1617 24.6886 11.291 24.8752 11.4861 24.9484L50.2168 39.4713C50.3249 39.5118 50.4267 39.5195 50.536 39.4822C56.1845 37.5485 87.0063 26.2057 90.4409 24.9412C90.6375 24.8689 90.752 24.6875 90.752 24.478V16.2539C90.752 15.9073 90.4078 15.6658 90.0819 15.7838L50.5565 30.0827C50.4451 30.123 50.323 30.1224 50.212 30.0811L11.8361 15.7925Z" fill="white"/>
<path fill-rule="evenodd" clip-rule="evenodd" d="M26.4259 18.0882C26.5379 18.1293 26.661 18.1289 26.7728 18.0873L50.2126 9.34803C50.3232 9.30677 50.4449 9.30601 50.5561 9.34589L74.9347 18.0909C75.0446 18.1303 75.1648 18.13 75.2744 18.0901L86.4346 14.0306C86.8735 13.871 86.8733 13.2502 86.4343 13.0908L50.557 0.0628574C50.4453 0.0222849 50.3228 0.0228465 50.2114 0.0644418L15.3468 13.0877C14.9121 13.2501 14.9139 13.8656 15.3496 14.0255L26.4259 18.0882Z" fill="white"/>
<path fill-rule="evenodd" clip-rule="evenodd" d="M0.651758 33.4139C0.325037 33.2921 0 33.5422 0 33.8909V42.212C0 42.4204 0.12928 42.607 0.324424 42.6802L39.0521 57.2044C39.162 57.2456 39.2663 57.2528 39.377 57.2136C45.1169 55.1837 75.7473 43.9324 79.1749 42.6731C79.3717 42.6008 79.4868 42.4192 79.4868 42.2095V33.8858C79.4868 33.5385 79.1415 33.297 78.8153 33.4162L39.4042 47.8129C39.2871 47.8557 39.1822 47.8626 39.0663 47.8168C35.8946 46.5608 5.50387 35.2235 0.651758 33.4139Z" fill="white"/>
<path fill-rule="evenodd" clip-rule="evenodd" d="M4.2032 30.7293C3.76512 30.8866 3.76085 31.5047 4.19671 31.6681L15.2662 35.8176C15.3778 35.8594 15.5006 35.8601 15.6125 35.8194L22.2033 33.4233C22.6391 33.2648 22.6431 32.6498 22.2093 32.4857L11.2294 28.3328C11.1181 28.2907 10.9954 28.2897 10.8835 28.3299L4.2032 30.7293Z" fill="white"/>
<path fill-rule="evenodd" clip-rule="evenodd" d="M86.4806 49.3932C86.9127 49.2298 86.911 48.618 86.478 48.4569L79.7693 45.962C79.6548 45.9194 79.5286 45.9202 79.4147 45.9643L68.4293 50.213C67.9975 50.38 68.005 50.9936 68.4407 51.15L75.1407 53.5544C75.2527 53.5946 75.3752 53.5935 75.4865 53.5515L86.4806 49.3932Z" fill="white"/>
<path fill-rule="evenodd" clip-rule="evenodd" d="M51.5834 65.5498C51.4675 65.5957 51.3625 65.5887 51.2455 65.5459L11.8332 51.1492C11.507 51.03 11.1617 51.2715 11.1617 51.6188V59.8409C11.1617 60.0502 11.2761 60.2315 11.4725 60.304C14.8992 61.5694 45.6137 72.9094 51.2715 74.944C51.3832 74.9842 51.4884 74.9771 51.5994 74.9352L90.4282 60.3112C90.623 60.2378 90.752 60.0514 90.752 59.8433V51.6232C90.752 51.2747 90.4274 51.0246 90.1007 51.1461C85.2424 52.9529 54.7576 64.2937 51.5834 65.5498Z" fill="white"/>
<path d="M131.879 60.54C127.379 60.54 123.809 59.46 121.169 57.3C118.589 55.08 117.299 52.11 117.299 48.39V47.58C117.299 46.98 117.599 46.68 118.199 46.68H124.589C125.189 46.68 125.489 46.98 125.489 47.58V48.21C125.489 49.83 126.119 51.21 127.379 52.35C128.639 53.43 130.199 53.97 132.059 53.97C133.859 53.97 135.299 53.43 136.379 52.35C137.519 51.27 138.089 49.89 138.089 48.21C138.089 46.89 137.699 45.78 136.919 44.88C136.139 43.98 135.209 43.29 134.129 42.81C133.109 42.27 131.519 41.55 129.359 40.65C127.019 39.63 125.069 38.64 123.509 37.68C122.009 36.72 120.659 35.34 119.459 33.54C118.259 31.74 117.659 29.46 117.659 26.7C117.659 22.62 118.919 19.44 121.439 17.16C124.019 14.88 127.469 13.74 131.789 13.74C136.229 13.74 139.709 14.91 142.229 17.25C144.809 19.59 146.099 22.77 146.099 26.79V27.06C146.099 27.66 145.799 27.96 145.199 27.96H138.989C138.389 27.96 138.089 27.66 138.089 27.06V26.43C138.089 24.81 137.519 23.43 136.379 22.29C135.239 21.15 133.769 20.58 131.969 20.58C130.109 20.58 128.639 21.15 127.559 22.29C126.479 23.43 125.939 24.81 125.939 26.43C125.939 27.69 126.299 28.74 127.019 29.58C127.739 30.42 128.609 31.11 129.629 31.65C130.649 32.13 132.269 32.85 134.489 33.81C136.949 34.89 138.989 35.94 140.609 36.96C142.229 37.92 143.639 39.3 144.839 41.1C146.099 42.9 146.729 45.15 146.729 47.85C146.729 51.75 145.379 54.84 142.679 57.12C140.039 59.4 136.439 60.54 131.879 60.54ZM167.944 60.72C163.324 60.72 159.634 59.43 156.874 56.85C154.174 54.27 152.824 50.79 152.824 46.41V27.78C152.824 23.52 154.174 20.07 156.874 17.43C159.634 14.79 163.324 13.47 167.944 13.47C171.004 13.47 173.674 14.07 175.954 15.27C178.294 16.41 180.064 18 181.264 20.04C182.524 22.02 183.154 24.27 183.154 26.79V27.96C183.154 28.56 182.854 28.86 182.254 28.86L175.414 29.13C174.814 29.13 174.514 28.83 174.514 28.23V27.33C174.514 25.59 173.884 24.09 172.624 22.83C171.364 21.57 169.804 20.94 167.944 20.94C166.024 20.94 164.464 21.63 163.264 23.01C162.064 24.39 161.464 26.16 161.464 28.32V45.87C161.464 48.03 162.064 49.8 163.264 51.18C164.464 52.56 166.024 53.25 167.944 53.25C169.804 53.25 171.364 52.62 172.624 51.36C173.884 50.1 174.514 48.6 174.514 46.86V45.96C174.514 45.36 174.814 45.06 175.414 45.06L182.254 45.15C182.854 45.15 183.154 45.45 183.154 46.05V47.4C183.154 51.3 181.774 54.51 179.014 57.03C176.254 59.49 172.564 60.72 167.944 60.72ZM205.212 60.72C200.532 60.72 196.812 59.43 194.052 56.85C191.352 54.21 190.002 50.73 190.002 46.41V27.78C190.002 23.52 191.382 20.07 194.142 17.43C196.902 14.79 200.592 13.47 205.212 13.47C209.892 13.47 213.612 14.79 216.372 17.43C219.132 20.07 220.512 23.52 220.512 27.78V46.41C220.512 50.73 219.132 54.21 216.372 56.85C213.612 59.43 209.892 60.72 205.212 60.72ZM205.212 53.16C207.132 53.16 208.722 52.5 209.982 51.18C211.242 49.8 211.872 48 211.872 45.78V28.32C211.872 26.16 211.242 24.39 209.982 23.01C208.722 21.63 207.132 20.94 205.212 20.94C203.292 20.94 201.702 21.63 200.442 23.01C199.242 24.39 198.642 26.16 198.642 28.32V45.78C198.642 48 199.242 49.8 200.442 51.18C201.702 52.5 203.292 53.16 205.212 53.16ZM246.776 13.47C250.676 13.47 253.766 14.79 256.046 17.43C258.386 20.01 259.556 23.43 259.556 27.69V46.41C259.556 50.85 258.386 54.36 256.046 56.94C253.766 59.46 250.676 60.72 246.776 60.72C245.336 60.72 243.866 60.45 242.366 59.91C240.926 59.37 239.636 58.53 238.496 57.39C238.196 57.21 238.046 57.27 238.046 57.57V76.29C238.046 76.89 237.746 77.19 237.146 77.19H230.306C229.706 77.19 229.406 76.89 229.406 76.29V15.09C229.406 14.49 229.706 14.19 230.306 14.19H237.146C237.746 14.19 238.046 14.49 238.046 15.09V16.53C238.046 16.65 238.106 16.74 238.226 16.8C238.346 16.8 238.466 16.74 238.586 16.62C239.726 15.54 241.016 14.76 242.456 14.28C243.896 13.74 245.336 13.47 246.776 13.47ZM251.006 28.32C251.006 26.16 250.376 24.39 249.116 23.01C247.916 21.63 246.356 20.94 244.436 20.94C242.576 20.94 241.046 21.63 239.846 23.01C238.646 24.39 238.046 26.16 238.046 28.32V45.87C238.046 48.03 238.646 49.8 239.846 51.18C241.046 52.56 242.576 53.25 244.436 53.25C246.356 53.25 247.916 52.56 249.116 51.18C250.376 49.8 251.006 48.03 251.006 45.87V28.32ZM297.498 39.75C297.498 40.35 297.198 40.65 296.598 40.65H276.258C276.018 40.65 275.898 40.77 275.898 41.01V45.87C275.898 48.03 276.498 49.8 277.698 51.18C278.898 52.56 280.458 53.25 282.378 53.25C284.058 53.25 285.468 52.74 286.608 51.72C287.748 50.7 288.468 49.38 288.768 47.76C288.948 47.28 289.278 47.04 289.758 47.04L296.418 47.4C296.718 47.4 296.928 47.49 297.048 47.67C297.228 47.85 297.288 48.06 297.228 48.3C296.808 52.2 295.308 55.26 292.728 57.48C290.208 59.64 286.758 60.72 282.378 60.72C277.758 60.72 274.068 59.43 271.308 56.85C268.608 54.27 267.258 50.82 267.258 46.5V27.78C267.258 23.52 268.608 20.07 271.308 17.43C274.068 14.79 277.758 13.47 282.378 13.47C287.058 13.47 290.748 14.79 293.448 17.43C296.148 20.07 297.498 23.52 297.498 27.78V39.75ZM282.378 20.94C280.458 20.94 278.898 21.63 277.698 23.01C276.498 24.39 275.898 26.16 275.898 28.32V33.09C275.898 33.33 276.018 33.45 276.258 33.45H288.588C288.828 33.45 288.948 33.33 288.948 33.09V28.32C288.948 26.16 288.348 24.39 287.148 23.01C285.948 21.63 284.358 20.94 282.378 20.94Z" fill="white"/>
</svg>
