<svg width="115" height="115" viewBox="0 0 115 115" fill="none" xmlns="http://www.w3.org/2000/svg">
<path d="M57.6513 114.622C89.0493 114.622 114.546 89.125 114.546 57.727C114.622 26.2533 89.125 0.756592 57.6513 0.756592C26.1776 0.756592 0.756577 26.2533 0.756577 57.727C0.756577 89.125 26.2533 114.622 57.6513 114.622Z" fill="white"/>
<path d="M57.6513 104.03C83.2237 104.03 104.03 83.2993 104.03 57.6513C104.03 32.0032 83.2993 11.3486 57.6513 11.3486C32.0789 11.3486 11.3487 32.0789 11.3487 57.7269C11.3487 83.375 32.0789 104.03 57.6513 104.03Z" fill="#BE0F34"/>
<path d="M29.8849 27.1611H40.4013V60.9802C40.4013 63.0986 41.0822 64.9901 44.0329 64.9901C46.7566 64.9901 47.5888 62.569 47.5888 60.6776V27.1611H58.1053V59.6184C58.1053 67.1842 54.7007 73.0855 43.9572 73.0855C35.0296 73.0855 29.8849 68.8486 29.8849 59.6184V27.1611Z" fill="white"/>
<path d="M62.2664 88.2171V43.3519H72.7829V79.2138H85.6447V88.2171H62.2664Z" fill="white"/>
</svg>
