<svg width="24" height="24" viewBox="0 0 24 24" fill="none" xmlns="http://www.w3.org/2000/svg">
<path d="M15.9338 2.11338C15.6418 2.1801 15.2164 2.32194 14.9745 2.43039L14.5407 2.62227L14.0402 2.42208C13.7649 2.31363 13.2143 2.1801 12.8223 2.13005C11.9046 2.01329 10.912 2.18846 10.0027 2.63063C9.28531 2.97266 8.25089 3.94044 7.91718 4.58281L7.70864 4.96658L7.14977 5.02498C6.45737 5.08339 5.59815 5.34199 4.94747 5.68402C4.27178 6.04276 3.10391 7.21074 2.71184 7.91151C1.83593 9.52166 1.76085 11.4572 2.52831 13.0673C2.79525 13.6346 2.81194 13.7013 2.73686 14.1018C2.47826 15.4533 2.84531 17.2386 3.61277 18.3982C3.77126 18.6402 3.90473 18.8654 3.90473 18.8988C3.90473 18.9322 3.58774 19.2826 3.19567 19.683C2.55334 20.3421 2.4866 20.4339 2.4866 20.7259C2.4866 21.118 2.6451 21.3682 2.97877 21.5101C3.38753 21.6769 3.63779 21.5435 4.41359 20.7842L5.14768 20.0752L5.42297 20.2837C5.84006 20.6091 6.6993 20.9845 7.44174 21.1764C8.10906 21.3432 9.53554 21.3933 10.1195 21.2682C10.3114 21.2264 10.4949 21.2765 10.8869 21.4767C11.7045 21.8855 12.5053 22.0356 13.6064 21.9939C15.1497 21.9272 16.2174 21.46 17.3353 20.3421C18.3279 19.341 18.8869 18.198 18.9786 16.9466L19.0287 16.3376L19.4624 16.0873C20.4552 15.52 21.306 14.4605 21.6814 13.3259C21.8483 12.8087 21.8816 12.5501 21.8733 11.7075C21.8733 10.8231 21.8483 10.6312 21.6397 10.0973L21.4145 9.48828L21.623 8.96272C21.9484 8.15349 22.0318 7.63624 21.99 6.7102C21.9567 6.06779 21.89 5.72576 21.7231 5.28358C20.8222 2.93097 18.3697 1.58778 15.9338 2.11338ZM18.2779 3.90706C18.9453 4.15735 19.671 4.84977 20.0214 5.5589C20.28 6.0845 20.2967 6.16793 20.2967 7.00218C20.2967 7.88649 20.2967 7.9032 19.9463 8.57895C19.7461 8.95436 19.5876 9.34649 19.5876 9.45494C19.5876 9.5634 19.7294 9.93881 19.9046 10.2976C20.1965 10.9233 20.2132 10.9983 20.2132 11.7909C20.2132 12.5667 20.1965 12.6668 19.9379 13.1841C19.5709 13.9349 19.0704 14.4188 18.2195 14.8359C17.7523 15.0612 17.4938 15.2447 17.427 15.3865C17.3769 15.5034 17.3353 15.9122 17.3353 16.2876C17.3353 17.6057 16.7763 18.757 15.7753 19.5245C15.0662 20.0584 14.4573 20.2753 13.5313 20.3254C12.6304 20.3671 12.0798 20.2337 11.229 19.7748L10.6784 19.4745L10.0861 19.5746C8.80981 19.7915 7.80042 19.6664 6.80775 19.1658L6.29887 18.9072L7.4584 17.7475L8.61793 16.5879H11.2707C13.473 16.5879 13.9651 16.5629 14.1653 16.4628C14.474 16.3042 14.5824 16.104 14.5824 15.6869C14.5824 15.4116 14.5323 15.3115 14.3238 15.1363L14.0652 14.9193H12.18H10.2863L11.7462 13.4594L13.206 11.9994H14.8577H16.5177L16.7597 11.7575C17.0933 11.4238 17.0933 11.015 16.7597 10.6479C16.5177 10.381 16.5011 10.3726 15.7086 10.3476L14.8994 10.3142L15.9505 9.2547C16.9182 8.27861 17.0016 8.1618 17.0016 7.87818C17.0016 7.31919 16.5261 6.9104 16.0256 7.02721C15.8838 7.0689 15.3749 7.50272 14.7326 8.14513L13.6648 9.20465V8.39542C13.6648 7.61117 13.6565 7.56948 13.4229 7.31088C13.2227 7.08561 13.1226 7.03557 12.8306 7.03557C12.5386 7.03557 12.4385 7.08561 12.2383 7.31088L11.9964 7.57784V9.22968V10.8732L10.5783 12.2914L9.16014 13.7097V12.0411C9.16014 11.1234 9.11845 10.2308 9.07671 10.0639C8.89319 9.4132 8.19249 9.20465 7.73366 9.65514L7.49178 9.89707V12.6335V15.3615L6.34892 16.5211C5.72328 17.1552 5.18105 17.6724 5.14768 17.6724C5.03924 17.6724 4.58043 16.6547 4.44696 16.1291C4.28846 15.495 4.28846 14.7275 4.4553 13.9933C4.58043 13.426 4.58043 13.4093 4.39691 13.059C3.98815 12.3081 3.838 11.941 3.74624 11.5156C3.46261 10.164 3.85468 8.86258 4.85571 7.86146C5.68991 7.03557 6.61586 6.66015 7.86714 6.66015C8.32596 6.66015 8.59291 6.61842 8.71803 6.53499C8.81812 6.46827 9.05169 6.09281 9.23521 5.70909C9.75244 4.63286 10.5449 4.02387 11.6961 3.81527C12.3968 3.68179 13.1726 3.81527 13.8567 4.17402C14.4573 4.49938 14.6908 4.49102 15.2998 4.14899C15.5668 3.9988 15.9505 3.82363 16.1591 3.76522C16.7013 3.61508 17.6939 3.68179 18.2779 3.90706Z" />
</svg>
