<svg width="24" height="24" viewBox="0 0 24 24" fill="none" xmlns="http://www.w3.org/2000/svg">
<g clip-path="url(#clip0_401_38)">
<path d="M11.532 2H12.4844C17.7197 2.38912 21.6626 6.28435 22 11.532V12.5184C21.6327 17.7673 17.683 21.6245 12.434 22H11.5497C6.30068 21.6463 2.34286 17.7238 2 12.468V11.5497C2.32925 6.30612 6.29252 2.35102 11.532 2ZM19.2748 12C19.2748 10.0706 18.5084 8.22021 17.1441 6.85592C15.7798 5.49162 13.9294 4.72517 12 4.72517C10.0706 4.72517 8.22021 5.49162 6.85592 6.85592C5.49162 8.22021 4.72517 10.0706 4.72517 12C4.72517 13.9294 5.49162 15.7798 6.85592 17.1441C8.22021 18.5084 10.0706 19.2748 12 19.2748C13.9294 19.2748 15.7798 18.5084 17.1441 17.1441C18.5084 15.7798 19.2748 13.9294 19.2748 12ZM10.0925 7.92245C11.9429 9.50612 13.6367 11.2422 15.3211 12.9973C15.8508 13.5488 16.3107 14.156 16.7007 14.819C17.4531 16.098 15.0789 18.0286 13.981 17.9102C13.7297 17.883 13.6726 17.7746 13.8095 17.585C14.1497 17.1143 14.468 16.5551 13.9293 16.0612C13.4653 15.6367 12.9537 15.2503 12.5293 14.8259C10.3605 12.6617 9.0771 11.376 8.67891 10.9687C8.18549 10.4635 7.74286 9.8644 7.35102 9.17143C6.52789 7.71701 9.62177 5.57143 10.2422 6.22857C10.2552 6.24281 10.263 6.26133 10.2645 6.28142C10.2659 6.3015 10.261 6.32209 10.2503 6.34014C9.92381 6.90204 9.5619 7.46939 10.0925 7.92245Z" />
</g>
<defs>
<clipPath id="clip0_401_38">
<rect width="20" height="20" transform="translate(2 2)"/>
</clipPath>
</defs>
</svg>
