<svg width="24" height="24" viewBox="0 0 24 24" fill="none" xmlns="http://www.w3.org/2000/svg">
<path d="M2 3.83255C2 2.82046 2.82046 2 3.83256 2H11.0008C12.0128 2 12.8333 2.82046 12.8333 3.83256V5.25039C12.8333 5.75643 12.4231 6.16667 11.9171 6.16667H2.91627C2.41023 6.16667 2 5.75643 2 5.25039V3.83255Z"/>
<path d="M2 9.58229C2 9.07625 2.41023 8.66602 2.91627 8.66602H20.1674C21.1795 8.66602 22 9.48648 22 10.4986V15.2498C22 15.7558 21.5897 16.166 21.0837 16.166H3.83256C2.82046 16.166 2 15.3455 2 14.3334V9.58229Z"/>
<path d="M11.167 19.5823C11.167 19.0763 11.5772 18.666 12.0832 18.666H21.0841C21.5901 18.666 22.0003 19.0763 22.0003 19.5823V20.1668C22.0003 21.1788 21.1798 21.9993 20.1677 21.9993H12.9996C11.9875 21.9993 11.167 21.1788 11.167 20.1668V19.5823Z"/>
</svg>
