<svg width="184" height="700" viewBox="0 0 184 700" fill="none" xmlns="http://www.w3.org/2000/svg">
<path fill-rule="evenodd" clip-rule="evenodd" d="M92 314C41.1898 314 0 355.146 0 405.902V850.098C0 900.854 41.1898 942 92 942H184V405.902C184 355.146 142.81 314 92 314Z" fill="#1E73E8"/>
<path fill-rule="evenodd" clip-rule="evenodd" d="M93 188.741C101.837 188.741 109 181.528 109 172.629C109 163.731 101.837 156.517 93 156.517C84.1634 156.517 77 163.731 77 172.629C77 181.528 84.1634 188.741 93 188.741ZM93 267C101.837 267 109 259.786 109 250.888C109 241.989 101.837 234.776 93 234.776C84.1634 234.776 77 241.989 77 250.888C77 259.786 84.1634 267 93 267ZM93 32.2241C101.837 32.2241 109 25.0105 109 16.1121C109 7.21362 101.837 0 93 0C84.1634 0 77 7.21362 77 16.1121C77 25.0105 84.1634 32.2241 93 32.2241ZM93 110.483C101.837 110.483 109 103.269 109 94.3707C109 85.4722 101.837 78.2586 93 78.2586C84.1634 78.2586 77 85.4722 77 94.3707C77 103.269 84.1634 110.483 93 110.483Z" fill="#1DD3B0"/>
</svg>
