<svg width="158" height="354" viewBox="0 0 158 354" fill="none" xmlns="http://www.w3.org/2000/svg">
<path fill-rule="evenodd" clip-rule="evenodd" d="M4.49593 165.507C6.97897 165.507 8.99187 163.504 8.99187 161.033C8.99187 158.563 6.97897 156.56 4.49593 156.56C2.01289 156.56 0 158.563 0 161.033C0 163.504 2.01289 165.507 4.49593 165.507ZM4.49593 354C6.97897 354 8.99187 351.997 8.99187 349.527C8.99187 347.056 6.97897 345.054 4.49593 345.054C2.01289 345.054 0 347.056 0 349.527C0 351.997 2.01289 354 4.49593 354ZM4.49593 322.688C6.97897 322.688 8.99187 320.685 8.99187 318.215C8.99187 315.744 6.97897 313.742 4.49593 313.742C2.01289 313.742 0 315.744 0 318.215C0 320.685 2.01289 322.688 4.49593 322.688ZM4.49593 291.376C6.97897 291.376 8.99187 289.373 8.99187 286.903C8.99187 284.432 6.97897 282.43 4.49593 282.43C2.01289 282.43 0 284.432 0 286.903C0 289.373 2.01289 291.376 4.49593 291.376ZM4.49593 260.064C6.97897 260.064 8.99187 258.061 8.99187 255.591C8.99187 253.12 6.97897 251.118 4.49593 251.118C2.01289 251.118 0 253.12 0 255.591C0 258.061 2.01289 260.064 4.49593 260.064ZM4.49593 228.752C6.97897 228.752 8.99187 226.749 8.99187 224.279C8.99187 221.808 6.97897 219.806 4.49593 219.806C2.01289 219.806 0 221.808 0 224.279C0 226.749 2.01289 228.752 4.49593 228.752ZM4.49593 197.44C6.97897 197.44 8.99187 195.437 8.99187 192.967C8.99187 190.496 6.97897 188.493 4.49593 188.493C2.01289 188.493 0 190.496 0 192.967C0 195.437 2.01289 197.44 4.49593 197.44ZM34.0406 354C36.5237 354 38.5366 351.997 38.5366 349.527C38.5366 347.056 36.5237 345.054 34.0406 345.054C31.5576 345.054 29.5447 347.056 29.5447 349.527C29.5447 351.997 31.5576 354 34.0406 354ZM34.0406 322.688C36.5237 322.688 38.5366 320.685 38.5366 318.215C38.5366 315.744 36.5237 313.742 34.0406 313.742C31.5576 313.742 29.5447 315.744 29.5447 318.215C29.5447 320.685 31.5576 322.688 34.0406 322.688ZM34.0406 291.376C36.5237 291.376 38.5366 289.373 38.5366 286.903C38.5366 284.432 36.5237 282.43 34.0406 282.43C31.5576 282.43 29.5447 284.432 29.5447 286.903C29.5447 289.373 31.5576 291.376 34.0406 291.376ZM34.0406 260.064C36.5237 260.064 38.5366 258.061 38.5366 255.591C38.5366 253.12 36.5237 251.118 34.0406 251.118C31.5576 251.118 29.5447 253.12 29.5447 255.591C29.5447 258.061 31.5576 260.064 34.0406 260.064ZM34.0406 228.752C36.5237 228.752 38.5366 226.749 38.5366 224.279C38.5366 221.808 36.5237 219.806 34.0406 219.806C31.5576 219.806 29.5447 221.808 29.5447 224.279C29.5447 226.749 31.5576 228.752 34.0406 228.752ZM34.0406 197.44C36.5237 197.44 38.5366 195.437 38.5366 192.967C38.5366 190.496 36.5237 188.493 34.0406 188.493C31.5576 188.493 29.5447 190.496 29.5447 192.967C29.5447 195.437 31.5576 197.44 34.0406 197.44ZM63.5854 354C66.0684 354 68.0813 351.997 68.0813 349.527C68.0813 347.056 66.0684 345.054 63.5854 345.054C61.1023 345.054 59.0894 347.056 59.0894 349.527C59.0894 351.997 61.1023 354 63.5854 354ZM63.5854 322.688C66.0684 322.688 68.0813 320.685 68.0813 318.215C68.0813 315.744 66.0684 313.742 63.5854 313.742C61.1023 313.742 59.0894 315.744 59.0894 318.215C59.0894 320.685 61.1023 322.688 63.5854 322.688ZM63.5854 291.376C66.0684 291.376 68.0813 289.373 68.0813 286.903C68.0813 284.432 66.0684 282.43 63.5854 282.43C61.1023 282.43 59.0894 284.432 59.0894 286.903C59.0894 289.373 61.1023 291.376 63.5854 291.376ZM63.5854 260.064C66.0684 260.064 68.0813 258.061 68.0813 255.591C68.0813 253.12 66.0684 251.118 63.5854 251.118C61.1023 251.118 59.0894 253.12 59.0894 255.591C59.0894 258.061 61.1023 260.064 63.5854 260.064ZM63.5854 228.752C66.0684 228.752 68.0813 226.749 68.0813 224.279C68.0813 221.808 66.0684 219.806 63.5854 219.806C61.1023 219.806 59.0894 221.808 59.0894 224.279C59.0894 226.749 61.1023 228.752 63.5854 228.752ZM63.5854 197.44C66.0684 197.44 68.0813 195.437 68.0813 192.967C68.0813 190.496 66.0684 188.493 63.5854 188.493C61.1023 188.493 59.0894 190.496 59.0894 192.967C59.0894 195.437 61.1023 197.44 63.5854 197.44ZM94.4146 354C96.8977 354 98.9106 351.997 98.9106 349.527C98.9106 347.056 96.8977 345.054 94.4146 345.054C91.9316 345.054 89.9187 347.056 89.9187 349.527C89.9187 351.997 91.9316 354 94.4146 354ZM94.4146 322.688C96.8977 322.688 98.9106 320.685 98.9106 318.215C98.9106 315.744 96.8977 313.742 94.4146 313.742C91.9316 313.742 89.9187 315.744 89.9187 318.215C89.9187 320.685 91.9316 322.688 94.4146 322.688ZM94.4146 291.376C96.8977 291.376 98.9106 289.373 98.9106 286.903C98.9106 284.432 96.8977 282.43 94.4146 282.43C91.9316 282.43 89.9187 284.432 89.9187 286.903C89.9187 289.373 91.9316 291.376 94.4146 291.376ZM94.4146 260.064C96.8977 260.064 98.9106 258.061 98.9106 255.591C98.9106 253.12 96.8977 251.118 94.4146 251.118C91.9316 251.118 89.9187 253.12 89.9187 255.591C89.9187 258.061 91.9316 260.064 94.4146 260.064ZM94.4146 228.752C96.8977 228.752 98.9106 226.749 98.9106 224.279C98.9106 221.808 96.8977 219.806 94.4146 219.806C91.9316 219.806 89.9187 221.808 89.9187 224.279C89.9187 226.749 91.9316 228.752 94.4146 228.752ZM94.4146 197.44C96.8977 197.44 98.9106 195.437 98.9106 192.967C98.9106 190.496 96.8977 188.493 94.4146 188.493C91.9316 188.493 89.9187 190.496 89.9187 192.967C89.9187 195.437 91.9316 197.44 94.4146 197.44ZM123.959 354C126.442 354 128.455 351.997 128.455 349.527C128.455 347.056 126.442 345.054 123.959 345.054C121.476 345.054 119.463 347.056 119.463 349.527C119.463 351.997 121.476 354 123.959 354ZM123.959 322.688C126.442 322.688 128.455 320.685 128.455 318.215C128.455 315.744 126.442 313.742 123.959 313.742C121.476 313.742 119.463 315.744 119.463 318.215C119.463 320.685 121.476 322.688 123.959 322.688ZM123.959 291.376C126.442 291.376 128.455 289.373 128.455 286.903C128.455 284.432 126.442 282.43 123.959 282.43C121.476 282.43 119.463 284.432 119.463 286.903C119.463 289.373 121.476 291.376 123.959 291.376ZM123.959 260.064C126.442 260.064 128.455 258.061 128.455 255.591C128.455 253.12 126.442 251.118 123.959 251.118C121.476 251.118 119.463 253.12 119.463 255.591C119.463 258.061 121.476 260.064 123.959 260.064ZM123.959 228.752C126.442 228.752 128.455 226.749 128.455 224.279C128.455 221.808 126.442 219.806 123.959 219.806C121.476 219.806 119.463 221.808 119.463 224.279C119.463 226.749 121.476 228.752 123.959 228.752ZM123.959 197.44C126.442 197.44 128.455 195.437 128.455 192.967C128.455 190.496 126.442 188.493 123.959 188.493C121.476 188.493 119.463 190.496 119.463 192.967C119.463 195.437 121.476 197.44 123.959 197.44ZM153.504 354C155.987 354 158 351.997 158 349.527C158 347.056 155.987 345.054 153.504 345.054C151.021 345.054 149.008 347.056 149.008 349.527C149.008 351.997 151.021 354 153.504 354ZM153.504 322.688C155.987 322.688 158 320.685 158 318.215C158 315.744 155.987 313.742 153.504 313.742C151.021 313.742 149.008 315.744 149.008 318.215C149.008 320.685 151.021 322.688 153.504 322.688ZM153.504 291.376C155.987 291.376 158 289.373 158 286.903C158 284.432 155.987 282.43 153.504 282.43C151.021 282.43 149.008 284.432 149.008 286.903C149.008 289.373 151.021 291.376 153.504 291.376ZM153.504 260.064C155.987 260.064 158 258.061 158 255.591C158 253.12 155.987 251.118 153.504 251.118C151.021 251.118 149.008 253.12 149.008 255.591C149.008 258.061 151.021 260.064 153.504 260.064ZM153.504 228.752C155.987 228.752 158 226.749 158 224.279C158 221.808 155.987 219.806 153.504 219.806C151.021 219.806 149.008 221.808 149.008 224.279C149.008 226.749 151.021 228.752 153.504 228.752ZM153.504 197.44C155.987 197.44 158 195.437 158 192.967C158 190.496 155.987 188.493 153.504 188.493C151.021 188.493 149.008 190.496 149.008 192.967C149.008 195.437 151.021 197.44 153.504 197.44ZM4.49593 134.194C6.97897 134.194 8.99187 132.192 8.99187 129.721C8.99187 127.251 6.97897 125.248 4.49593 125.248C2.01289 125.248 0 127.251 0 129.721C0 132.192 2.01289 134.194 4.49593 134.194ZM4.49593 102.882C6.97897 102.882 8.99187 100.88 8.99187 98.4093C8.99187 95.9388 6.97897 93.9361 4.49593 93.9361C2.01289 93.9361 0 95.9388 0 98.4093C0 100.88 2.01289 102.882 4.49593 102.882ZM4.49593 71.5704C6.97897 71.5704 8.99187 69.5677 8.99187 67.0972C8.99187 64.6268 6.97897 62.6241 4.49593 62.6241C2.01289 62.6241 0 64.6268 0 67.0972C0 69.5677 2.01289 71.5704 4.49593 71.5704ZM4.49593 40.2583C6.97897 40.2583 8.99187 38.2556 8.99187 35.7852C8.99187 33.3147 6.97897 31.312 4.49593 31.312C2.01289 31.312 0 33.3147 0 35.7852C0 38.2556 2.01289 40.2583 4.49593 40.2583ZM4.49593 8.9463C6.97897 8.9463 8.99187 6.9436 8.99187 4.47315C8.99187 2.0027 6.97897 0 4.49593 0C2.01289 0 0 2.0027 0 4.47315C0 6.9436 2.01289 8.9463 4.49593 8.9463ZM34.0406 165.507C36.5237 165.507 38.5366 163.504 38.5366 161.033C38.5366 158.563 36.5237 156.56 34.0406 156.56C31.5576 156.56 29.5447 158.563 29.5447 161.033C29.5447 163.504 31.5576 165.507 34.0406 165.507ZM34.0406 134.194C36.5237 134.194 38.5366 132.192 38.5366 129.721C38.5366 127.251 36.5237 125.248 34.0406 125.248C31.5576 125.248 29.5447 127.251 29.5447 129.721C29.5447 132.192 31.5576 134.194 34.0406 134.194ZM34.0406 102.882C36.5237 102.882 38.5366 100.88 38.5366 98.4093C38.5366 95.9388 36.5237 93.9361 34.0406 93.9361C31.5576 93.9361 29.5447 95.9388 29.5447 98.4093C29.5447 100.88 31.5576 102.882 34.0406 102.882ZM34.0406 71.5704C36.5237 71.5704 38.5366 69.5677 38.5366 67.0972C38.5366 64.6268 36.5237 62.6241 34.0406 62.6241C31.5576 62.6241 29.5447 64.6268 29.5447 67.0972C29.5447 69.5677 31.5576 71.5704 34.0406 71.5704ZM34.0406 40.2583C36.5237 40.2583 38.5366 38.2556 38.5366 35.7852C38.5366 33.3147 36.5237 31.312 34.0406 31.312C31.5576 31.312 29.5447 33.3147 29.5447 35.7852C29.5447 38.2556 31.5576 40.2583 34.0406 40.2583ZM34.0406 8.9463C36.5237 8.9463 38.5366 6.9436 38.5366 4.47315C38.5366 2.0027 36.5237 0 34.0406 0C31.5576 0 29.5447 2.0027 29.5447 4.47315C29.5447 6.9436 31.5576 8.9463 34.0406 8.9463ZM63.5854 165.507C66.0684 165.507 68.0813 163.504 68.0813 161.033C68.0813 158.563 66.0684 156.56 63.5854 156.56C61.1023 156.56 59.0894 158.563 59.0894 161.033C59.0894 163.504 61.1023 165.507 63.5854 165.507ZM63.5854 134.194C66.0684 134.194 68.0813 132.192 68.0813 129.721C68.0813 127.251 66.0684 125.248 63.5854 125.248C61.1023 125.248 59.0894 127.251 59.0894 129.721C59.0894 132.192 61.1023 134.194 63.5854 134.194ZM63.5854 102.882C66.0684 102.882 68.0813 100.88 68.0813 98.4093C68.0813 95.9388 66.0684 93.9361 63.5854 93.9361C61.1023 93.9361 59.0894 95.9388 59.0894 98.4093C59.0894 100.88 61.1023 102.882 63.5854 102.882ZM63.5854 71.5704C66.0684 71.5704 68.0813 69.5677 68.0813 67.0972C68.0813 64.6268 66.0684 62.6241 63.5854 62.6241C61.1023 62.6241 59.0894 64.6268 59.0894 67.0972C59.0894 69.5677 61.1023 71.5704 63.5854 71.5704ZM63.5854 40.2583C66.0684 40.2583 68.0813 38.2556 68.0813 35.7852C68.0813 33.3147 66.0684 31.312 63.5854 31.312C61.1023 31.312 59.0894 33.3147 59.0894 35.7852C59.0894 38.2556 61.1023 40.2583 63.5854 40.2583ZM63.5854 8.9463C66.0684 8.9463 68.0813 6.9436 68.0813 4.47315C68.0813 2.0027 66.0684 0 63.5854 0C61.1023 0 59.0894 2.0027 59.0894 4.47315C59.0894 6.9436 61.1023 8.9463 63.5854 8.9463ZM94.4146 165.507C96.8977 165.507 98.9106 163.504 98.9106 161.033C98.9106 158.563 96.8977 156.56 94.4146 156.56C91.9316 156.56 89.9187 158.563 89.9187 161.033C89.9187 163.504 91.9316 165.507 94.4146 165.507ZM94.4146 134.194C96.8977 134.194 98.9106 132.192 98.9106 129.721C98.9106 127.251 96.8977 125.248 94.4146 125.248C91.9316 125.248 89.9187 127.251 89.9187 129.721C89.9187 132.192 91.9316 134.194 94.4146 134.194ZM94.4146 102.882C96.8977 102.882 98.9106 100.88 98.9106 98.4093C98.9106 95.9388 96.8977 93.9361 94.4146 93.9361C91.9316 93.9361 89.9187 95.9388 89.9187 98.4093C89.9187 100.88 91.9316 102.882 94.4146 102.882ZM94.4146 71.5704C96.8977 71.5704 98.9106 69.5677 98.9106 67.0972C98.9106 64.6268 96.8977 62.6241 94.4146 62.6241C91.9316 62.6241 89.9187 64.6268 89.9187 67.0972C89.9187 69.5677 91.9316 71.5704 94.4146 71.5704ZM94.4146 40.2583C96.8977 40.2583 98.9106 38.2556 98.9106 35.7852C98.9106 33.3147 96.8977 31.312 94.4146 31.312C91.9316 31.312 89.9187 33.3147 89.9187 35.7852C89.9187 38.2556 91.9316 40.2583 94.4146 40.2583ZM94.4146 8.9463C96.8977 8.9463 98.9106 6.9436 98.9106 4.47315C98.9106 2.0027 96.8977 0 94.4146 0C91.9316 0 89.9187 2.0027 89.9187 4.47315C89.9187 6.9436 91.9316 8.9463 94.4146 8.9463ZM123.959 165.507C126.442 165.507 128.455 163.504 128.455 161.033C128.455 158.563 126.442 156.56 123.959 156.56C121.476 156.56 119.463 158.563 119.463 161.033C119.463 163.504 121.476 165.507 123.959 165.507ZM123.959 134.194C126.442 134.194 128.455 132.192 128.455 129.721C128.455 127.251 126.442 125.248 123.959 125.248C121.476 125.248 119.463 127.251 119.463 129.721C119.463 132.192 121.476 134.194 123.959 134.194ZM123.959 102.882C126.442 102.882 128.455 100.88 128.455 98.4093C128.455 95.9388 126.442 93.9361 123.959 93.9361C121.476 93.9361 119.463 95.9388 119.463 98.4093C119.463 100.88 121.476 102.882 123.959 102.882ZM123.959 71.5704C126.442 71.5704 128.455 69.5677 128.455 67.0972C128.455 64.6268 126.442 62.6241 123.959 62.6241C121.476 62.6241 119.463 64.6268 119.463 67.0972C119.463 69.5677 121.476 71.5704 123.959 71.5704ZM123.959 40.2583C126.442 40.2583 128.455 38.2556 128.455 35.7852C128.455 33.3147 126.442 31.312 123.959 31.312C121.476 31.312 119.463 33.3147 119.463 35.7852C119.463 38.2556 121.476 40.2583 123.959 40.2583ZM123.959 8.9463C126.442 8.9463 128.455 6.9436 128.455 4.47315C128.455 2.0027 126.442 0 123.959 0C121.476 0 119.463 2.0027 119.463 4.47315C119.463 6.9436 121.476 8.9463 123.959 8.9463ZM153.504 165.507C155.987 165.507 158 163.504 158 161.033C158 158.563 155.987 156.56 153.504 156.56C151.021 156.56 149.008 158.563 149.008 161.033C149.008 163.504 151.021 165.507 153.504 165.507ZM153.504 134.194C155.987 134.194 158 132.192 158 129.721C158 127.251 155.987 125.248 153.504 125.248C151.021 125.248 149.008 127.251 149.008 129.721C149.008 132.192 151.021 134.194 153.504 134.194ZM153.504 102.882C155.987 102.882 158 100.88 158 98.4093C158 95.9388 155.987 93.9361 153.504 93.9361C151.021 93.9361 149.008 95.9388 149.008 98.4093C149.008 100.88 151.021 102.882 153.504 102.882ZM153.504 71.5704C155.987 71.5704 158 69.5677 158 67.0972C158 64.6268 155.987 62.6241 153.504 62.6241C151.021 62.6241 149.008 64.6268 149.008 67.0972C149.008 69.5677 151.021 71.5704 153.504 71.5704ZM153.504 40.2583C155.987 40.2583 158 38.2556 158 35.7852C158 33.3147 155.987 31.312 153.504 31.312C151.021 31.312 149.008 33.3147 149.008 35.7852C149.008 38.2556 151.021 40.2583 153.504 40.2583ZM153.504 8.9463C155.987 8.9463 158 6.9436 158 4.47315C158 2.0027 155.987 0 153.504 0C151.021 0 149.008 2.0027 149.008 4.47315C149.008 6.9436 151.021 8.9463 153.504 8.9463Z" fill="#1E73E8"/>
</svg>
