<svg width="443" height="105" viewBox="0 0 443 105" fill="none" xmlns="http://www.w3.org/2000/svg">
<path d="M175.2 83.1C173.6 83.1 171.8 83.2 169.9 83.3C168 83.4 166.4 83.5 165.1 83.5C164.7 83.5 164.3 83.5 163.9 83.4C163.4 83.4 163.1 83 163.1 82.5C163.1 82.5 163.1 82.5 163.1 82.4C163.1 81.9 163.4 81.4 163.9 81.1C164.9 80.5 166.1 80.1 167.3 80C167.9 79.9 168.5 79.8 169.1 79.6C169.7 79.4 170.3 79.1 170.7 78.6C171.2 78 171.6 77.3 171.9 76.5C172.2 75.3 172.4 74 172.3 72.7V20C172.3 19.5 172 19 171.5 18.8C170.9 18.5 170.2 18.3 169.5 18.2C168.7 18.1 167.9 18 167 18C166.1 18 165.3 17.9 164.6 17.8C163.3 17.7 162.5 17.5 162 17.4C161.5 17.3 161.2 16.8 161.3 16.3C161.3 15.9 161.5 15.5 161.8 15.2C162.1 14.9 162.5 14.7 163 14.6C163.5 14.5 163.9 14.4 164.4 14.4C164.9 14.4 165.3 14.3 165.7 14.3H175.9C178.7 14.3 181.5 14.2 184.3 14C187.1 13.8 190.3 13.7 193.9 13.7C199.5 13.7 205.1 14.4 210.5 15.9C215.4 17.3 220 19.6 224 22.8C227.9 26.1 231.1 30.2 233.1 34.8C235.5 40.3 236.6 46.2 236.5 52.2C236.5 56.3 235.6 60.4 233.7 64.1C231.9 67.8 229.4 71.1 226.2 73.8C222.9 76.6 219.2 78.9 215.2 80.4C210.9 82 206.3 82.8 201.7 82.8H175.2V83.1ZM181.9 69.1C181.9 70.9 182.3 72.6 183.1 74.1C183.9 75.5 185 76.7 186.4 77.6C187.8 78.6 189.4 79.3 191 79.7C192.7 80.1 194.5 80.4 196.3 80.4C198.1 80.4 199.9 80.1 201.6 79.7C203.8 79.2 205.9 78.5 207.9 77.6C210.2 76.6 212.4 75.3 214.4 73.8C216.6 72.2 218.6 70.3 220.2 68.1C222 65.8 223.4 63.2 224.4 60.4C225.5 57.1 226 53.7 226 50.3C226 46.8 225.5 43.2 224.4 39.9C222.5 34 218.8 28.9 213.9 25.1C211.6 23.4 209.1 21.8 206.5 20.6C201.7 18.4 196.6 17.2 191.3 17.1C189.5 17.1 187.7 17.2 185.9 17.4C184.9 17.5 184 17.8 183.1 18.2C182.6 18.4 182.2 18.9 182 19.4C181.9 19.8 181.8 20.2 181.8 20.6L181.9 69.1Z" fill="white"/>
<path d="M259.3 85.1C257.1 85.2 254.8 84.8 252.7 84C251 83.3 249.6 82.2 248.6 80.8C247.6 79.3 246.8 77.6 246.5 75.8C246.1 73.7 245.9 71.5 245.9 69.3C245.9 67.6 245.9 65.7 246 63.6C246 61.5 246.1 59.4 246.1 57.3C246.1 55.1 246.1 53 246.2 51C246.2 48.9 246.3 47.1 246.3 45.5C246.4 44.8 245.9 44.1 245.2 43.9C244.5 43.7 243.7 43.5 243.1 43.3C242.2 43.1 241.3 42.8 240.4 42.5C240 42.4 239.7 42.1 239.7 41.7C239.7 41.3 240 40.9 240.4 40.8C240.4 40.8 240.4 40.8 240.5 40.8C241.2 40.7 241.8 40.7 242.5 40.7C243.3 40.7 244.1 40.7 244.9 40.8C245.7 40.9 246.5 40.9 247.3 40.9C248.1 40.9 249 40.9 249.8 40.8C250.6 40.7 251.5 40.7 252.3 40.7C253.1 40.7 253.5 40.8 253.7 41.1C253.9 41.6 254 42.2 254 42.8C254 47.8 254 52.8 253.9 57.8C253.8 62.8 253.8 67.7 253.8 72.8C253.7 74.8 254.6 76.8 256.1 78.1C258 79.4 260.3 80.1 262.6 79.9C265.1 80 267.5 79.7 269.9 79C271.4 78.6 272.7 77.8 273.9 76.7C274.8 75.8 275.4 74.7 275.6 73.5C275.9 72.4 276 71.2 276 70C276 66 276 62 276.1 58C276.2 54 276.2 50.1 276.2 46C276.2 45.7 276.1 45.5 276 45.2C275.8 44.9 275.5 44.7 275.2 44.6C274.8 44.5 274.2 44.3 273.5 44.1C272.8 43.9 271.7 43.6 270.4 43.3C270 43.2 269.3 42.9 268.4 42.6C267.5 42.3 267.1 41.9 267.1 41.5C267.1 41.1 267.4 40.9 267.9 40.8C268.5 40.7 269 40.6 269.6 40.6C270.6 40.6 271.5 40.6 272.5 40.7C273.4 40.8 274.4 40.8 275.4 40.8C276.5 40.8 277.6 40.8 278.7 40.7C279.8 40.6 280.9 40.6 282 40.6C282.5 40.6 283 40.8 283.5 41C284.1 41.3 284.4 41.9 284.4 43C284.4 48.7 284.3 54.3 284.2 60C284.1 65.6 284 71.3 284 77C284 78.2 284.4 78.9 285.1 79.2C285.7 79.5 286.3 79.6 286.9 79.6C289.1 79.6 290.6 79.6 291.4 79.7C292.3 79.8 292.7 80.1 292.7 80.7C292.7 81.1 292.5 81.4 292.2 81.6C291.6 81.8 291.1 82 290.5 82C286.5 82.6 283.4 83.1 281.2 83.5C279.8 83.8 278.4 84 277 84.2C276.6 84.2 276.3 84 276.2 83.7C276.1 83.3 276.1 82.8 276.1 82.4V79.8C276.1 78.9 275.8 78.5 275.3 78.5C274.6 78.6 273.9 79 273.4 79.5C272.6 80.2 271.5 80.9 270.2 81.8C268.8 82.7 267.2 83.5 265.6 84.1C263.3 84.8 261.3 85.2 259.3 85.1Z" fill="white"/>
<path d="M301.7 19.3C301.8 18.2 301.5 17 300.9 16.1C300.4 15.5 299.7 15 299 14.8C298.3 14.5 297.7 14.3 297.1 14.2C296.6 14.1 296.2 13.7 296.3 13.2C296.3 12.8 296.5 12.5 296.9 12.4C297.5 12.1 298.1 11.9 298.7 11.7L306.3 8.79998C306.6 8.69998 306.9 8.59998 307.2 8.59998H308.2C308.5 8.59998 308.8 8.79998 309 8.99998C309.3 9.49998 309.5 10.1 309.4 10.6V56.7C309.4 57.9 309.7 58.5 310.4 58.5C311 58.3 311.6 58.1 312.1 57.8C313.1 57.3 314.3 56.7 315.6 55.9C316.9 55.1 318.4 54.2 319.9 53.3C321.4 52.3 322.8 51.4 324.1 50.5C325.4 49.6 326.4 48.8 327.3 48.1C328.2 47.4 328.6 46.8 328.6 46.5C328.6 45.9 328.4 45.2 327.9 44.8C327.5 44.4 327 44.1 326.4 43.8C325.9 43.5 325.4 43.3 324.9 43C324.5 42.8 324.2 42.4 324.2 41.9C324.2 41.6 324.4 41.3 324.7 41.1C325 40.9 325.4 40.8 325.8 40.8C327 40.8 328.4 40.8 329.9 40.9C331.4 41 332.9 41 334.4 41C335.8 41 337.3 41 338.8 40.9C340.3 40.8 341.7 40.8 342.8 40.8C343.3 40.8 343.8 40.9 344.3 41C344.8 41.2 345 41.6 345 42.1C345 42.4 344.8 42.7 344.4 42.9C343.9 43.2 343.4 43.4 342.9 43.6C342.3 43.8 341.7 44 341 44.2C340.4 44.4 339.9 44.6 339.5 44.7C338.7 45.1 337.1 45.9 334.7 47.2C332.3 48.5 329.9 49.9 327.4 51.4C324.9 52.9 322.7 54.3 320.7 55.6C318.8 56.9 317.8 57.7 317.8 58C317.8 58.3 317.9 58.7 318.1 59C318.3 59.2 318.5 59.4 318.7 59.6L338.1 77.2C339.1 78.1 340.2 78.9 341.4 79.6C342.5 80.1 343.4 80.6 344.3 80.9C345.1 81.2 345.8 81.5 346.3 81.7C346.8 81.9 347 82.2 347 82.6C347 83.3 346 83.7 344.1 83.7C342.9 83.7 341.6 83.6 340.2 83.5C338.8 83.4 337.2 83.3 335.5 83.3C334.1 83.3 332.7 83.4 331.2 83.5C329.9 83.6 328.5 83.7 327.2 83.7C326.3 83.7 325.5 83.7 324.6 83.5C324.1 83.4 323.8 83 323.8 82.6C323.8 82.1 324.2 81.6 324.7 81.5C325.5 81.3 326.3 81.1 327.1 81C327.6 80.9 328.2 80.8 328.6 80.4C329 80.2 329.2 79.8 329.2 79.4C329.2 79 328.8 78.4 328 77.6L311.1 61.6C310.6 61.2 310.3 60.9 310.1 60.9C309.6 60.9 309.3 61.1 309.3 61.5V77.4C309.2 78.4 309.5 79.3 310.1 80C310.6 80.4 311.1 80.8 311.7 80.9C312.4 81.2 313.2 81.4 314 81.5C314.6 81.6 315 81.9 315 82.5C315 82.9 314.7 83.2 314.2 83.4C313.6 83.5 313 83.6 312.5 83.6C311.2 83.6 309.9 83.5 308.7 83.4C307.5 83.3 306.2 83.2 305 83.2C303.6 83.2 302.2 83.3 300.7 83.4C299.2 83.5 297.9 83.6 296.9 83.6C296.4 83.6 295.8 83.5 295.3 83.4C294.6 83.3 294.2 83 294.2 82.4C294.2 82 294.4 81.5 294.8 81.3C295.3 81.1 295.8 80.9 296.3 80.8C297 80.6 297.8 80.4 298.4 80.2C299 80.1 299.6 79.8 300.2 79.5C300.7 79.2 301.1 78.7 301.4 78.2C301.7 77.3 301.8 76.4 301.8 75.5L301.7 19.3Z" fill="white"/>
<path d="M354.5 57.1C354.3 57.6 354.3 58.1 354.3 58.7V61.1C354.3 63.4 354.5 65.8 354.9 68.1C355.3 70.2 356.1 72.3 357.3 74.1C358.6 75.9 360.3 77.4 362.2 78.3C364.8 79.5 367.7 80 370.5 79.9C372.2 80 373.9 79.7 375.5 79.2C376.5 78.9 377.5 78.3 378.3 77.7C378.9 77.2 379.4 76.7 379.9 76.1C380.2 75.7 380.6 75.4 381.1 75.4C381.8 75.4 382.1 75.7 382.1 76.3C381.9 76.9 381.6 77.5 381.2 78C380.4 79.2 379.4 80.2 378.3 81C376.7 82.2 375 83.2 373.2 83.9C370.8 84.8 368.3 85.3 365.8 85.2C359.6 85.2 354.8 83.2 351.4 79.1C348 75 346.3 69.5 346.3 62.4C346.3 59.6 346.7 56.9 347.5 54.3C348.3 51.6 349.6 49 351.2 46.7C352.9 44.4 355.1 42.5 357.5 41C360.3 39.4 363.4 38.7 366.6 38.8C369.4 38.7 372.2 39.3 374.7 40.6C376.7 41.7 378.6 43.1 380 44.9C381.3 46.4 382.3 48.2 382.9 50.1C383.4 51.5 383.7 53 383.8 54.6C383.9 55.3 383.7 56 383.4 56.7C383.1 57 382.5 57.2 381.6 57.2L354.5 57.1ZM365.2 53.7C367.2 53.7 369.2 53.6 371.1 53.4C372.3 53.3 373.5 53 374.6 52.4C375.3 52.1 375.9 51.5 376.2 50.7C376.5 49.9 376.6 49 376.6 48.1C376.6 46.2 375.7 44.4 374.2 43.2C372.5 41.9 370.4 41.2 368.3 41.2C366.4 41.2 364.5 41.6 362.9 42.5C361.4 43.3 360 44.3 358.9 45.6C357.9 46.7 357 47.9 356.4 49.3C355.9 50.3 355.6 51.4 355.5 52.5C355.5 52.7 355.5 52.9 355.7 53C356 53.2 356.4 53.3 356.8 53.3C357.4 53.4 358.4 53.4 359.7 53.5C360.9 53.7 362.8 53.7 365.2 53.7Z" fill="white"/>
<path d="M87.5578 0.597656V4.94262H85.0108V3.05203V2.57699H77.9457V5.88002H75.6834V4.55627V4.08757H60.411V13.6009L60.7622 13.6927C62.3546 14.1645 63.5464 14.758 63.6161 20.7865V63.9913C63.6022 66.6442 63.6214 69.481 64.7836 72.5134C63.9027 72.686 63.3424 73.1477 63.3313 73.7738C63.3315 73.7828 63.3373 73.7903 63.3377 73.7992V73.8657C63.3377 75.5418 62.7664 76.5427 62.6637 76.7348C62.2378 76.6475 61.8349 76.6018 61.4678 76.6018C60.176 76.6098 59.2335 77.0789 59.1517 77.8749L59.1264 77.8717C58.9401 79.0748 58.3347 82.0524 57.3514 83.3852C56.9432 83.9349 56.7629 84.3984 56.7629 84.8135C56.7694 85.5139 57.2675 85.9358 57.6773 86.2861C58.2913 86.8163 60.8876 88.3143 64.1097 88.3224C64.5207 88.3224 64.9482 88.2688 65.3752 88.2147C65.035 88.8567 64.7603 89.3329 64.7614 89.3358C64.5816 89.7379 64.4165 90.1366 64.4197 90.6944C64.4197 91.1176 64.5109 91.6284 64.7361 92.3127C66.2605 96.1636 76.2899 104.216 97.1189 104.236C97.6049 104.231 98.0912 104.23 98.587 104.223C99.0697 104.23 99.5643 104.233 100.049 104.233C120.88 104.218 130.905 96.1649 132.428 92.3253C132.657 91.6297 132.751 91.1159 132.751 90.6976C132.751 90.1349 132.587 89.7436 132.425 89.3706C132.416 89.3569 132.132 88.8677 131.786 88.2116C132.214 88.2669 132.644 88.3224 133.058 88.3224C136.275 88.3159 138.878 86.8131 139.5 86.2861C139.903 85.9358 140.398 85.5171 140.401 84.8166C140.401 84.4015 140.226 83.9366 139.819 83.382C138.836 82.0476 138.229 79.0732 138.044 77.8685L138.013 77.8748C137.935 77.0814 136.992 76.6113 135.703 76.6049C135.335 76.6049 134.934 76.6486 134.507 76.7348C134.395 76.5471 133.827 75.5311 133.827 73.8434C133.827 73.8363 133.826 73.8263 133.827 73.8181C133.828 73.8027 133.839 73.7892 133.839 73.7737C133.827 73.1465 133.265 72.6863 132.378 72.5165C133.541 69.4828 133.559 66.6451 133.545 63.9913V20.7865C133.613 14.758 134.813 14.1613 136.399 13.6927L136.753 13.6009V4.08448H121.49V5.88006H119.219V2.57703H112.154V4.9427H109.61V0.597737H100.751V2.39024H96.4192V1.06648V0.597786H87.557L87.5578 0.597656ZM88.4975 1.54138H95.4803V2.86196V3.33065H101.694V1.5414H108.671V5.88004H113.094V3.52069H118.283V6.81739H122.434V5.02489H135.811L135.817 12.8819C133.984 13.4494 132.543 15.0952 132.609 20.7864V63.9912C132.582 69.282 132.667 74.6134 123.934 81.3487C115.98 87.4599 102.532 92.7163 98.5684 93.7248C94.5671 92.692 81.1653 87.4421 73.234 81.3487C64.4944 74.6133 64.5875 69.2818 64.5584 63.9912V20.7864C64.6232 15.0984 63.1887 13.4526 61.3533 12.8819V5.02489H74.7401V6.34865V6.81734H78.8816V3.52064H84.0737V5.41123V5.87993H88.497V1.54128L88.4975 1.54138ZM65.5525 10.9248V32.9066H96.7495V32.6754V10.9255H65.5525V10.9248ZM100.419 10.9248V32.9099H100.656H131.615V10.9248H100.418H100.419ZM100.887 11.3935H131.144V32.4381H100.887V11.3935V11.3935ZM66.0208 11.3967H96.2782V32.4348H66.0208V11.3967V11.3967ZM66.9194 12.2961V31.5409H95.3786V12.2961H66.9194V12.2961ZM101.789 12.2961V31.5409H130.255V12.2961H101.789ZM97.413 27.5319V33.6629H91.4742V35.7847V36.019H97.315V52.0846H99.7133H99.9569V36.0223L105.798 36.019V33.8972V33.6629H99.862V27.5319H99.6279H97.6471H97.413H97.413ZM97.8749 28.0006H99.3873V34.1285H105.323V35.5504H99.4791V51.6127H97.7832V35.5504H91.9394H91.9362V34.1285L97.8749 34.1317V28.0007L97.8749 28.0006ZM96.5144 32.4342V32.6749V32.4342ZM65.5523 36.9629V63.428C65.5442 63.7474 65.5397 64.0699 65.5397 64.3812C65.5267 71.8123 67.7064 74.7095 71.1747 78.3091C75.9632 83.2626 89.9628 90.9851 96.4831 91.7683L96.7457 91.7968V84.7948H100.416H100.419V91.7968L100.685 91.7683C107.21 90.9851 121.208 83.2626 125.993 78.3091C129.467 74.7062 131.641 71.8137 131.628 64.3876C131.628 64.0714 131.627 63.7508 131.619 63.4217V36.9631H100.419V52.6232H96.7452V36.9631H65.5515L65.5523 36.9629ZM66.0174 37.4379H96.2781V53.0949H100.888V52.8574V37.4378H131.149V63.4278C131.157 63.7586 131.156 64.0761 131.161 64.3874C131.147 71.726 129.097 74.3768 125.653 77.9828C121.076 82.7596 107.318 90.3615 100.889 91.2679V84.3262H96.2787V91.2679C89.8637 90.3632 76.0942 82.7596 71.5146 77.9828C68.0689 74.3768 66.0191 71.7278 66.0061 64.3811C66.0061 64.0746 66.0107 63.7569 66.0188 63.4342V37.4377L66.0174 37.4379ZM67.1122 38.331L77.4742 56.0176V43.2393H85.5772V69.886L95.3791 86.5819V84.1783H94.7242V53.1391H95.3791V38.3308H67.1127L67.1122 38.331ZM101.789 38.331V53.1393H102.447V84.1784H101.789V86.5821L111.594 69.8861V43.2394H119.694V56.0178L130.062 38.3312H101.789L101.789 38.331ZM66.9194 40.209V62.8556C66.7331 70.9692 68.6284 73.9853 72.3867 77.5784C76.2373 81.2542 88.3544 88.6132 95.4078 90.439V88.9189C95.4078 88.9189 85.9561 72.8138 85.8653 72.6088C85.7309 72.3316 85.5806 72.525 85.5806 72.7925V73.5874H77.4776V58.187L66.9194 40.2085L66.9194 40.209ZM130.256 40.209L119.695 58.1875V73.5879H111.595V72.793C111.595 72.5254 111.44 72.332 111.307 72.6093C111.217 72.8136 101.768 88.9193 101.768 88.9193V90.4394C108.819 88.6137 120.938 81.2547 124.786 77.5789C128.547 73.9857 130.441 70.9697 130.256 62.856V40.2094L130.256 40.209ZM78.3708 44.1296V72.7139H84.686V72.4796V44.1304H78.3708V44.1296ZM112.489 44.1296V72.7139H112.723H118.804V44.1296H112.489H112.489ZM112.957 44.5951H118.332V72.2455H112.957V44.5951ZM78.8391 44.5984H84.2147V72.2455H78.8391V44.5984V44.5984ZM100.658 52.6232V52.8575V52.6232ZM95.4819 53.8994V83.4242H101.794V83.1898V53.9002H95.4819V53.8994ZM101.319 54.3681V82.9524H95.9533V54.3714L101.319 54.3681V54.3681ZM84.4525 72.2445V72.4788V72.2445ZM64.9743 72.9595C65.2862 73.7055 65.6731 74.4634 66.1449 75.2333C65.8689 75.0436 65.523 74.9009 65.1103 74.8441C64.1877 74.5977 63.8143 74.1307 63.8067 73.8048V73.7794H63.8004C63.8004 73.7785 63.8003 73.7772 63.8004 73.7762C63.786 73.4725 64.1453 73.0944 64.9742 72.9591L64.9743 72.9595ZM132.192 72.9628C133.018 73.0969 133.376 73.4674 133.366 73.7703H133.363C133.361 73.7825 133.36 73.7953 133.36 73.8083C133.348 74.1308 132.971 74.6001 132.025 74.8502C131.627 74.9039 131.29 75.0471 131.018 75.2366C131.491 74.4663 131.88 73.7091 132.192 72.9628L132.192 72.9628ZM63.7334 74.6215C64.0216 74.9101 64.4519 75.1505 65.0243 75.3024C65.8683 75.4142 66.2935 75.8874 66.274 76.1923C66.274 76.1979 66.268 76.2054 66.2677 76.2113L66.2645 76.208C66.2646 76.2081 66.2463 76.2748 66.2456 76.2777C66.1792 76.5627 65.7699 76.9385 64.5148 76.9459C64.1345 76.9459 63.6631 76.8949 63.1416 76.8097C63.3069 76.5033 63.6019 75.8207 63.7334 74.6224L63.7334 74.6215ZM133.432 74.628C133.567 75.8241 133.864 76.503 134.03 76.81C133.509 76.8929 133.038 76.943 132.653 76.943C131.378 76.937 130.977 76.546 130.92 76.2621C130.919 76.2605 130.904 76.2115 130.904 76.2114H130.9C130.9 76.2056 130.894 76.1981 130.894 76.1924C130.878 75.8876 131.304 75.4158 132.119 75.312C132.703 75.1564 133.139 74.9156 133.432 74.628L133.432 74.628ZM130.438 76.1291C130.436 76.1509 130.423 76.1703 130.423 76.1924C130.424 76.2443 130.458 76.2854 130.467 76.3349L130.451 76.3412H130.448C130.455 76.3518 131.163 78.8217 131.451 79.5968C131.214 79.6023 130.989 79.6221 130.752 79.6221C129.558 79.6221 128.478 79.5447 127.6 79.4416C128.758 78.3142 129.687 77.2089 130.438 76.129L130.438 76.1291ZM66.7324 76.1417C67.4827 77.2182 68.4105 78.318 69.5641 79.4417C68.6842 79.5445 67.6063 79.6254 66.4191 79.6254C66.1803 79.6254 65.957 79.6056 65.7199 79.6C66.0011 78.835 66.7135 76.3518 66.7165 76.3412L66.7007 76.338C66.7104 76.2875 66.7432 76.2453 66.745 76.1923C66.7445 76.1746 66.7337 76.1592 66.7323 76.1417L66.7324 76.1417ZM61.4708 77.0759C61.8094 77.0759 62.1843 77.112 62.5877 77.1963C63.3426 77.3503 63.9783 77.4148 64.5146 77.4148C65.1469 77.4148 65.6279 77.3065 65.9953 77.1361C65.7353 78.0328 65.3791 79.2359 65.2365 79.5845C64.291 79.5456 63.389 79.4742 62.7306 79.3267C60.3817 79.0689 59.5737 78.3068 59.6142 77.9306C59.6158 77.5917 60.2305 77.0788 61.4715 77.0756L61.4708 77.0759ZM135.703 77.0759C136.944 77.0759 137.554 77.5906 137.554 77.9278C137.6 78.3056 136.789 79.0715 134.466 79.3244C133.789 79.4741 132.883 79.5422 131.938 79.5809C131.794 79.234 131.438 78.0327 131.176 77.1361C131.543 77.3053 132.022 77.4148 132.653 77.4148C133.191 77.4148 133.827 77.3503 134.587 77.1995C134.993 77.1152 135.368 77.076 135.704 77.076L135.703 77.0759ZM59.4621 78.6372C59.9387 79.175 60.967 79.5854 62.6514 79.79C63.6299 80.0089 65.0313 80.094 66.4228 80.094C67.8029 80.094 69.0721 79.9964 70.0076 79.8596C70.6637 80.4725 71.3933 81.0915 72.1908 81.7186C71.4163 81.3732 70.6728 81.1929 70.0108 81.1929C68.6459 81.1929 67.5751 81.8856 67.3595 82.9728L67.3152 82.9632C66.9709 84.8113 66.2333 86.5182 65.6319 87.7229C65.113 87.8066 64.6025 87.8559 64.1068 87.8559C61.0484 87.8624 58.4772 86.3731 57.9815 85.9305C57.5587 85.577 57.2283 85.2568 57.238 84.8157C57.238 84.5433 57.3557 84.1705 57.7316 83.663C58.6613 82.3755 59.1982 80.07 59.4623 78.6372L59.4621 78.6372ZM137.707 78.6372C137.973 80.0703 138.51 82.3759 139.441 83.663C139.814 84.1705 139.935 84.5433 139.935 84.8189C139.943 85.2583 139.614 85.577 139.194 85.9305C138.694 86.3732 136.119 87.8592 133.062 87.856C132.563 87.856 132.051 87.8059 131.534 87.7198C130.934 86.509 130.206 84.8044 129.864 82.9631L129.813 82.9727C129.597 81.8857 128.528 81.1929 127.165 81.1929C126.499 81.1929 125.753 81.3756 124.979 81.7217V81.7154C125.774 81.09 126.498 80.4709 127.152 79.8597C128.087 79.9955 129.363 80.094 130.753 80.094C132.141 80.094 133.545 80.009 134.543 79.7868C136.208 79.5869 137.232 79.1767 137.707 78.6373L137.707 78.6372ZM70.0112 81.6612C70.6113 81.6612 71.3054 81.8253 72.0424 82.1584L70.3149 86.706C68.4918 85.4672 67.7745 84.2504 67.7805 83.3777C67.7854 82.3773 68.6293 81.6726 70.0112 81.6613V81.6612ZM127.165 81.6612C128.54 81.6758 129.392 82.3772 129.392 83.3776C129.397 84.2534 128.679 85.4753 126.845 86.7186L125.14 82.152C125.873 81.8224 126.566 81.6611 127.165 81.6611V81.6612ZM124.589 82.0285L126.44 87.0005C115.697 94.1183 102.714 94.6201 99.3951 94.6169C99.0583 94.6169 99.0017 94.6112 98.8762 94.6073C103.064 93.5187 116.373 88.3204 124.501 82.0983C124.532 82.0745 124.558 82.0523 124.589 82.0286L124.589 82.0285ZM72.5921 82.0381C72.618 82.058 72.6387 82.0784 72.6648 82.0983C80.7754 88.3034 94.032 93.498 98.2552 94.6106C98.1203 94.6143 98.0815 94.6169 97.7742 94.6169C94.4538 94.6202 81.4581 94.1184 70.713 86.9848L72.5938 82.0362L72.5921 82.0381ZM101.562 82.9533V83.1908V82.9533ZM129.689 84.2803C130.49 87.1825 132.005 89.5765 132.008 89.5879C132.155 89.9332 132.278 90.2292 132.283 90.6994C132.283 91.0497 132.204 91.5106 131.986 92.1689C130.653 95.6647 120.745 103.78 100.045 103.766C99.5625 103.766 99.0727 103.761 98.5835 103.753C98.0829 103.761 97.5981 103.766 97.1154 103.766C76.4222 103.785 66.5146 95.6632 65.1814 92.1593C64.9659 91.5123 64.8903 91.0513 64.8903 90.6962C64.8903 90.226 65.0163 89.9339 65.175 89.5562C65.1679 89.5732 66.6786 87.1856 67.4815 84.2865C67.8309 85.2425 68.7326 86.2818 70.3227 87.2981C81.2298 94.5962 94.3887 95.0854 97.7695 95.0854C98.296 95.0854 98.5857 95.0728 98.589 95.0728C98.5728 95.0728 98.858 95.0854 99.3926 95.0854C102.772 95.0854 115.942 94.5995 126.856 87.2949C128.441 86.2762 129.339 85.237 129.687 84.28L129.689 84.2803ZM69.9758 88.527C69.42 88.4972 68.9369 89.0659 68.9697 89.5974C68.9973 90.0838 69.0784 89.9438 69.2355 89.6892C69.3942 89.4395 69.8735 89.3159 70.3239 89.572C70.7775 89.8347 71.2396 89.5159 71.4534 89.1413C71.5976 88.8527 71.6265 88.8214 71.2604 89.0273C70.9008 89.2284 70.863 89.0738 70.5391 88.7803C70.354 88.6141 70.1612 88.5369 69.9759 88.527L69.9758 88.527ZM128.367 89.6639C128.311 89.688 128.264 89.7406 128.259 89.8127C128.216 90.3283 127.832 90.9846 127.228 91.45L127.187 91.469C127.164 91.4788 127.115 91.5492 127.199 91.6432C127.635 92.0259 127.999 93.5761 127.965 93.6637C127.92 93.7545 128.018 93.8263 128.174 93.7777C128.174 93.7777 129.118 93.5702 129.594 93.9107C129.594 93.9107 129.829 94.1358 129.876 93.7207C129.93 93.2975 130.517 92.4921 130.771 92.3494C130.771 92.3494 130.997 92.1188 130.699 91.9599C130.465 91.835 129.915 90.4421 129.93 90.2086C129.961 90.1097 129.973 89.9462 129.746 89.9932C129.249 90.0857 128.616 89.7591 128.531 89.6829C128.489 89.644 128.423 89.6398 128.367 89.6639L128.367 89.6639ZM72.6941 90.0186C72.5759 90.0364 72.3959 90.099 72.2607 90.1136C72.2607 90.1136 71.6252 90.196 70.9951 90.0565C70.7667 90.0095 70.7569 90.0258 70.6597 90.3226C70.245 91.3587 69.4063 92.9426 69.2929 93.0334C69.1827 93.1226 69.1221 93.1053 69.1188 93.1474C69.1156 93.1847 69.1659 93.2208 69.2517 93.2678C69.7005 93.3926 70.5357 93.1066 70.7641 92.4159C70.8305 92.2554 70.9125 92.3196 70.9255 92.4444C70.8785 92.9633 71.5135 93.2111 71.9379 93.0619C72.3834 92.8528 72.1495 92.8434 72.0328 92.8434C71.8125 92.7705 71.7894 92.7101 71.7829 92.5901C71.8363 91.9334 71.4943 91.9749 71.1849 92.0074C70.937 92.0382 70.9674 91.8928 71.0014 91.7825C71.2914 91.4144 71.4522 90.9626 71.5899 90.5443C71.6919 90.0092 71.929 90.2889 71.9031 90.5759C72.1283 91.8569 72.8944 91.8081 73.463 91.2568C73.7999 90.8498 73.5371 91.018 73.4092 91.0731C72.9556 91.2158 72.5098 90.7393 72.7479 90.1864C72.867 90.0275 72.8124 90.0007 72.6941 90.0186H72.6941ZM69.8688 90.0471C69.4993 90.0931 69.3559 90.3363 69.1822 90.5443C69.1822 90.5443 69.1151 90.7102 68.8721 90.6551C68.6145 90.5967 68.1056 90.7404 68.0052 91.2916C67.929 91.7327 68.016 91.6461 68.1634 91.5893C68.5019 91.4434 68.558 91.6628 68.5272 91.8363C68.5272 91.8363 68.2739 92.5716 67.8786 92.8846C67.7782 92.9316 67.7385 93.0321 67.9134 93.0872C68.0868 93.1326 68.743 93.2257 68.9196 92.9257C69.1933 92.389 69.9831 90.6653 70.4351 90.2972C70.5615 90.1951 70.5155 90.1112 70.3244 90.0755C70.1413 90.0386 69.9919 90.0317 69.8688 90.047L69.8688 90.0471ZM124.602 90.4493C124.281 90.4538 124.011 90.6316 123.957 91.0256C123.944 91.1472 123.764 91.2837 123.953 91.3518C124.167 91.4264 124.412 91.4514 124.624 91.393C124.854 91.3265 124.814 91.1437 124.934 90.9021C124.989 90.787 125.076 90.7261 125.076 90.6678C125.081 90.6061 125.005 90.5242 124.934 90.4999C124.822 90.4642 124.709 90.4477 124.602 90.4492L124.602 90.4493ZM125.279 91.9092C125.229 91.929 125.186 91.9779 125.165 92.0517C125.13 92.2009 124.943 92.6772 124.849 92.8117C124.776 92.9155 124.963 92.9669 124.963 92.9669C125.076 92.9361 125.218 92.8733 125.336 93.0176C125.456 93.1619 126.219 94.6549 126.219 94.6549C126.269 94.7603 126.067 95.0748 126.326 95.0634C126.634 95.0456 127.003 95.0951 127.171 95.1616C127.297 95.22 127.427 95.0463 127.427 94.9684C127.427 94.8841 127.576 94.3762 127.576 94.3762C127.587 94.2757 127.496 94.198 127.418 94.2369C127.343 94.2774 127.207 94.2861 127.152 94.2115C127.095 94.1288 126.149 92.4729 126.149 92.4729C126.193 92.374 126.158 92.2075 126.057 92.1784C125.904 92.1232 125.531 92.03 125.434 91.9408C125.385 91.8979 125.329 91.8893 125.279 91.9092V91.9092ZM73.6594 92.6819C73.6165 92.6643 73.5603 92.6775 73.5044 92.7262C73.391 92.8284 72.8924 92.9634 72.7482 93.0461C72.604 93.1207 72.6137 93.2349 72.7482 93.2171C72.8778 93.1895 73.1272 93.2969 72.9538 93.6098L72.2926 95.1964C72.1678 95.5385 72.1358 95.5258 71.8718 95.5226C71.7503 95.5015 71.6263 95.5749 71.7705 95.7063C71.9228 95.823 72.1042 96.2212 72.109 96.3428C72.1204 96.4725 72.2147 96.5035 72.2989 96.4727C72.3815 96.4467 72.9717 96.3577 73.0867 96.3301C73.2374 96.2961 73.3128 96.2564 73.1848 96.1591C73.073 96.0683 73.0494 96.0005 73.0203 95.8773C73.0203 95.8773 73.6902 94.2365 73.8619 93.8442C74.0401 93.455 74.1966 93.777 74.2258 94.0057C74.263 94.3348 75.0391 94.3862 75.3015 94.164C75.5574 93.95 75.4632 93.9346 75.3141 93.9265C75.2315 93.9265 75.1204 93.8446 75.0863 93.6225C75.0572 93.4036 74.5738 93.1504 74.1688 93.4293C74.023 93.5623 73.9411 93.5373 73.9346 93.3881C73.9282 93.2406 73.8178 92.9995 73.7416 92.8276C73.7344 92.7473 73.7023 92.6996 73.6594 92.6819L73.6594 92.6819ZM122.809 93.0651C122.687 93.0544 122.562 93.2212 122.505 93.518C122.424 93.9087 121.73 94.6083 121.594 94.6359C121.428 94.6667 121.49 94.9173 121.727 95.0032C121.961 95.0973 122.422 96.7167 122.366 96.84C122.285 96.994 122.372 97.1734 122.575 97.1345C122.681 97.1134 122.976 97.1345 123.144 97.1345C123.313 97.1345 123.43 97.0706 123.252 97.296C123.065 97.5246 122.724 97.8559 123.008 98.2207C123.3 98.5823 124.318 98.2168 124.498 97.9072C124.838 97.2732 124.207 98.1018 123.941 97.6349C123.854 97.4889 124.029 97.4186 124.217 97.391C124.649 97.3391 125.092 97.2575 125.621 96.669C126.15 96.082 125.698 95.4442 125.381 95.475C125.065 95.5042 125.077 95.4539 124.957 95.2755C124.839 95.0955 124.279 94.3791 124.242 93.578C124.221 93.4889 124.221 93.4414 124.052 93.4609C123.892 93.4755 123.078 93.3163 122.926 93.1347C122.889 93.0901 122.849 93.0686 122.809 93.065L122.809 93.0651ZM119.477 93.1633C119.159 93.1052 118.859 93.2287 118.734 93.613C118.69 93.7232 118.497 93.8243 118.67 93.9265C118.863 94.04 119.102 94.1107 119.313 94.088C119.564 94.0718 119.554 93.884 119.718 93.67C119.799 93.5678 119.89 93.5207 119.904 93.4704C119.916 93.4169 119.857 93.3096 119.797 93.2804C119.692 93.2237 119.583 93.1826 119.477 93.1632L119.477 93.1633ZM68.4422 93.3121C68.0571 93.3085 67.6141 93.4325 67.1481 93.8125C66.9019 94.0606 66.9923 94.0508 67.2304 94.0152C68.549 93.8173 69.1794 94.0993 69.5843 95.1046C69.6119 95.2083 69.612 95.2091 69.7805 95.2091C70.4738 95.2464 71.019 95.1425 71.2296 94.9431C71.4402 94.7469 71.1726 94.8385 71.1726 94.8385C70.1747 94.8661 69.9811 94.0746 69.7235 93.8347C69.5646 93.6847 69.0839 93.3181 68.4421 93.3121L68.4422 93.3121ZM117.575 93.3533C117.488 93.3377 117.38 93.3486 117.328 93.3786C117.218 93.4386 117.217 93.4638 117.126 93.5465C117.011 93.6729 117.02 93.71 116.825 93.6225C116.825 93.6225 116.746 93.5745 116.566 93.461C116.423 93.3637 116.177 93.2051 116.351 93.784C116.417 93.9721 117.917 98.4615 117.917 98.4615C117.946 98.562 117.78 98.8643 117.961 98.9049C118.267 98.9649 118.744 99.2462 118.891 99.3451C119.01 99.4213 119.171 99.2805 119.186 99.1994C119.204 99.1216 119.344 98.6484 119.344 98.6484C119.378 98.5495 119.31 98.4627 119.224 98.4805C119.144 98.5065 119.011 98.4922 118.964 98.4013C118.925 98.317 117.67 94.3941 117.626 94.3066C117.553 94.1639 117.58 93.7603 117.695 93.4895C117.728 93.4117 117.663 93.3689 117.575 93.3533V93.3533ZM81.2058 93.3744C80.8202 93.269 80.3796 93.5462 80.3683 93.8754C80.3618 94.0862 80.3124 94.1662 80.536 94.0527C80.6267 94.0057 80.8252 94.0059 80.7701 94.3156C80.7134 94.6123 80.719 95.4116 80.8081 95.8072C80.8324 95.8996 80.7495 95.9982 80.6815 96.0225C80.6815 96.0225 80.069 96.1558 79.6089 96.0764C79.5409 96.065 79.4111 96.0854 79.4792 96.3044C79.5132 96.4211 79.3502 97.4182 79.1849 97.7928C79.1849 97.7928 79.1441 97.9607 78.9951 98.0271C78.8866 98.0709 78.9222 98.2722 78.9951 98.2868C79.5038 98.4798 79.8259 98.7789 79.8146 99.2686C79.8146 99.4404 79.8743 99.4752 79.9569 99.4396C80.4364 99.1218 81.3894 99.0708 81.5579 99.1292C81.6632 99.1535 81.7617 99.1062 81.773 99.0089L82.3173 96.7194C82.34 96.6464 82.313 96.5929 82.2952 96.5864C82.0069 96.4129 81.7778 96.0846 81.713 95.8073C81.6417 95.4701 81.5002 94.6435 81.6054 93.9009C81.6087 93.7484 81.5791 93.6708 81.5548 93.6222C81.4564 93.4892 81.3351 93.4105 81.2068 93.3752L81.2058 93.3744ZM98.6802 93.7544L98.5694 94.2073L98.6802 93.7544ZM76.5014 94.0584C76.3983 94.0602 76.2896 94.0886 76.1819 94.1534C75.9227 94.3139 75.6304 94.3646 75.8054 94.4764C75.9236 94.5624 76.0015 94.5141 76.0015 94.7298C75.812 95.427 75.3941 96.6045 75.3941 96.6045C75.3584 96.6904 75.2583 96.8228 75.1125 96.8325C75.0104 96.8665 75.0573 96.9626 75.1821 97.0858C75.2938 97.1896 75.5346 97.4876 75.6124 97.6432C75.6853 97.7648 75.6938 97.9289 75.8623 97.7636C76.0259 97.6079 76.4262 97.5044 76.7356 97.5514C77.0563 97.6 77.1888 97.9809 77.2893 98.2354C77.3136 98.3992 77.316 98.4837 77.4601 98.3621C77.6092 98.2373 78.2411 98.0144 78.3998 97.9884C78.5343 97.9609 78.4766 97.8445 78.3745 97.8364C78.2401 97.8234 77.8444 97.7737 77.9189 97.3424C77.9967 96.9078 78.361 95.6744 78.5327 95.6322C78.7077 95.5998 78.7763 95.6196 78.7763 95.6196C78.9513 95.6293 78.8371 95.4955 78.808 95.4517C78.7821 95.4096 78.4444 94.8184 78.4315 94.6822C78.4169 94.5444 78.2859 94.6094 78.2859 94.6094C78.0446 94.7212 77.6894 94.6882 77.5582 94.7709C77.463 94.8312 77.4233 94.8736 77.4158 94.9102C77.4132 94.9208 77.4293 94.929 77.4317 94.9387C77.4549 95.0276 77.6348 95.0983 77.5772 95.3536C77.4558 95.8643 77.3391 96.366 77.0362 96.9497C76.7236 97.5367 76.2329 97.2664 76.356 96.7945C76.4629 96.3924 76.5823 95.9764 76.7135 95.5499C76.8496 95.143 77.0391 94.6812 77.052 94.5207C77.0655 94.2884 76.8109 94.0528 76.5015 94.0583L76.5014 94.0584ZM122.932 94.1407C123.114 94.1527 123.292 94.2014 123.407 94.2484C123.537 94.2938 124.167 95.2887 124.138 95.8984C124.138 95.9373 123.363 96.8005 123.144 96.0758C123.005 95.6218 122.829 95.2355 122.632 94.8058C122.552 94.6421 122.297 94.3456 122.423 94.2548C122.562 94.1535 122.75 94.1289 122.932 94.1408L122.932 94.1407ZM119.635 94.4796C119.583 94.4892 119.53 94.5295 119.496 94.5968C119.428 94.7362 119.162 95.1737 119.044 95.2872C118.943 95.3763 119.113 95.455 119.113 95.455C119.235 95.4518 119.391 95.4116 119.484 95.5753C119.569 95.744 120.161 97.5989 120.161 97.5989C120.195 97.7027 119.927 97.9748 120.186 98.0138C120.491 98.0575 120.848 98.1696 121.002 98.2766C121.116 98.3593 121.277 98.2088 121.293 98.1309C121.303 98.0499 121.547 97.5862 121.547 97.5862C121.574 97.4792 121.503 97.3908 121.417 97.4184C121.336 97.4378 121.206 97.4252 121.161 97.3392C121.12 97.2533 120.382 95.2015 120.382 95.2015C120.442 95.1107 120.44 94.943 120.351 94.8911C120.203 94.8133 119.859 94.6514 119.781 94.5428C119.742 94.4893 119.688 94.4699 119.636 94.4795L119.635 94.4796ZM111.937 94.8026C111.869 94.7724 111.777 94.8148 111.665 94.9388C111.437 95.1755 109.954 96.3372 109.758 96.3956C109.562 96.4507 109.422 96.6414 109.422 96.9624L109.989 100.465C110.063 100.903 110.004 101.585 109.4 101.098C108.692 100.531 107.961 100.873 107.922 101.526C107.922 101.526 107.937 101.702 108.011 101.808C108.011 101.808 108.205 102.078 108.299 102.181C108.43 102.318 108.568 102.451 108.72 102.425C108.883 102.404 108.895 102.36 108.783 102.305C108.472 102.091 108.619 101.544 109.08 101.567C110.114 101.664 110.998 101.754 111.061 101C111.045 100.846 110.682 98.7422 110.682 98.7422C110.703 98.5006 110.989 98.424 111.216 98.5586C111.441 98.6931 111.501 98.7063 111.764 99.0906C112.054 99.4895 112.211 99.8433 112.513 100.696C112.662 101.121 113.271 100.976 113.434 100.807C113.572 100.672 113.859 100.392 113.89 100.253C114.002 99.7583 113.997 99.773 113.662 100.044C113.432 100.217 113.298 100.159 113.165 99.9773C112.997 99.3303 112.335 98.1713 111.991 98.0043C111.633 97.8373 111.949 97.7251 112.067 97.6116C112.466 97.2419 112.114 95.4391 112.074 95.1034C112.052 94.9364 112.006 94.8328 111.938 94.8026L111.937 94.8026ZM83.9043 95.0021C83.8033 95.026 83.7014 95.0812 83.6005 95.17C83.5082 95.2478 83.2849 95.2324 83.3886 95.4075C83.4922 95.5988 83.6592 95.7789 83.8568 95.8762C84.0771 95.9865 84.1675 95.8231 84.4105 95.7242C84.5353 95.6788 84.6374 95.6855 84.6763 95.6482C84.7168 95.6076 84.7166 95.4849 84.6826 95.4265C84.4979 95.1237 84.2072 94.9305 83.9043 95.0021H83.9043ZM86.9164 95.3568C86.8498 95.3562 86.7674 95.4232 86.7139 95.5658C86.6524 95.7393 85.9147 97.1067 85.1161 97.0986C84.9347 97.0986 84.8376 97.3198 85.0433 97.3425C85.4483 97.3862 85.7806 97.5261 85.7806 97.5261C85.8211 97.5423 85.8154 97.6876 85.8154 97.6876L85.3218 99.8792C85.3056 99.9862 84.9229 100.1 85.1351 100.253C85.391 100.433 85.6566 100.694 85.7457 100.855C85.8121 100.979 86.0262 100.915 86.0748 100.855C86.1218 100.786 86.543 100.481 86.543 100.481C86.6159 100.4 86.5909 100.291 86.5083 100.269C86.4192 100.252 86.2866 100.186 86.2931 100.085C86.2931 99.9877 86.6455 97.9091 86.6601 97.8523C86.6682 97.7907 86.6822 97.7683 86.7519 97.7731C86.7519 97.7731 87.1669 97.8722 87.2106 97.8998C87.2106 97.8998 87.3554 97.9018 87.3214 98.226C87.3052 98.4368 87.5046 98.4057 87.5175 98.2386C87.5175 98.2386 87.599 97.8309 87.7011 97.5261C87.8096 97.2261 87.7179 97.093 87.5397 97.0606C87.5397 97.0606 87.0784 97.0423 86.9828 96.9434C86.9018 96.8623 86.9032 96.7558 86.9259 96.5855C86.9259 96.5855 87.0093 95.8334 87.0271 95.5626C87.0344 95.4256 86.983 95.3574 86.9164 95.3568L86.9164 95.3568ZM109.665 95.531C109.639 95.5218 109.58 95.5936 109.457 95.759C109.207 96.0995 109.114 95.9761 108.697 95.835C107.753 95.5221 107.264 96.5882 107.599 97.2189C107.818 97.647 107.837 97.4951 107.881 97.1968C107.923 96.8936 108.309 96.5922 108.827 96.6457C109.345 96.6944 109.634 96.2203 109.684 95.7939C109.688 95.6301 109.692 95.5403 109.665 95.531V95.531ZM115.595 96.101C115.517 96.0681 115.413 96.1686 115.373 96.2404C115.325 96.3296 114.502 97.1723 113.823 97.3393C113.711 97.3863 113.789 97.5104 113.883 97.5736C113.964 97.6336 114.556 99.3963 114.528 99.5909C114.504 99.7806 114.411 100.013 114.627 100.031C114.831 100.052 115.588 100.28 115.667 100.449C115.75 100.614 116.014 100.63 116.028 100.392C116.035 100.155 116.475 99.575 116.595 99.5085C116.724 99.442 116.816 99.0505 116.481 99.271C116.149 99.4899 115.757 99.315 115.661 99.1918C115.561 99.0605 115.376 98.4666 115.376 98.4666C115.786 98.1812 116.36 97.5726 116.506 97.4754C116.652 97.3651 116.48 97.2168 116.439 97.1682C116.389 97.1163 115.724 96.3794 115.661 96.1865C115.644 96.1402 115.621 96.1119 115.595 96.101L115.595 96.101ZM89.7484 96.2182C89.5569 96.1746 89.3503 96.2265 89.1599 96.4146C89.0757 96.4908 88.8537 96.4912 88.9606 96.6679C89.0805 96.8544 89.2643 97.0175 89.4668 97.0986C89.6985 97.191 89.776 97.0253 90.0142 96.9086C90.1292 96.8518 90.2332 96.8606 90.2705 96.8136C90.3077 96.7747 90.2969 96.6534 90.2483 96.5951C90.1147 96.4013 89.94 96.2618 89.7484 96.2182V96.2182ZM84.0138 96.4306C83.9644 96.4124 83.8998 96.4233 83.8366 96.4655C83.7038 96.5433 83.2535 96.7798 83.0931 96.8106C82.9586 96.8398 83.0678 97.0007 83.0678 97.0007C83.1714 97.0574 83.3274 97.099 83.3177 97.2952C83.3064 97.4816 82.8779 99.1034 82.8779 99.1034C82.8585 99.2137 82.4937 99.3085 82.6881 99.4739C82.9278 99.6701 83.1816 99.9547 83.2513 100.117C83.3145 100.248 83.5252 100.197 83.5803 100.145C83.6354 100.085 84.0802 99.8001 84.0802 99.8001C84.158 99.7239 84.1374 99.6154 84.0612 99.5911C83.9721 99.5635 83.8728 99.4888 83.8809 99.3948C83.8874 99.2975 84.2859 97.4281 84.2859 97.4281C84.3815 97.386 84.4626 97.2385 84.4124 97.1526C84.3298 97.0067 84.1153 96.6853 84.1024 96.5604C84.0975 96.4939 84.0632 96.4488 84.0138 96.4306L84.0138 96.4306ZM102.852 96.6365C102.788 96.6524 102.726 96.7374 102.71 96.8898C102.689 97.0682 102.314 98.5813 101.536 98.7645C101.355 98.8099 101.321 99.0502 101.523 99.021C101.928 98.9659 102.188 98.9957 102.188 98.9957C102.236 98.9989 102.257 99.1382 102.257 99.1382L102.473 101.646C102.484 101.753 102.141 101.958 102.378 102.049C102.674 102.157 102.993 102.351 103.118 102.489C103.212 102.593 103.4 102.478 103.434 102.406C103.468 102.332 103.805 101.928 103.805 101.928C103.847 101.831 103.807 101.73 103.716 101.732C103.63 101.732 103.481 101.701 103.457 101.608C103.437 101.513 103.219 99.1776 103.213 99.1192C103.21 99.0559 103.216 99.0307 103.279 99.021C103.279 99.021 103.716 99.0095 103.763 99.0306C103.763 99.0306 103.903 98.9929 103.953 99.3156C103.982 99.5231 104.171 99.4396 104.146 99.2839C104.146 99.2839 104.112 98.867 104.15 98.5492C104.18 98.233 104.052 98.1198 103.874 98.1312C103.874 98.1312 103.423 98.2262 103.311 98.1597C103.209 98.0981 103.18 97.9976 103.162 97.8208C103.162 97.8208 103.058 97.0766 103.007 96.8074C102.981 96.6745 102.917 96.6206 102.852 96.6364L102.852 96.6365ZM109.253 96.76C109.215 96.7409 109.15 96.7502 109.066 96.7916C108.229 97.0867 108.383 97.7901 108.443 98.2262C108.443 98.2262 108.488 98.4014 108.259 98.4923C108.012 98.6025 107.799 98.9999 107.889 99.3663C107.991 99.8008 108.109 99.6481 108.19 99.5151C108.391 99.2038 108.555 99.345 108.63 99.5088C108.63 99.5088 108.854 100.112 108.715 100.598C108.657 100.697 108.683 100.804 108.854 100.741C109.019 100.69 109.613 100.382 109.579 100.031C109.495 99.4412 109.123 97.4684 109.281 96.9025C109.301 96.8255 109.291 96.779 109.253 96.76V96.76ZM92.9303 97.6372C92.8679 97.6319 92.8022 97.6524 92.7658 97.71C92.4872 98.1494 91.8408 98.5495 91.0794 98.6728H91.0415C91.0188 98.6647 90.9394 98.708 90.9718 98.8279C91.1727 99.376 90.7647 100.91 90.6934 100.978C90.6173 101.03 90.6625 101.144 90.8326 101.175C90.8326 101.175 91.7647 101.436 92.0223 101.96C92.0223 101.96 92.1146 102.272 92.3608 101.925C92.6038 101.573 93.4945 101.14 93.7909 101.133C93.7909 101.133 94.099 101.042 93.9143 100.76C93.762 100.538 93.9369 99.0446 94.0535 98.8565C94.1297 98.7738 94.217 98.6379 93.9934 98.5747C93.5107 98.4255 93.1036 97.8379 93.0695 97.7228C93.0509 97.6733 92.9927 97.6426 92.9303 97.6373L92.9303 97.6372ZM89.5069 97.6435C89.4552 97.628 89.3912 97.6393 89.3329 97.6847C89.2065 97.7739 88.7734 98.0478 88.6146 98.0932C88.4883 98.1289 88.6051 98.2801 88.6051 98.2801C88.712 98.3271 88.8707 98.3612 88.8772 98.5493C88.8804 98.739 88.5987 100.449 88.5987 100.449C88.5858 100.556 88.2237 100.68 88.431 100.833C88.6919 101.011 88.9526 101.279 89.0417 101.431C89.1081 101.556 89.3222 101.499 89.3676 101.434C89.4194 101.365 89.8422 101.061 89.8422 101.061C89.9118 100.98 89.8884 100.869 89.8042 100.855C89.7232 100.835 89.6144 100.77 89.6144 100.671C89.6144 100.567 89.8485 98.6222 89.8485 98.6222C89.9457 98.5622 90.0159 98.4168 89.9592 98.3308C89.8653 98.193 89.6355 97.8889 89.6112 97.7608C89.599 97.7 89.5584 97.6592 89.5068 97.6436L89.5069 97.6435ZM99.9448 98.3244C99.8839 98.3319 99.8176 98.3726 99.7803 98.4099C99.7058 98.4845 98.6813 99.0694 97.9864 99.0369C97.8681 99.0548 97.9072 99.1915 97.9768 99.2839C98.0384 99.3634 98.1258 101.223 98.0465 101.403C97.9655 101.581 97.8253 101.771 98.0148 101.849C98.2141 101.93 98.8795 102.353 98.907 102.536C98.9378 102.721 99.1948 102.809 99.2677 102.581C99.3455 102.355 99.9195 101.924 100.056 101.89C100.192 101.861 100.39 101.512 100.011 101.631C99.6387 101.752 99.2991 101.474 99.2424 101.33C99.1841 101.172 99.1665 100.557 99.1665 100.557C99.6379 100.392 100.363 99.9757 100.533 99.9141C100.699 99.8541 100.582 99.6575 100.549 99.5911C100.514 99.5327 100.081 98.6377 100.065 98.4415C100.059 98.3434 100.006 98.3168 99.9449 98.3243L99.9448 98.3244ZM99.2741 99.113C99.3278 99.1089 99.3785 99.1469 99.3785 99.2206C99.3785 99.3666 99.4822 99.7334 99.581 99.8793C99.6717 99.9961 99.7055 100.144 99.4544 100.196C99.3151 100.23 99.073 100.381 99.0811 100.073C99.0843 99.8325 99.1409 99.366 99.1538 99.246C99.1644 99.1625 99.2204 99.117 99.2741 99.113L99.2741 99.113Z" fill="white"/>
<path d="M110.696 13.9393C109.994 13.9723 109.222 14.2887 108.74 15.2915C108.507 15.752 108.181 16.3369 109.183 15.5829C109.684 15.304 110.86 15.3108 111.332 15.5037C111.806 15.6902 113.268 15.8287 114.132 14.9337C114.627 14.4619 114.562 14.3946 114.11 14.56C112.885 14.6573 112.624 14.5824 112.227 14.3003C112.027 14.1592 111.397 13.9063 110.696 13.9393ZM76.1097 14.408C75.408 14.4412 74.6339 14.7597 74.1511 15.7634C73.9146 16.2255 73.5882 16.8006 74.5909 16.0579C75.0834 15.7742 76.2726 15.786 76.7456 15.9693C77.2138 16.1622 78.6726 16.3054 79.5457 15.4055C80.0414 14.9353 79.9755 14.8649 79.5236 15.0287C78.3005 15.1276 78.0379 15.0545 77.641 14.7658C77.4426 14.6248 76.8113 14.3748 76.1097 14.408ZM86.0477 14.5157C85.1535 14.5157 83.1082 15.1936 82.3776 15.5227C81.6988 15.8113 81.1733 16.1314 80.7829 16.3746C79.8887 16.947 79.4344 17.322 79.4636 18.4489L79.4668 25.169C79.4506 25.3927 79.6546 25.4993 79.8085 25.4571C79.8085 25.4571 81.6645 24.7354 81.6531 24.5198V16.5551C81.7325 15.9325 82.7191 15.5821 83.542 15.6145C83.7056 15.6291 85.1867 19.1532 86.1555 20.9221C86.332 21.24 86.4958 21.6321 86.6206 22.0116C86.9462 22.9439 87.1573 23.8637 86.937 24.8301C86.7766 25.5581 86.6024 26.2524 86.2282 26.9107C86.0274 27.2756 85.6562 27.6672 85.4278 27.8861C85.0519 28.2509 84.6516 28.7277 84.2223 28.3548C83.3362 27.5895 82.4645 26.9964 81.3273 26.7872C79.1079 26.3689 76.8167 26.942 75.3474 28.6462C75.3182 28.6786 75.2168 29.0192 75.6606 28.7792C77.4491 27.9539 79.6167 28.179 80.5142 28.6557C81.5169 28.9848 82.3133 29.6655 83.2383 30.293C83.3257 30.3546 83.4956 30.3546 83.5863 30.293C86.2171 28.5678 88.6919 26.7119 89.2119 23.5096C89.5229 21.6628 89.142 20.0198 88.076 18.4616C87.2904 17.3103 86.6697 16.2311 86.396 14.8513C86.3603 14.6956 86.1401 14.4897 86.0477 14.5157ZM121.832 15.149C121.763 15.1435 121.693 15.1617 121.633 15.1965C121.465 15.2922 120.173 16.1888 120.054 16.2796C119.933 16.3737 119.978 16.5387 120.118 16.6311C120.265 16.7284 120.541 16.9383 120.541 16.9383C120.541 16.9383 120.731 16.9628 120.731 17.2012V26.7304C120.731 26.7304 120.801 27.0622 120.541 27.2276C119.433 28.0885 118.952 28.4413 118.532 28.0699C117.651 27.3014 116.775 26.7132 115.634 26.4992C115.558 26.4862 115.571 26.4805 115.489 26.4675L115.495 16.2512C115.519 15.802 115.367 15.6863 115.074 15.8046C113.331 16.6072 113.175 16.7994 113.201 17.9328V26.4453C111.845 26.6512 110.586 27.2894 109.654 28.3675C109.63 28.3983 109.525 28.7406 109.971 28.4974C111.761 27.6721 113.927 27.8955 114.824 28.3739C115.825 28.703 116.622 29.3853 117.548 30.008C117.636 30.0663 117.802 30.0663 117.893 30.008C118.755 29.4453 119.831 28.7735 120.595 28.0699C121.039 27.671 121.158 28.1427 121.158 28.1427C121.395 28.7523 122.175 29.7307 122.604 30.008C122.945 30.2285 123.256 30.0555 123.256 30.0555C123.663 29.7734 124.151 29.2296 124.458 29.0643C124.766 28.8973 124.527 28.5767 124.503 28.5702C123.749 28.2168 123.164 26.7275 123.117 25.4287L123.104 17.7173C123.077 17.5308 123.14 17.3659 123.351 17.2233C123.565 17.079 123.466 16.8233 123.373 16.7292C123.276 16.6319 122.147 15.3592 122.029 15.2408C121.972 15.184 121.902 15.1545 121.832 15.149ZM111.103 17.2961C111.038 17.2822 110.954 17.3304 110.885 17.388C110.462 17.5307 109.332 18.2366 108.908 18.7814C108.908 18.7814 108.695 19.0142 108.715 19.418V21.7076C108.715 21.7076 108.763 22.1543 108.272 22.0116C107.536 21.8024 106.921 22.365 106.712 22.6228C106.5 22.8871 106.713 23.116 107.069 22.8128C107.892 22.6215 108.715 22.9563 108.715 23.5919V26.9614C108.715 27.1316 108.81 27.2239 109.047 27.1039C109.755 26.872 110.841 26.0006 111.024 25.7168C111.215 25.4298 111.214 25.3604 111.214 25.0296C111.214 25.0296 111.238 17.5716 111.214 17.5716C111.214 17.3868 111.168 17.3101 111.103 17.2961ZM77.1736 17.5305C77.1095 17.5157 77.0274 17.564 76.9553 17.6223C76.5325 17.765 75.3992 18.471 74.9715 19.0126C74.9715 19.0126 74.7637 19.2502 74.788 19.6523V21.9388C74.788 21.9388 74.8328 22.3934 74.3419 22.2524C73.6032 22.04 72.999 22.5994 72.7884 22.8572C72.5762 23.115 72.7865 23.3569 73.1396 23.0504C73.9626 22.8591 74.7912 23.1891 74.7912 23.8263V27.2021H74.7879C74.7879 27.3675 74.8821 27.4599 75.117 27.3383C75.8216 27.1048 76.9096 26.2351 77.1007 25.9449C77.2854 25.6644 77.2843 25.5979 77.2843 25.2672C77.2843 25.2672 77.3069 17.8155 77.2843 17.8155C77.2843 17.625 77.2378 17.5453 77.1736 17.5305ZM128.372 90.6249C128.372 90.6249 128.296 90.5997 128.29 90.6597C128.287 90.7213 128.18 90.9629 128.129 90.9986C128.086 91.018 128.086 91.0736 128.135 91.1158C128.388 91.4481 128.765 92.6207 128.793 92.7277C128.814 92.8347 128.874 92.8768 128.945 92.8639C129.157 92.8282 129.725 92.9636 129.796 92.9652C129.828 92.9733 130.032 92.8904 129.885 92.7023C129.774 92.5564 129.168 91.2483 129.03 90.8623C129.014 90.8186 129.005 90.8081 128.935 90.8243C128.858 90.847 128.542 90.7676 128.372 90.6249ZM111.133 95.7551C111.091 95.7308 110.954 95.7699 110.883 95.8153C110.828 95.8574 110.305 96.2005 110.31 96.6545C110.31 97.1361 110.263 97.0965 110.528 98.2348C110.577 98.4375 111.058 98.1147 111.079 98.1018C111.338 97.8553 111.377 97.8185 111.433 97.4747C111.454 96.6948 111.262 95.8135 111.133 95.7551ZM80.9271 96.2206C80.4346 96.185 80.4352 96.6097 80.3639 96.9015C80.2586 97.3199 80.1055 97.9122 80.193 98.2316C80.2773 98.5478 80.3117 98.8036 80.6486 98.8555C80.8171 98.8798 81.0658 98.5727 81.0853 98.4754C81.2294 97.7928 81.3862 97.3287 81.4396 96.6672C81.4753 96.21 81.0648 96.232 80.9271 96.2206ZM115.079 97.0599C115.028 97.0777 114.983 97.1331 114.997 97.2182C115.021 97.335 115.096 97.8068 115.155 98.0289C115.231 98.3289 115.422 98.1191 115.547 98.0543C115.767 97.9246 115.702 97.7951 115.579 97.7059C115.449 97.5924 115.244 97.261 115.209 97.1264C115.189 97.0607 115.13 97.042 115.079 97.0599ZM92.3898 98.4786C92.3623 98.5321 92.1605 98.7035 92.0892 98.7035C92.0439 98.7035 92.0207 98.7417 92.0418 98.8017C92.1033 99.2167 91.8921 100.438 91.8646 100.54C91.8338 100.651 91.8647 100.708 91.9279 100.734C92.132 100.805 92.5783 101.182 92.6366 101.224C92.6609 101.242 92.8763 101.268 92.8391 101.025C92.8083 100.855 92.8914 99.4146 92.953 99.0044C92.9578 98.9525 92.9564 98.9462 92.8771 98.9284C92.8009 98.9138 92.5689 98.6909 92.4879 98.4882C92.4879 98.4882 92.4238 98.4284 92.3898 98.4786Z" fill="#163C9C"/>
</svg>
