<svg width="300" height="179" viewBox="0 0 300 179" fill="none" xmlns="http://www.w3.org/2000/svg">
<path d="M0.565674 177.879V101.758H26.0707C47.5253 101.758 65.0303 118.859 65.0303 139.818C65.0303 160.778 47.4748 177.879 26.0707 177.879H0.565674ZM26.0707 163.879C39.7273 163.879 50.8283 153.081 50.8283 139.828C50.8283 126.576 39.7172 115.778 26.0707 115.778H14.7576V163.879H26.0707Z" fill="#333333"/>
<path d="M79.3232 149.333V101.768H93.5152V149.333C93.4626 151.385 93.8212 153.426 94.5699 155.337C95.3186 157.247 96.4422 158.989 97.8745 160.458C99.3069 161.928 101.019 163.095 102.91 163.893C104.8 164.69 106.832 165.101 108.884 165.101C110.936 165.101 112.967 164.69 114.858 163.893C116.749 163.095 118.461 161.928 119.893 160.458C121.325 158.989 122.449 157.247 123.198 155.337C123.947 153.426 124.305 151.385 124.253 149.333V101.768H138.556V149.333C138.565 153.223 137.806 157.075 136.322 160.67C134.838 164.266 132.659 167.532 129.909 170.283C125.763 174.42 120.483 177.236 114.738 178.376C108.992 179.515 103.038 178.928 97.6263 176.686C92.2145 174.445 87.588 170.651 84.3305 165.783C81.073 160.915 79.3306 155.191 79.3232 149.333V149.333Z" fill="#333333"/>
<path d="M210.808 177.879L182.525 138.111L170.354 149.657V177.879H156.162V101.768H170.354V130.303L200.667 101.768H221.162L193.303 128.162L228.626 177.879H210.808Z" fill="#333333"/>
<path d="M239.293 177.879V101.768H289.354V115.657H253.596V126.879H284.768V141.101H253.596V163.768H288.394V177.869H239.293V177.879Z" fill="#333333"/>
<path d="M45.1515 78.4647V41.5859H14.303V78.4647H0V2.35358H14.303V27.5758H45.1515V2.35358H59.4444V78.4647H45.1515Z" fill="#333333"/>
<path d="M166.596 76.5353C161.894 74.5059 157.62 71.6027 154 67.9798C150.286 64.3912 147.374 60.0572 145.455 55.2626C143.321 50.3729 142.231 45.0923 142.253 39.7576C142.287 29.2134 146.495 19.1119 153.957 11.6616C161.419 4.21143 171.526 0.0186336 182.071 0C188.253 0.0184101 194.347 1.47663 199.868 4.2591C205.389 7.04156 210.186 11.0718 213.879 16.0303L215.576 18.1818L204.162 26.6263L202.566 24.4848C200.206 21.2735 197.118 18.6685 193.555 16.8843C189.991 15.1001 186.055 14.1877 182.071 14.2222C177.696 14.2171 173.393 15.3305 169.57 17.4569C165.747 19.5832 162.531 22.6518 160.228 26.371C157.924 30.0902 156.61 34.3366 156.411 38.7066C156.211 43.0767 157.132 47.4252 159.086 51.3392C161.04 55.2531 163.962 58.6024 167.575 61.0688C171.188 63.5352 175.372 65.0368 179.729 65.431C184.086 65.8251 188.471 65.0987 192.468 63.3208C196.465 61.5428 199.941 58.7724 202.566 55.2727L204.162 53.2525L215.475 61.6162L213.768 63.7576C210.102 68.7111 205.324 72.7337 199.818 75.5007C194.312 78.2677 188.233 79.7017 182.071 79.6869C176.759 79.6805 171.5 78.6267 166.596 76.5859V76.5353Z" fill="#333333"/>
<path d="M282.172 78.4647L253.889 38.697L241.727 50.2425V78.4647H227.525V2.35358H241.727V30.8889L272.03 2.35358H292.525L264.667 28.7576L300 78.4647H282.172Z" fill="#333333"/>
<path d="M110.667 2.35358H97.7576L68.5151 78.4647H83.7778L91.6768 57.9394L104.263 25.3334L116.859 57.9394L124.657 78.4647H140.02L110.667 2.35358Z" fill="#333333"/>
</svg>
