<svg width="453" height="154" viewBox="0 0 453 154" fill="none" xmlns="http://www.w3.org/2000/svg">
<path d="M182.389 127.25V115.5H168.889V39H182.389V27.25H156.389V127.25H182.389ZM192.375 121L221.25 55.25L217.875 45.875C216.542 42.2917 215.084 39.5 213.5 37.5C211.917 35.4167 209.334 34.375 205.75 34.375C204.25 34.375 202.917 34.4583 201.75 34.625C200.667 34.7917 199.667 34.9583 198.75 35.125V26.25C199.917 26 201.209 25.7917 202.625 25.625C204.042 25.375 205.5 25.25 207 25.25C211.334 25.25 214.792 26 217.375 27.5C220.042 29 222.25 31.2917 224 34.375C225.834 37.4583 227.584 41.4167 229.25 46.25L250.875 106.5C252.459 111 254.542 113.25 257.125 113.25C257.792 113.25 258.459 113.167 259.125 113C259.875 112.833 260.459 112.708 260.875 112.625V120.75C259.959 121.167 258.875 121.5 257.625 121.75C256.459 122.083 255.167 122.25 253.75 122.25C250.667 122.25 248.209 121.5 246.375 120C244.625 118.417 243.084 115.792 241.75 112.125L232.625 86.5C231.959 84.5 231.167 82.2917 230.25 79.875C229.417 77.375 228.625 74.9583 227.875 72.625C227.209 70.2083 226.709 68.2083 226.375 66.625H225.875C225.125 69.5417 224.125 72.6667 222.875 76C221.709 79.3333 220.417 82.625 219 85.875L203.75 121H192.375ZM271.625 27.25V39H285.125V115.5H271.625V127.25H297.625V27.25H271.625Z" fill="white"/>
<rect width="150" height="152" fill="#315B9C"/>
<rect x="303" width="150" height="152" fill="#315B9C"/>
</svg>
