<svg width="375" height="89" viewBox="0 0 375 89" fill="none" xmlns="http://www.w3.org/2000/svg">
<path d="M111.987 60.9172C111.987 72.0932 120.133 68.0243 120.133 70.6895C120.133 71.2403 119.822 71.6223 117.886 71.6223C115.221 71.6223 114.083 71.3114 109.508 71.3114C105.857 71.3114 103.289 71.6223 101.051 71.6223C100.763 71.6582 100.472 71.5811 100.24 71.4071C100.008 71.2331 99.8531 70.9758 99.807 70.6895C99.807 68.6018 105.866 71.0005 105.866 62.383V25.2215C105.866 15.9111 99.5049 20.6463 99.5049 17.8567C99.4916 17.7145 99.5069 17.5711 99.55 17.435C99.5932 17.2988 99.6632 17.1727 99.756 17.0642C99.8488 16.9556 99.9625 16.8668 100.09 16.803C100.218 16.7393 100.357 16.7018 100.5 16.6929C101.202 16.6929 103.92 17.0039 108.416 17.0039C112.298 17.0039 113.533 16.6929 117.299 16.6929C127.152 16.6929 138.097 20.1044 138.097 31.6713C138.097 34.7717 135.769 46.5696 119.236 46.5696C118.463 46.5696 113.959 46.1787 113.959 44.7928C113.954 44.6922 113.971 44.5917 114.01 44.4987C114.048 44.4057 114.107 44.3224 114.182 44.2551C114.257 44.1878 114.346 44.1382 114.443 44.1098C114.54 44.0814 114.641 44.075 114.741 44.091C116.411 44.3552 118.097 44.5096 119.787 44.553C127.703 44.553 132.358 40.7506 132.358 33.7679C132.358 24.3775 125.144 19.4114 116.225 19.4114C113.737 19.4114 112.031 19.4114 112.031 21.739V60.9172H111.987Z" fill="white"/>
<path d="M149.273 23.3647C149.193 17.6968 142.983 19.2515 142.983 17.5457C142.983 16.8439 143.143 16.6573 143.765 16.6573C146.634 16.6573 149.433 16.9683 152.302 16.9683C154.701 16.9683 157.117 16.6573 159.516 16.6573C160.76 16.6573 160.991 16.8084 160.991 17.4303C160.991 19.2959 155.403 17.5102 155.403 23.3292V65.0304C155.403 70.3075 162.305 68.5218 162.305 70.8494C162.305 71.3913 162.074 71.6223 160.751 71.6223C158.974 71.6223 155.625 71.3113 152.293 71.3113C147.558 71.3113 145.932 71.6223 144.84 71.6223C143.445 71.6223 143.205 71.2314 143.205 70.4585C143.205 68.2108 149.264 70.7694 149.264 63.0848V23.3647H149.273Z" fill="white"/>
<path d="M177.701 31.9822C177.701 15.84 168.329 20.3353 168.329 17.4658C168.416 17.2308 168.576 17.0295 168.785 16.8907C168.994 16.7519 169.242 16.6826 169.492 16.6929C170.736 16.6929 171.9 17.0038 173.135 17.0038C174.37 17.0038 175.542 16.6929 176.688 16.6929C177.577 16.6929 178.243 17.9278 178.705 18.4697L215.716 59.6734C215.943 60.0463 216.265 60.3527 216.648 60.5618C216.799 60.5618 216.879 60.3308 216.879 59.6734V27.247C216.879 17.0838 208.262 20.0244 208.262 17.4747C208.257 17.3618 208.278 17.2493 208.323 17.1455C208.368 17.0418 208.436 16.9494 208.521 16.8752C208.606 16.8011 208.707 16.747 208.816 16.717C208.925 16.6869 209.039 16.6817 209.15 16.7018C211.478 16.7018 213.726 17.0127 216.213 17.0127C218.878 17.0127 222.192 16.7018 224.049 16.7018C224.147 16.6874 224.247 16.6947 224.342 16.7233C224.436 16.7518 224.524 16.8009 224.598 16.8671C224.671 16.9332 224.73 17.0147 224.768 17.1059C224.807 17.1971 224.825 17.2957 224.822 17.3947C224.822 19.4114 220.246 18.0166 220.246 23.6846V68.6018C220.246 70.8494 220.166 71.9332 219.545 71.9332C218.923 71.9332 218.23 71.5423 216.595 69.7567L183.209 32.2131C183.058 32.0532 182.125 30.7384 181.583 30.7384C181.273 30.7384 181.042 30.9694 181.042 32.5152V64.2575C181.042 71.2403 187.873 68.5218 187.873 70.6184C187.89 70.7444 187.879 70.8724 187.842 70.9939C187.805 71.1154 187.742 71.2275 187.658 71.3227C187.574 71.4178 187.47 71.4938 187.354 71.5455C187.238 71.5972 187.112 71.6234 186.985 71.6223C185.119 71.6223 182.952 71.3114 179.149 71.3114C176.431 71.3114 172.397 71.6223 171.856 71.6223C170.923 71.6223 170.843 71.1514 170.843 70.7339C170.843 68.0154 177.666 71.4357 177.666 60.5618V31.9822H177.701Z" fill="white"/>
<path d="M281.466 42.7584C282.088 42.7584 283.562 42.4475 283.562 43.4602C283.562 45.0949 279.6 43.3092 279.6 48.5063V64.3375C271.604 66.8961 269.517 72.1731 255.702 72.1731C238.556 72.1731 227.922 61.5124 227.922 44.3131C227.922 27.5402 240.493 15.9911 256.946 15.9911C270.37 15.9911 274.252 21.2681 276.42 21.2681C277.308 21.2681 277.583 19.8734 278.445 19.8734C279.529 19.8734 279.218 21.0372 279.334 21.6502L280.106 31.8134C280.106 32.4353 280.026 33.2082 279.218 33.2082C277.201 33.2082 273.71 18.2298 255.4 18.2298C241.426 18.2298 234.443 30.0277 234.443 42.8295C234.443 56.5729 242.359 69.6856 257.337 69.6856C264.391 69.6856 273.479 66.1942 273.479 59.6024V47.5735C273.479 43.9222 266.727 45.5568 266.727 43.6113C266.727 42.6074 267.811 42.7229 268.504 42.7229H281.466V42.7584Z" fill="white"/>
<path d="M300.166 22.121C300.166 19.0916 301.801 19.2426 304.608 19.2426C312.213 19.2426 319.427 22.4231 319.427 31.8845C319.427 41.5058 311.982 42.9095 308.642 42.9095C304.99 42.9095 300.184 43.3004 300.184 41.8256V22.121H300.166ZM315.447 43.5313C320.875 41.3637 325.219 36.1577 325.219 30.1077C325.219 15.1294 308.073 16.6841 306.829 16.6841C302.796 16.6841 298.372 16.995 293.868 16.995C292.208 16.9841 290.55 16.8803 288.902 16.6841C287.969 16.6841 287.347 17.146 287.347 17.5725C287.347 20.2376 294.019 17.0305 294.019 24.4842V64.0266C294.019 69.9255 288.36 68.8417 288.36 70.7784C288.347 70.8884 288.358 70.9998 288.391 71.1054C288.424 71.2111 288.478 71.3088 288.551 71.3923C288.624 71.4758 288.713 71.5433 288.813 71.5906C288.913 71.6378 289.022 71.6638 289.133 71.6668C292.082 71.6668 295.032 71.3558 298.017 71.3558C304.457 71.3558 306.243 71.6668 306.9 71.6668C307.558 71.6668 308.215 71.8267 308.215 71.0449C308.215 68.3797 300.149 70.8139 300.149 64.1421V47.7246C300.149 46.9517 299.687 45.548 302.165 45.548C310.854 45.548 309.69 45.317 312.488 49.6613L321.133 63.2448C324.082 67.6868 327.103 71.6224 332.771 71.6224C333.472 71.6224 337.817 71.6224 337.817 70.6895C337.817 68.8328 334.014 71.7023 328.426 63.1648L315.447 43.5313Z" fill="white"/>
<path d="M333.837 21.5791C331.811 18.2387 328.018 19.1716 328.018 17.8567C328.017 17.5731 328.119 17.2988 328.306 17.0848C328.492 16.8708 328.749 16.7316 329.03 16.6929C331.127 16.6929 332.584 17.0039 337.914 17.0039C340.473 17.0039 342.569 16.6929 343.351 16.6929C343.893 16.6929 344.826 16.7729 344.826 17.4658C344.826 18.7895 341.184 18.8695 341.184 21.1171C341.342 22.2868 341.825 23.3886 342.578 24.2976L351.915 39.267C352.537 40.1998 352.999 40.6618 353.47 40.6618C353.941 40.6618 354.358 40.1199 354.945 39.116L362.94 26.1543C363.923 24.9425 364.492 23.4484 364.566 21.89C364.566 18.0877 358.747 19.7135 358.747 17.8567C358.747 16.8528 359.52 16.6929 360.382 16.6929C362.239 16.6929 364.184 17.0039 366.05 17.0039C368.297 17.0039 370.554 16.6929 372.802 16.6929C373.03 16.7146 373.243 16.8152 373.406 16.9773C373.568 17.1395 373.668 17.3531 373.69 17.5813C373.69 18.4697 372.366 18.7451 371.824 19.0561C369.728 20.2998 368.724 22.4675 367.48 24.3864L356.615 41.2659C355.371 43.2026 354.749 43.5935 354.749 44.7573V63.7689C354.749 70.5207 361.11 68.353 361.11 70.7517C361.11 71.4535 360.408 71.5246 359.333 71.5246C358.259 71.5246 353.666 71.2137 350.796 71.2137C347.305 71.2137 344.515 71.5246 343.813 71.5246C343.111 71.5246 342.649 71.4446 342.649 70.5918C342.649 68.4241 348.628 70.4408 348.628 64.9327V46.2498C348.628 44.7751 347.465 43.2204 346.852 42.2964L333.837 21.5791Z" fill="white"/>
<path d="M64.071 30.3475C63.0671 28.0644 65.0838 21.7745 66.825 17.5191C68.4242 13.5924 68.4686 11.3004 67.1893 9.44362C65.91 7.58687 62.2409 5.64129 60.4108 4.68182C57.0083 2.8162 56.2709 0.888382 55.0805 1.05718C53.4281 1.33258 51.6868 4.31758 51.6868 4.31758C48.4251 3.31526 45.0239 2.84138 41.6124 2.91392C38.2112 2.81671 34.8177 3.29119 31.5736 4.31758C31.5736 4.31758 29.7968 1.33258 28.1799 1.05718C26.9983 0.852846 26.261 2.83396 22.8495 4.68182C21.0728 5.64129 17.3948 7.61352 16.1155 9.4525C14.8362 11.2915 14.8806 13.6013 16.4886 17.528C18.2654 21.7834 20.2377 28.0732 19.2338 30.3564C19.2338 30.3564 7.9334 29.6013 13.5658 45.9744C13.5658 45.9744 14.9784 50.0077 20.8595 53.5435C21.8958 54.268 22.6492 55.3291 22.9917 56.5463L25.1594 56.8572C25.3008 58.9428 26.1394 60.9203 27.5403 62.4719C29.8501 65.137 31.3959 65.8389 32.6574 67.3936C34.7007 69.9255 35.2426 70.7161 35.518 72.3686L37.5347 72.8483C37.5347 72.8483 38.4231 76.0554 41.6124 76.0554C42.5654 76.0842 43.4986 75.7796 44.251 75.1942C45.0035 74.6087 45.5282 73.7791 45.7346 72.8483L47.7246 72.413C48 70.7695 48.5419 69.9788 50.5941 67.438C51.8556 65.8833 53.3925 65.1459 55.7024 62.5163C57.1215 60.9563 57.9702 58.9615 58.1099 56.8572L60.3131 56.5374C60.6549 55.3199 61.4085 54.2586 62.4453 53.5346C68.3264 49.981 69.739 45.9655 69.739 45.9655C75.3803 29.5924 64.071 30.3475 64.071 30.3475ZM54.1921 3.49138C54.3757 3.28927 54.5957 3.12351 54.8406 3.00276C55.2049 2.86062 55.347 3.30481 55.6224 3.40254L55.8445 3.66017C56.1097 3.83192 56.3648 4.01879 56.6085 4.21986C56.809 4.34009 56.9992 4.47678 57.1771 4.62852C57.3966 4.7452 57.6048 4.88201 57.799 5.03718C58.0073 5.14944 58.2012 5.28668 58.3764 5.44584C58.9183 5.73901 59.4603 6.10325 60.0022 6.38754C60.0323 6.43661 60.074 6.47761 60.1235 6.50701C60.173 6.53642 60.2289 6.55334 60.2865 6.55634C60.6951 6.80509 61.1038 7.02718 61.5213 7.30259C61.7167 7.35776 61.9003 7.44807 62.0633 7.5691C62.1767 7.61141 62.2733 7.68934 62.3387 7.7912C62.2378 7.91713 62.1062 8.01502 61.9566 8.07549C61.3424 8.37366 60.7952 8.79382 60.3487 9.31036C60.2645 9.45859 60.1663 9.59842 60.0555 9.7279C59.9878 9.90945 59.9107 10.0874 59.8245 10.2609C59.808 10.4177 59.766 10.5708 59.7001 10.714C59.7129 10.7544 59.7138 10.7977 59.7028 10.8386C59.6918 10.8795 59.6693 10.9164 59.6379 10.945C59.5846 11.0161 59.5047 10.945 59.4514 10.945C58.9628 10.5541 58.6341 10.0566 58.1543 9.61241C58.0929 9.49572 57.9922 9.40448 57.87 9.35478C57.6744 9.1437 57.4603 8.95045 57.2304 8.77732C56.9905 8.46638 56.6174 8.22652 56.342 7.88893C56.0263 7.6942 55.7289 7.47119 55.4536 7.22263C55.0727 6.93876 54.7134 6.62696 54.3786 6.28982C54.1121 6.20098 53.9878 5.92558 53.739 5.86339C53.5937 5.71641 53.471 5.54877 53.3748 5.36589C53.3737 5.01386 53.4458 4.66546 53.5865 4.34278C53.7272 4.02009 53.9334 3.73016 54.1921 3.49138V3.49138ZM20.6907 7.93335C21 7.64892 21.3665 7.43387 21.7657 7.30259C22.0182 7.1947 22.2618 7.06696 22.4942 6.92058C22.8226 6.66942 23.1636 6.43517 23.5158 6.21875C24.3348 5.7408 25.1054 5.18442 25.8168 4.55745C26.512 4.10712 27.1767 3.61151 27.8068 3.07383C28.008 3.09796 28.2018 3.16458 28.3754 3.26928L28.9883 3.90004C29.1534 4.15221 29.2933 4.42002 29.4059 4.69959C29.4558 4.9513 29.4825 5.20703 29.4858 5.46361C29.4417 5.54304 29.4144 5.63076 29.4059 5.72124C28.9182 6.06565 28.4496 6.43637 28.0022 6.83174C27.5874 7.23493 27.1353 7.59784 26.6519 7.91558C26.4475 8.2887 25.9945 8.42196 25.7635 8.80397C25.3282 9.12379 25.0528 9.55022 24.6263 9.91446C24.2522 10.3531 23.8485 10.7657 23.4181 11.1493C23.3204 11.1493 23.2849 11.0338 23.2493 10.9805C23.1991 10.5813 23.0659 10.197 22.8584 9.85228C22.5646 9.40975 22.2153 9.00669 21.819 8.65295C21.4459 8.46638 21.0905 8.27094 20.7174 8.07549C20.6902 8.05581 20.6714 8.02657 20.6648 7.99362C20.6582 7.96067 20.6643 7.92645 20.6819 7.89781L20.6907 7.93335ZM68.0688 45.4413C68.0688 45.4413 66.5763 48.8794 61.1926 52.5485C60.3473 53.2004 59.7036 54.0782 59.3359 55.0804L56.6707 55.569C56.5819 57.6008 55.8614 59.5542 54.6096 61.157C52.5041 63.7334 50.9939 64.3552 49.7945 65.8389C47.8489 68.2464 46.8451 69.2947 46.5785 70.8672L44.6774 71.2847C44.6774 71.2847 44.2421 74.4563 41.5858 74.4563C38.9295 74.4563 38.5563 71.2847 38.5563 71.2847L36.6552 70.8672C36.4242 69.2947 35.4114 68.2464 33.4747 65.8389C32.2754 64.3552 30.8095 63.7423 28.6596 61.157C27.4079 59.5542 26.6874 57.6008 26.5986 55.569L23.9867 55.0804C23.6231 54.0736 22.9788 53.1919 22.1299 52.5396C16.7374 48.8794 15.2538 45.4325 15.2538 45.4325C9.77238 30.0544 20.4953 32.2309 20.4953 32.2309C22.0056 28.0199 20.2643 22.8495 18.6208 18.7984C17.0927 15.076 16.6041 12.3931 17.1994 11.3714C17.1994 11.3714 17.6791 13.8056 19.4914 14.1699C21.3037 14.5341 22.9206 14.3387 27.1938 9.63018C31.8934 4.44196 39.5513 4.49526 41.6124 4.49526C43.6735 4.49526 51.5269 4.62852 56.1021 9.63018C60.3753 14.3298 61.9744 14.5341 63.8045 14.1699C65.6346 13.8056 66.0966 11.3714 66.0966 11.3714C66.6918 12.3842 66.1943 15.0671 64.6751 18.7984C63.0138 22.8495 61.2992 28.0199 62.7917 32.2309C62.7917 32.2309 73.4791 30.0544 68.0688 45.4413Z" fill="white"/>
<path d="M83.1448 33.8211C82.896 31.8844 82.5052 30.0188 82.1054 28.1532C81.83 27.1848 81.4302 26.2698 81.066 25.337C80.724 24.6049 80.3008 23.9135 79.8044 23.2759C79.5323 22.9781 79.1846 22.7597 78.7981 22.6439C78.4117 22.5281 78.0011 22.5193 77.6101 22.6185C77.4131 22.7379 77.1774 22.7762 76.9527 22.7251C76.9164 22.4628 76.9164 22.1967 76.9527 21.9344C77.0504 18.3808 77.5035 14.3742 75.1137 11.6912C75.1047 11.6784 75.0927 11.6679 75.0788 11.6607C75.0649 11.6535 75.0494 11.6497 75.0338 11.6497C75.0181 11.6497 75.0026 11.6535 74.9887 11.6607C74.9748 11.6679 74.9628 11.6784 74.9538 11.6912C74.865 12.2332 74.7495 12.8106 74.6606 13.3703C74.4938 14.2816 74.2379 15.1742 73.8966 16.0355C73.8966 16.0888 73.8078 16.222 73.7101 16.1776C73.6726 16.1495 73.6422 16.113 73.6212 16.071C73.243 14.6573 72.5843 13.334 71.6845 12.1799C71.0737 11.4163 70.2915 10.8076 69.4013 10.4031C69.3578 10.3847 69.3109 10.3753 69.2636 10.3753C69.2163 10.3753 69.1695 10.3847 69.1259 10.4031C69.1224 10.5055 69.1469 10.6069 69.197 10.6962C69.5305 11.193 69.7601 11.752 69.8722 12.3398C70.0036 12.9227 70.0662 13.519 70.0588 14.1166C70.104 16.3998 69.8471 18.6791 69.2947 20.895C68.6718 22.735 68.5161 24.7011 68.8417 26.6163C69.1859 27.8758 69.8429 29.0279 70.7517 29.9655C71.3352 30.485 72.0939 30.7643 72.875 30.7473C73.0536 30.9352 73.1686 31.1745 73.2037 31.4314C73.4462 32.2135 73.6157 33.0165 73.7101 33.83C74.0578 36.0213 74.2095 38.2392 74.1631 40.4574C74.0779 44.1922 73.3879 47.8885 72.1198 51.4025C71.7023 52.5929 71.1781 53.7389 70.6451 54.8761C70.0797 56.0791 69.4388 57.2453 68.7262 58.3675C68.1487 59.2559 67.5002 60.1442 66.8339 61.0326C66.4785 61.4946 66.1143 61.921 65.7323 62.3475C65.2792 62.9249 64.7284 63.458 64.2398 64.0088C63.4935 64.6839 62.7739 65.4657 61.9744 66.0521C61.3703 66.6739 60.5085 67.0204 60.2509 67.8822C60.1524 68.1169 60.1218 68.3747 60.1627 68.626C60.2035 68.8773 60.3141 69.1121 60.4819 69.3036C61.0504 70.0498 62.0188 70.0676 62.5874 70.7872C62.594 70.8545 62.5785 70.9222 62.5432 70.9799C62.508 71.0376 62.4548 71.0822 62.3919 71.107C61.4591 71.7733 60.5618 72.4307 59.5935 72.9904C57.4759 74.2813 55.2201 75.3303 52.8683 76.1176C52.051 76.3219 51.2959 76.6861 50.4608 76.8194C50.1753 76.9274 49.8764 76.9961 49.5724 77.0237C49.2536 77.1399 48.9228 77.2204 48.5863 77.2636C48.0867 77.3819 47.5788 77.4621 47.0671 77.5035C46.8333 77.5853 46.586 77.6214 46.3386 77.6101C46.0715 77.6827 45.7976 77.7273 45.5213 77.7433C44.8127 77.8491 44.0966 77.8966 43.3803 77.8855C42.5105 77.9407 41.6382 77.9407 40.7684 77.8855C39.0105 77.8359 37.2599 77.6368 35.5358 77.2903C34.5674 77.1303 33.6701 76.8461 32.7284 76.6684C32.5969 76.6062 32.4602 76.5556 32.3198 76.5173C31.9863 76.4365 31.6572 76.3386 31.3337 76.2242C30.1166 75.8244 28.9261 75.3358 27.7357 74.8205C27.1937 74.5629 26.6429 74.3319 26.1366 74.0298C25.8434 73.8344 25.5324 73.7189 25.2482 73.5235C24.9432 73.3904 24.6466 73.2391 24.3598 73.0704C23.7928 72.7293 23.2442 72.3587 22.7162 71.9599C22.6793 71.9566 22.6435 71.9454 22.6113 71.927C22.5791 71.9086 22.5513 71.8834 22.5297 71.8533C22.5332 71.779 22.5516 71.7062 22.5836 71.6391C22.6156 71.5719 22.6607 71.5119 22.7162 71.4624C22.8887 71.2809 23.0936 71.1332 23.3203 71.0271C23.5247 70.876 23.7734 70.8494 23.9778 70.6717C24.3745 70.3871 24.6825 69.9959 24.8661 69.5435C24.9068 69.1998 24.851 68.8516 24.7051 68.5379C24.5592 68.2241 24.3289 67.9571 24.0399 67.7667C23.4181 67.2692 22.7607 66.8783 22.1388 66.3364C21.6857 65.9188 21.2504 65.5546 20.7707 65.1548C20.6753 65.0364 20.5613 64.9344 20.4331 64.8527C19.1027 63.6201 17.8728 62.2833 16.7551 60.855C16.518 60.5073 16.263 60.1722 15.9911 59.8511C14.8779 58.2686 13.8888 56.6023 13.0327 54.8672C11.6028 51.9189 10.5806 48.7897 9.99443 45.5657C9.85229 44.5174 9.65684 43.4513 9.57689 42.3675C9.50509 42.0229 9.47526 41.6709 9.48805 41.3192C9.45923 41.1129 9.45923 40.9036 9.48805 40.6973C9.48805 40.4397 9.48805 40.1465 9.48805 39.9155C9.48805 39.187 9.48805 38.4141 9.54135 37.6856C9.55731 36.9959 9.61367 36.3077 9.71015 35.6246C9.70248 35.0938 9.72324 34.5629 9.77233 34.0343C9.82489 33.9509 9.85826 33.8568 9.87006 33.7589C9.94113 33.5902 9.87006 33.3858 9.9589 33.2259C10.2722 32.81 10.6804 32.475 11.1493 32.2487C11.8702 31.7699 12.5016 31.1686 13.015 30.4719C13.2425 30.1944 13.4447 29.8971 13.6191 29.5835C13.9564 28.864 14.1668 28.0915 14.241 27.3003C14.4808 25.2748 13.7435 23.4713 13.2726 21.6235C12.912 20.3355 12.6448 19.0232 12.4731 17.6968C12.3576 16.8795 12.3576 15.9911 12.2954 15.1027C12.3301 14.3186 12.4522 13.5409 12.6596 12.784C12.8421 12.4805 12.9854 12.1551 13.086 11.8156C13.0796 11.7865 13.0622 11.7609 13.0373 11.7443C13.0125 11.7278 12.9822 11.7215 12.9528 11.7268C12.5442 11.8575 12.1705 12.0792 11.8601 12.3753C10.3142 13.7834 9.26417 15.6529 8.86617 17.7057L8.7951 17.7679C8.76129 17.7718 8.72708 17.7654 8.69695 17.7496C8.66683 17.7337 8.6422 17.7091 8.62631 17.679C8.10124 16.5463 7.71925 15.3526 7.48916 14.1254C7.40032 13.9122 7.40032 13.6279 7.29372 13.397C7.27211 13.3845 7.2476 13.3779 7.22264 13.3779C7.19769 13.3779 7.17318 13.3845 7.15157 13.397C6.92013 13.6981 6.70654 14.0125 6.51193 14.3387C6.07284 15.2387 5.77328 16.2003 5.62353 17.1904C5.47238 19.4562 5.52888 21.7311 5.79233 23.9866C5.9145 24.8278 5.94429 25.6798 5.88117 26.5274C5.86503 27.0226 5.7248 27.5058 5.47334 27.9326C5.22188 28.3595 4.86724 28.7164 4.44197 28.9705C4.0596 29.0096 3.67326 28.9734 3.30483 28.8639C2.97518 28.7822 2.63059 28.7822 2.30094 28.8639C1.83418 29.0178 1.43739 29.3327 1.18156 29.7523C0.879938 30.3539 0.718936 31.0161 0.710715 31.689C0.307864 34.1877 0.0704427 36.7103 0 39.2403C0.0519099 42.3269 0.369949 45.4033 0.950582 48.4352C1.19933 49.5457 1.47473 50.6562 1.83898 51.74C2.15253 52.929 2.52915 54.1003 2.96724 55.2492C3.75782 57.2003 4.64737 59.1099 5.63242 60.9705C6.86497 63.1119 8.23912 65.1687 9.74568 67.127C10.5186 68.0776 11.3359 69.0637 12.1888 69.9432C12.7087 70.5438 13.2603 71.1161 13.8412 71.6578C14.4458 72.2469 15.0803 72.8044 15.7423 73.328C16.3998 73.9232 17.1282 74.3319 17.7679 74.9715C17.7943 75.0223 17.8082 75.0787 17.8082 75.1359C17.8082 75.1931 17.7943 75.2495 17.7679 75.3003C17.672 75.4911 17.586 75.6868 17.5102 75.8866C17.2563 76.3108 17.1092 76.7903 17.0813 77.2839C17.0535 77.7775 17.1458 78.2705 17.3503 78.7206C17.5934 79.1817 17.9117 79.599 18.292 79.9554C18.5674 80.1509 18.8251 80.373 19.0738 80.5862C19.3587 80.7371 19.6242 80.9221 19.8645 81.137C20.2345 81.3036 20.5935 81.4935 20.9394 81.7056C21.2326 81.9277 21.5613 81.9899 21.8723 82.1942C22.3253 82.3452 22.6896 82.6739 23.1515 82.8338C23.283 82.9259 23.4307 82.9922 23.5869 83.0293C23.7912 83.1625 24.0311 83.2158 24.2354 83.3224C27.5104 84.7453 30.9385 85.7857 34.4519 86.4229C38.0308 87.0838 41.6827 87.2571 45.3081 86.9382C47.1868 86.7851 49.0535 86.5091 50.8961 86.112C51.7045 85.961 52.4508 85.73 53.2326 85.5612C53.7212 85.4013 54.192 85.2858 54.6895 85.1081C54.9472 85.1081 55.1515 84.9038 55.418 84.886C55.8889 84.6906 56.3864 84.584 56.8395 84.3796C57.3694 84.2353 57.8796 84.0265 58.3586 83.7578C58.4195 83.7758 58.4843 83.7758 58.5452 83.7578C58.7825 83.6995 59.01 83.6067 59.2204 83.4824C59.8331 83.2291 60.4269 82.9322 60.9971 82.594C61.2913 82.5005 61.572 82.3691 61.8322 82.2031C62.1209 82.0706 62.3974 81.9131 62.6584 81.7322C63.0404 81.5545 63.4136 81.2791 63.8133 81.1103C64.2131 80.9416 64.5507 80.7283 64.8528 80.4529C65.0165 80.3417 65.1888 80.2437 65.368 80.1598C65.5013 80.0532 65.5813 80.0532 65.91 79.8399C65.9828 79.7863 66.0511 79.7269 66.1143 79.6623C66.3534 79.5142 66.5741 79.3382 66.7717 79.1381C67.1981 78.7733 67.5825 78.3621 67.9177 77.9121C68.1463 77.5869 68.2993 77.2147 68.3654 76.8227C68.4315 76.4307 68.409 76.0289 68.2997 75.6467C68.2322 75.2839 68.09 74.939 67.8822 74.634C67.7312 74.2875 67.2781 73.9232 67.6068 73.5323C67.7032 73.4555 67.8041 73.3843 67.9088 73.3191C68.4241 72.866 69.0105 72.4307 69.4991 71.951C69.9877 71.4713 70.2809 71.2936 70.654 70.8938C70.8228 70.6184 71.1426 70.4763 71.3292 70.2009C71.386 70.0902 71.4761 70.0001 71.5868 69.9432C72.0399 69.3302 72.6084 68.8772 73.0615 68.2731C74.2255 66.8528 75.311 65.3699 76.3131 63.8311C76.9567 62.8523 77.5497 61.8412 78.0898 60.8017C78.5429 60.0199 78.9249 59.2114 79.2892 58.4119C80.8684 55.0129 82.0231 51.4324 82.7273 47.7512C83.0791 45.7616 83.3164 43.7535 83.438 41.7367C83.6066 39.095 83.5084 36.4431 83.1448 33.8211V33.8211ZM71.7556 25.3192C71.4623 25.5127 71.2224 25.7769 71.0578 26.0873C70.8933 26.3978 70.8094 26.7446 70.8139 27.096V27.096C70.5832 26.7251 70.4207 26.3159 70.3342 25.8878C70.0919 24.8399 70.1256 23.7472 70.4319 22.7162C71.0695 20.2723 71.4477 17.768 71.5601 15.2448C71.5601 15.1915 71.6579 15.1116 71.7289 15.1915C72.3398 16.2963 72.7546 17.4986 72.9549 18.7451C73.0526 19.1271 73.1148 19.5358 73.2303 19.9178C73.2387 19.9411 73.2517 19.9626 73.2684 19.9809C73.2852 19.9992 73.3055 20.014 73.328 20.0244C73.3713 20.016 73.4118 19.9969 73.4459 19.969C73.48 19.9411 73.5067 19.9052 73.5235 19.8645C74.1219 18.8521 74.6531 17.8015 75.1137 16.7196C75.1326 16.7044 75.1561 16.6962 75.1803 16.6962C75.2046 16.6962 75.2281 16.7044 75.247 16.7196C75.3596 16.9877 75.4257 17.2731 75.4424 17.5635C75.4418 18.053 75.4655 18.5422 75.5135 19.0294C75.4453 19.494 75.4186 19.9637 75.4335 20.433C75.4335 21.3214 75.1759 22.2098 75.2114 23.1693C75.2209 23.3247 75.1838 23.4793 75.1048 23.6135C74.019 24.2402 72.901 24.8095 71.7556 25.3192V25.3192ZM6.01443 29.7612C6.78442 29.0486 7.32029 28.1193 7.55135 27.096C7.60943 26.5976 7.63909 26.0963 7.64019 25.5946C7.57322 24.5331 7.43969 23.4768 7.24041 22.4319C7.06549 21.1716 7.04759 19.8944 7.18711 18.6296C7.19084 18.5986 7.20265 18.5692 7.22137 18.5442C7.24008 18.5193 7.26503 18.4997 7.29372 18.4875C7.35197 18.5043 7.40478 18.5361 7.44687 18.5798C7.48897 18.6234 7.51886 18.6774 7.53358 18.7362C8.00077 19.6977 8.53205 20.6267 9.12381 21.5169C9.15063 21.5617 9.18828 21.599 9.23331 21.6253C9.27833 21.6517 9.32927 21.6664 9.38144 21.6679C9.48448 21.5025 9.53982 21.3119 9.54135 21.1171C9.70536 19.8427 10.0031 18.589 10.4297 17.377C10.5118 17.1837 10.6226 17.004 10.7585 16.8439C10.7743 16.8427 10.7903 16.8448 10.8054 16.85C10.8204 16.8553 10.8342 16.8636 10.8459 16.8744C10.8576 16.8853 10.8669 16.8984 10.8733 16.9131C10.8796 16.9277 10.8829 16.9435 10.8828 16.9594C10.8828 17.3237 10.8828 17.6879 10.9983 18.0521C11.1138 18.4164 11.1138 18.9405 11.2026 19.367C11.3508 20.3061 11.5465 21.2372 11.789 22.1565C12.1966 23.431 12.52 24.7308 12.7573 26.0477C12.7571 26.956 12.6008 27.8575 12.2954 28.7129C11.7563 29.9018 10.846 30.8838 9.70126 31.5113C9.20079 31.3956 8.71715 31.2165 8.26206 30.9783C7.58689 30.6318 6.90282 30.3653 6.21876 30.0455C6.12137 29.9896 6.03424 29.9175 5.96112 29.8322L6.01443 29.7612ZM18.3631 73.4968C17.9772 73.3243 17.6275 73.0801 17.3326 72.7772C16.8583 72.4057 16.4101 72.002 15.9911 71.569C15.2286 70.9601 14.5074 70.3012 13.8323 69.5968C11.969 67.6778 10.2803 65.5966 8.78622 63.378C7.75381 61.8048 6.80775 60.1767 5.95224 58.5007C5.41032 57.2037 4.80621 55.9688 4.32648 54.6451C2.29109 49.209 1.34915 43.4245 1.55469 37.6235C1.64718 35.5374 1.87868 33.4599 2.24764 31.4047C2.25479 31.2553 2.29616 31.1095 2.36855 30.9786C2.44094 30.8476 2.54243 30.7351 2.66518 30.6496C3.50916 30.3031 4.16657 31.0138 4.87728 31.2626C5.85028 31.7164 6.85722 32.0937 7.88894 32.3908C8.09657 32.47 8.27594 32.6091 8.40421 32.7906C8.38834 33.2822 8.33788 33.772 8.25318 34.2564C8.11104 35.749 7.99555 37.3125 7.99555 38.8228C7.9601 40.1515 8.01352 41.4812 8.15546 42.8028C8.24014 43.9258 8.40041 45.0417 8.63519 46.1432C8.92904 47.8613 9.37499 49.55 9.96778 51.1892C10.6364 53.2446 11.5053 55.2293 12.5619 57.1148C13.2482 58.398 14.0168 59.6354 14.8628 60.8194C15.8974 62.2373 17.0251 63.5847 18.2387 64.8527C18.4253 65.1548 18.7629 65.2969 18.9494 65.5901C19.136 65.8833 19.4203 66.0432 19.6779 66.2297C20.1132 66.6295 20.5663 67.1181 21.0461 67.4202C21.5258 67.7222 22.1299 68.3086 22.6718 68.6995C22.7943 68.8516 22.8849 69.0269 22.9383 69.2148C22.9383 69.6145 22.503 69.6056 22.2632 69.8011C21.8736 70.0135 21.5296 70.3002 21.2504 70.6451C20.895 70.9205 20.5663 70.494 20.1665 70.6451C19.5091 70.8316 19.3848 71.5335 19.0916 72.0487C18.9677 72.2864 18.8694 72.5365 18.7984 72.795C18.7219 73.0525 18.5704 73.2814 18.3631 73.4524V73.4968ZM66.1054 77.8055C65.4125 78.3386 64.6751 78.8272 63.9466 79.2891C63.2181 79.7511 62.2853 80.1775 61.4769 80.6928C60.8195 81.0037 60.162 81.3502 59.4869 81.6611C59.3862 81.7404 59.2669 81.7924 59.1404 81.8122C58.3764 82.1764 57.5857 82.4518 56.8039 82.7628C56.2975 82.976 55.729 83.127 55.2226 83.3402C55.0361 83.3736 54.8561 83.4366 54.6895 83.5268C54.4803 83.544 54.2758 83.5981 54.0854 83.6867C52.5485 84.0687 51.0471 84.5129 49.4835 84.815C48.9302 84.9378 48.3692 85.0238 47.8045 85.0726C47.5845 85.1466 47.3521 85.1768 47.1204 85.1614C46.4765 85.2976 45.8231 85.3837 45.166 85.4191C44.2776 85.4191 43.5224 85.5523 42.6429 85.5701H42.3409H40.5641C40.413 85.5701 40.262 85.5701 40.1199 85.5701C38.3561 85.4979 36.5991 85.308 34.8606 85.0015C32.9837 84.6189 31.1323 84.1204 29.317 83.509C25.8354 82.4636 22.5186 80.9324 19.4647 78.9604C19.31 78.8907 19.1888 78.7631 19.1271 78.6051C18.8664 78.378 18.7014 78.0606 18.6652 77.7167C18.6525 77.4805 18.6765 77.2437 18.7362 77.0149C18.7895 76.7572 18.9406 76.544 19.0116 76.2952C19.0827 76.0465 19.1715 76.011 19.2515 75.7711C19.5536 75.1492 19.7223 74.4652 20.0866 73.8699C20.1474 73.6278 20.24 73.3948 20.362 73.177C20.4323 72.9647 20.5655 72.7787 20.744 72.6439C20.8554 72.6213 20.9709 72.6301 21.0776 72.6693C21.1842 72.7086 21.2779 72.7767 21.3481 72.866C21.4343 72.9236 21.5267 72.9713 21.6235 73.0082C22.4497 73.5768 23.3203 74.092 24.1732 74.5984C24.3203 74.6693 24.4627 74.7494 24.5996 74.8383C24.6873 74.8627 24.769 74.905 24.8395 74.9627C24.8395 74.9627 25.3103 75.2203 25.5502 75.3091C26.8204 75.971 28.1253 76.5641 29.4591 77.0859C29.699 77.0859 29.8767 77.2636 30.0988 77.2991C30.3186 77.3712 30.5325 77.4603 30.7384 77.5657C31.197 77.661 31.6482 77.7886 32.0888 77.9477C32.453 78.0187 32.8173 78.1253 33.1638 78.2053C33.2705 78.2538 33.3803 78.2953 33.4925 78.3297C34.443 78.4718 35.3403 78.7295 36.282 78.8449C37.5269 79.0694 38.7852 79.2119 40.0488 79.2714C40.9372 79.3602 41.8789 79.2714 42.7939 79.3424C42.993 79.2992 43.199 79.2992 43.398 79.3424C43.6499 79.2945 43.9057 79.2707 44.1621 79.2714C44.4451 79.2777 44.728 79.2539 45.006 79.2003C47.6499 78.9675 50.2598 78.4431 52.7884 77.6367C53.5169 77.4324 54.192 77.0948 54.9472 76.8994C55.7467 76.5351 56.5907 76.2064 57.3814 75.7889C57.7184 75.6524 58.0425 75.4859 58.3497 75.2914C58.9099 75.0299 59.4529 74.7332 59.9755 74.403C60.1317 74.2616 60.3165 74.1555 60.5174 74.092C60.971 73.8672 61.3948 73.5867 61.7789 73.2569C62.014 73.138 62.2397 73.0014 62.4541 72.8483C62.7069 72.6782 62.9501 72.4944 63.1826 72.2975C63.5542 72.105 63.8978 71.8629 64.2042 71.5779C64.2942 71.5726 64.3836 71.5965 64.4588 71.6461C64.5341 71.6958 64.5912 71.7684 64.6218 71.8533L64.8528 72.182C65.4391 73.479 66.1321 74.7228 66.6296 76.0376C66.7216 76.3438 66.7219 76.6703 66.6303 76.9766C66.5387 77.2829 66.3593 77.5557 66.1143 77.7611L66.1054 77.8055ZM81.5368 45.6545C81.2032 47.8967 80.7074 50.1116 80.0532 52.282C79.7067 53.4013 79.2981 54.5029 78.8983 55.5868C78.8692 55.5933 78.8424 55.6075 78.8205 55.6278C78.7987 55.648 78.7826 55.6738 78.7739 55.7023H78.8361C77.8754 58.1174 76.6854 60.4348 75.2825 62.6229C74.3109 64.1179 73.2549 65.5565 72.1198 66.9316C71.3736 67.7755 70.6096 68.7084 69.7922 69.5079C69.5346 69.7744 69.2414 70.0321 69.0105 70.3252C68.3175 70.9471 67.6068 71.6312 66.8428 72.2175C66.8025 72.2237 66.7613 72.2187 66.7237 72.203C66.6861 72.1873 66.6535 72.1616 66.6296 72.1287C66.2694 71.3106 65.8538 70.5181 65.3858 69.7567C65.2688 69.6463 65.1272 69.5653 64.9727 69.5205C64.8182 69.4757 64.6553 69.4683 64.4974 69.499C64.3208 69.604 64.1157 69.6506 63.9111 69.6323C63.3955 69.1472 62.7926 68.7644 62.1343 68.504C62.0836 68.4622 62.0436 68.4091 62.0173 68.3489C61.9911 68.2887 61.9794 68.2231 61.9833 68.1576C62.0127 68.0156 62.0839 67.8857 62.1876 67.7844C62.3678 67.5608 62.584 67.3687 62.8272 67.2159C63.1382 66.9582 63.4136 66.6651 63.7156 66.3897L63.8222 66.3364C64.28 65.974 64.6971 65.5629 65.066 65.1104L65.3147 64.9149C66.6598 63.5322 67.8954 62.0471 69.0105 60.473C70.0615 58.9765 71.0027 57.4058 71.8267 55.7733C72.1021 55.1515 72.3863 54.5651 72.6351 53.9344C72.8839 53.3036 73.1148 52.7439 73.3813 52.1576C73.669 51.3693 73.9122 50.5655 74.1098 49.75C74.6245 48.0512 74.9988 46.313 75.2292 44.5529C75.2292 44.1887 75.3714 43.8866 75.3536 43.5402C75.5405 41.8174 75.6177 40.0845 75.5846 38.3519C75.4765 35.9092 75.1555 33.4806 74.6251 31.0938C74.2609 29.9211 73.8433 28.7751 73.3636 27.6468C73.2494 27.4765 73.1722 27.2841 73.137 27.0821C73.1018 26.8801 73.1094 26.673 73.1592 26.4741C73.3813 25.9055 74.0476 25.8522 74.4918 25.5857C75.5892 25.0126 76.7335 24.5341 77.9122 24.1554C78.1741 24.1329 78.4367 24.1905 78.6652 24.3206C78.8936 24.4507 79.0772 24.6471 79.1914 24.8839C79.7426 25.9825 80.1974 27.1269 80.5507 28.3042C80.6218 28.7395 80.8172 29.1215 80.8527 29.5835C81.2628 31.4502 81.5595 33.34 81.7411 35.2426C82.1022 38.7084 82.0335 42.2055 81.5368 45.6545V45.6545Z" fill="white"/>
<path d="M7.03616 39.9333C7.27602 40.031 7.15165 40.3331 7.16942 40.5552C7.0318 40.6318 6.9036 40.7242 6.78741 40.8306C6.21883 41.0349 5.65915 41.2481 5.10834 41.488C5.10834 41.488 5.00173 41.5946 5.05504 41.6479C5.36223 41.7884 5.68009 41.9042 6.00562 41.9944C6.37923 42.1127 6.74687 42.249 7.10723 42.403C7.15315 42.4746 7.17756 42.5579 7.17756 42.6429C7.17756 42.7279 7.15315 42.8112 7.10723 42.8828C6.66303 43.4513 5.82794 43.2648 5.1883 43.4513L3.41151 43.7623C3.37272 43.7544 3.33637 43.7374 3.30546 43.7127C3.27456 43.688 3.25 43.6563 3.23383 43.6201C3.19684 43.5207 3.18889 43.4127 3.21091 43.3089C3.23293 43.2051 3.28402 43.1097 3.35821 43.0338C3.99785 42.8828 4.70856 42.9005 5.32156 42.6962C5.33273 42.6923 5.343 42.6861 5.35176 42.6781C5.36051 42.6701 5.36758 42.6605 5.37255 42.6497C5.37752 42.6389 5.38028 42.6273 5.38068 42.6154C5.38107 42.6036 5.3791 42.5918 5.37486 42.5807C4.91951 42.362 4.4471 42.1808 3.96231 42.0388C3.76624 41.9577 3.57623 41.8627 3.39374 41.7545C3.35724 41.7162 3.33146 41.6689 3.31899 41.6174C3.30651 41.566 3.30778 41.5122 3.32267 41.4613C3.44909 41.3705 3.58281 41.2903 3.72245 41.2215C4.26798 41.0498 4.80464 40.8512 5.33044 40.6263L5.39263 40.5197C5.25258 40.4178 5.08584 40.3592 4.9129 40.3509C4.44205 40.2975 3.95343 40.2265 3.4737 40.1554C3.42772 40.1471 3.38501 40.1261 3.35044 40.0947C3.31588 40.0632 3.29086 40.0227 3.27825 39.9777C3.24824 39.8133 3.24824 39.6447 3.27825 39.4802C3.46434 39.4292 3.66073 39.4292 3.84682 39.4802C4.93955 39.6046 5.97008 39.7912 7.03616 39.9333Z" fill="white"/>
<path d="M7.46246 46.7917L5.54353 46.3564C4.9106 46.2019 4.2701 46.0804 3.6246 45.9921C3.55515 46.1783 3.55515 46.3834 3.6246 46.5696L3.73121 46.6762C4.00792 46.6853 4.2698 46.8034 4.45969 47.0049C4.52188 47.4669 4.62849 47.8933 4.66402 48.3819C4.53965 48.6928 4.04215 48.6928 4.02438 49.0571C4.07768 49.2436 3.97108 49.5635 4.22871 49.5812C4.62849 49.3858 4.97496 49.1015 5.37474 48.9061C5.54353 48.7195 5.80117 48.684 5.96996 48.5152C6.13787 48.4239 6.28826 48.3036 6.41416 48.1598C6.51259 48.0733 6.61644 47.9932 6.7251 47.9199C6.92434 47.8077 7.11445 47.68 7.29367 47.5379C7.42868 47.4817 7.54334 47.3856 7.62238 47.2625C7.6403 47.1769 7.63492 47.0881 7.6068 47.0052C7.57867 46.9224 7.52882 46.8487 7.46246 46.7917V46.7917ZM5.33032 47.9732C5.17324 47.7054 5.11067 47.3925 5.15264 47.0849C5.21801 47.0491 5.29133 47.0303 5.36585 47.0303C5.44037 47.0303 5.5137 47.0491 5.57907 47.0849C5.88023 47.1246 6.17744 47.19 6.46746 47.2803C6.52077 47.2803 6.46746 47.3691 6.46746 47.4047C6.1544 47.7045 5.75802 47.9027 5.33032 47.9732V47.9732Z" fill="white"/>
<path d="M8.72407 51.1981C8.75852 51.2812 8.77626 51.3703 8.77626 51.4602C8.77626 51.5501 8.75852 51.6392 8.72407 51.7223C8.46343 52.01 8.23136 52.3224 8.03112 52.6551C8.04432 52.6874 8.0663 52.7153 8.09456 52.7357C8.12283 52.7561 8.15625 52.7682 8.19103 52.7706C8.55478 52.8472 8.91371 52.9451 9.26599 53.0637C9.34764 53.165 9.40786 53.2818 9.44299 53.407C9.47812 53.5322 9.48741 53.6633 9.47032 53.7922C9.33404 53.8325 9.18905 53.8325 9.05277 53.7922C8.56265 53.6228 8.06087 53.4892 7.55139 53.3925C7.35858 53.5011 7.19656 53.657 7.08054 53.8455C6.74867 54.2935 6.38968 54.7207 6.00558 55.1248C5.91519 55.0652 5.85149 54.9729 5.8279 54.8672C5.77935 54.7866 5.74868 54.6965 5.73795 54.603C5.72722 54.5095 5.73669 54.4148 5.76571 54.3253C6.00558 54.0499 6.20991 53.7567 6.47643 53.4991C6.53542 53.4561 6.58151 53.3977 6.6097 53.3304C6.63789 53.263 6.64711 53.1893 6.63634 53.1171C6.35608 52.9765 6.05678 52.8778 5.74795 52.8239C5.54309 52.8019 5.34419 52.7417 5.16161 52.6462C5.03526 52.443 4.96478 52.2101 4.95728 51.971C5.003 51.949 5.0531 51.9375 5.10386 51.9375C5.15462 51.9375 5.20472 51.949 5.25045 51.971C5.81902 52.1665 6.44089 52.282 7.10719 52.4152C7.29398 52.3605 7.45286 52.2366 7.55139 52.0687C7.91563 51.669 8.17326 51.2425 8.57304 50.8783C8.61963 50.9177 8.65722 50.9666 8.68327 51.0218C8.70933 51.077 8.72324 51.1371 8.72407 51.1981V51.1981Z" fill="white"/>
<path d="M10.5897 56.3331C10.6161 56.4003 10.6151 56.4752 10.5869 56.5416C10.5586 56.6081 10.5054 56.6608 10.4386 56.6884L10.1099 56.8572C9.91449 56.9905 9.72792 57.0438 9.55913 57.1504C9.39033 57.257 9.24819 57.2836 9.1327 57.3725L7.45364 58.1809C7.43626 58.1986 7.41553 58.2127 7.39265 58.2223C7.36977 58.232 7.3452 58.2369 7.32038 58.2369C7.29556 58.2369 7.27098 58.232 7.2481 58.2223C7.22522 58.2127 7.20449 58.1986 7.18712 58.1809C7.11799 58.1084 7.06611 58.0212 7.03535 57.9258C7.00459 57.8304 6.99573 57.7294 7.00944 57.6301C7.30261 57.4435 7.64908 57.3369 7.94225 57.1681C8.4131 56.9905 8.83065 56.6973 9.27484 56.5285C9.59344 56.2943 9.94332 56.1059 10.3143 55.9688C10.5008 55.9688 10.5186 56.2176 10.5897 56.3331Z" fill="white"/>
<path d="M12.4375 59.5668C12.4328 59.6547 12.4108 59.7407 12.3727 59.82C12.3345 59.8993 12.2811 59.9702 12.2154 60.0288C11.8334 60.4819 11.5047 60.9172 11.1582 61.4324C11.1582 61.4324 11.0872 61.5479 11.1582 61.5923C11.3921 61.594 11.6252 61.5641 11.8512 61.5035C12.322 61.3969 12.7396 61.2548 13.2459 61.1659C13.3578 61.2037 13.459 61.2678 13.5409 61.3528C13.6229 61.4379 13.6832 61.5413 13.7168 61.6545C13.648 61.87 13.5107 62.0572 13.3259 62.1876C13.2591 62.2361 13.2093 62.3045 13.1838 62.383C12.7985 62.656 12.4306 62.9527 12.0822 63.2714L11.9222 63.458L10.9628 64.2931C10.9031 64.2892 10.8459 64.2677 10.7985 64.2314C10.7511 64.195 10.7155 64.1453 10.6963 64.0887C10.6474 64.0433 10.6124 63.9851 10.5951 63.9206C10.5778 63.8562 10.579 63.7883 10.5985 63.7245C10.977 63.3425 11.3806 62.9864 11.8067 62.6584C11.9415 62.5187 12.0553 62.3601 12.1443 62.1876C12.0433 62.155 11.9345 62.155 11.8334 62.1876C11.1582 62.2942 10.5275 62.5163 9.87893 62.6051C9.83088 62.5901 9.78718 62.5637 9.75159 62.5281C9.716 62.4925 9.68958 62.4488 9.6746 62.4008V62.2764C10.0744 61.6545 10.6252 61.1304 10.9717 60.4996C10.9717 60.4996 10.9717 60.4108 10.9006 60.4285C10.272 60.6548 9.65521 60.9127 9.05273 61.2015C9.0079 61.2115 8.9612 61.2094 8.91746 61.1953C8.87373 61.1813 8.83455 61.1558 8.80398 61.1215C8.74234 61.0607 8.69517 60.9868 8.66595 60.9053C8.63674 60.8238 8.62622 60.7368 8.63518 60.6506C9.22152 60.3575 9.80786 60.1176 10.412 59.8422C11.0161 59.5668 11.4514 59.3447 11.9844 59.1404C12.0932 59.1597 12.194 59.2104 12.2745 59.2861C12.3549 59.3619 12.4116 59.4594 12.4375 59.5668V59.5668Z" fill="white"/>
<path d="M15.7601 64.3552C15.0405 64.6306 14.3031 64.906 13.6191 65.2436C13.1081 65.4245 12.6069 65.6321 12.1177 65.8655C12.1211 65.9426 12.1421 66.0179 12.179 66.0856C12.216 66.1534 12.2679 66.2118 12.3309 66.2564C12.6063 66.6029 12.935 66.1675 13.2193 66.2031C13.579 66.453 13.902 66.752 14.1787 67.0915C14.2432 67.2155 14.2675 67.3565 14.2484 67.4949C14.2293 67.6333 14.1677 67.7624 14.0721 67.8644C14.0614 67.9862 14.0869 68.1086 14.1454 68.216C14.2039 68.3235 14.2927 68.4113 14.4008 68.4685C14.4267 68.491 14.4598 68.5034 14.4941 68.5034C14.5284 68.5034 14.5615 68.491 14.5874 68.4685C14.7202 68.2624 14.8136 68.0335 14.8628 67.7933C15.0556 67.5412 15.2057 67.259 15.307 66.9582C15.3989 66.8431 15.4655 66.7099 15.5025 66.5673C15.7512 66.0965 15.9644 65.6256 16.1865 65.1637C16.2524 65.073 16.2895 64.9647 16.2931 64.8527C16.2445 64.7368 16.1719 64.6325 16.08 64.5468C15.9881 64.461 15.8791 64.3957 15.7601 64.3552ZM14.7029 66.5584C14.5013 66.5106 14.3261 66.3864 14.2143 66.212C14.1675 66.1708 14.1298 66.1203 14.1038 66.0637C14.0778 66.0071 14.064 65.9456 14.0633 65.8833C14.3102 65.7063 14.5828 65.5685 14.8717 65.4746C14.9249 65.4458 14.9844 65.4308 15.0449 65.4308C15.1054 65.4308 15.165 65.4458 15.2182 65.4746C15.1047 65.8608 14.9308 66.2266 14.7029 66.5584V66.5584Z" fill="white"/>
<path d="M78.7916 28.6951C78.7872 28.6381 78.7676 28.5832 78.7348 28.5364C78.7019 28.4895 78.6572 28.4523 78.6051 28.4286C78.223 28.4819 77.8855 28.6862 77.4946 28.704C77.4501 28.704 77.4324 28.6507 77.4501 28.5974C77.6722 28.1798 78.0365 27.8067 78.3385 27.3981C78.3519 27.1707 78.2962 26.9446 78.1786 26.7495C78.1786 26.5985 77.9921 26.6163 77.921 26.7495L77.2014 27.7268C77.172 27.7883 77.1285 27.8421 77.0745 27.8838C77.0205 27.9254 76.9575 27.9538 76.8905 27.9666C76.7089 27.8141 76.5191 27.6717 76.3219 27.5402C76.1309 27.477 75.9272 27.4617 75.7289 27.4958C75.5306 27.5299 75.3437 27.6123 75.1847 27.7356C74.4207 28.2509 74.936 29.2815 75.0959 29.93C75.108 29.9857 75.1327 30.0379 75.1681 30.0825C75.2036 30.1272 75.2488 30.1631 75.3002 30.1876C75.8244 30.1165 76.2686 29.8678 76.7572 29.7701C77.2458 29.6723 78.0009 29.3881 78.6051 29.166L78.8183 29.0327C78.8534 28.921 78.8438 28.8 78.7916 28.6951V28.6951ZM75.7089 29.317C75.5134 29.317 75.5134 29.0061 75.4601 28.8195C75.4564 28.7378 75.4773 28.6569 75.5201 28.5872C75.5628 28.5175 75.6255 28.4623 75.7 28.4286C75.7714 28.359 75.8621 28.3124 75.9604 28.295C76.0586 28.2776 76.1598 28.2901 76.2508 28.3309C76.3179 28.3606 76.3784 28.4034 76.4288 28.4568C76.4791 28.5101 76.5183 28.5731 76.544 28.6418C76.574 28.6871 76.5942 28.7381 76.6034 28.7917C76.6126 28.8452 76.6105 28.9001 76.5973 28.9527C76.3419 29.1563 76.0337 29.2827 75.7089 29.317V29.317Z" fill="white"/>
<path d="M79.5023 31.0938C79.6947 31.3441 79.8125 31.6436 79.8424 31.9579C79.8722 32.2722 79.8129 32.5885 79.6711 32.8706C79.5528 33.0622 79.3948 33.2263 79.2079 33.3519C79.021 33.4776 78.8094 33.5618 78.5873 33.5991C77.8588 33.7501 77.1481 33.9544 76.3929 34.0699C76.3545 34.075 76.3154 34.0673 76.2817 34.048C76.248 34.0288 76.2216 33.999 76.2064 33.9633C76.1254 33.8045 76.0974 33.6239 76.1264 33.448C76.3347 33.3334 76.5647 33.2638 76.8016 33.2437L78.4807 32.8795C78.613 32.8478 78.7356 32.7844 78.8378 32.6946C78.9399 32.6048 79.0186 32.4914 79.067 32.3642C79.1265 32.1956 79.1337 32.013 79.0878 31.8402C79.0418 31.6675 78.9448 31.5126 78.8094 31.3959C78.6741 31.3238 78.5254 31.2803 78.3726 31.2681C78.2197 31.2559 78.066 31.2752 77.921 31.3248C77.1925 31.4492 76.4996 31.6713 75.7622 31.7334C75.6989 31.641 75.6573 31.5355 75.6404 31.4248C75.6235 31.314 75.6317 31.2009 75.6645 31.0938C75.8777 30.9878 76.1051 30.913 76.3396 30.8717C76.8194 30.7829 77.2902 30.6585 77.7788 30.5608C78.0856 30.4566 78.4175 30.4521 78.727 30.5478C79.0365 30.6435 79.3079 30.8346 79.5023 31.0938V31.0938Z" fill="white"/>
<path d="M76.9083 34.8516C76.922 35.0511 76.993 35.2423 77.1126 35.4025C77.4706 35.4007 77.8275 35.365 78.1787 35.2958C78.8184 35.2248 79.4402 35.0737 80.0799 35.0471C80.1272 35.0491 80.1723 35.0682 80.2066 35.1008C80.2409 35.1335 80.2622 35.1776 80.2664 35.2248C80.3099 35.3697 80.3099 35.5241 80.2664 35.669C79.9887 35.8021 79.6859 35.8748 79.378 35.8822C78.7562 35.9266 78.1521 36.0687 77.5302 36.1398C77.4578 36.1367 77.3857 36.1503 77.3194 36.1795C77.2532 36.2088 77.1946 36.253 77.1482 36.3086C77.1892 36.5204 77.1675 36.7396 77.086 36.9394C76.9824 36.9844 76.8701 37.0057 76.7573 37.0016C76.7117 37.008 76.6654 36.9981 76.6264 36.9738C76.5874 36.9494 76.5583 36.9121 76.5441 36.8683C76.4552 36.2287 76.3397 35.5979 76.3042 34.9227C76.3256 34.8636 76.3659 34.8132 76.419 34.7794C76.472 34.7457 76.5348 34.7305 76.5974 34.7362C76.7395 34.745 76.8728 34.7273 76.9083 34.8516Z" fill="white"/>
<path d="M80.4886 37.4724C80.5733 37.918 80.6238 38.3695 80.6396 38.8228C80.666 38.9846 80.666 39.1496 80.6396 39.3114C80.6396 39.4091 80.6396 39.4713 80.382 39.498C79.2182 39.569 78.0633 39.7023 76.8906 39.6934C76.8458 39.6486 76.812 39.5939 76.792 39.5338C76.772 39.4737 76.7662 39.4097 76.7751 39.3469L76.6863 38.0055C76.6736 37.9502 76.6809 37.8921 76.7069 37.8417C76.7329 37.7913 76.776 37.7517 76.8284 37.7301C76.965 37.6738 77.1183 37.6738 77.2548 37.7301C77.3493 38.0806 77.3971 38.442 77.397 38.805C77.5119 38.8757 77.6423 38.9174 77.7769 38.9267C77.9115 38.936 78.0463 38.9125 78.1699 38.8583C78.2378 38.8129 78.2897 38.7473 78.3184 38.6708C78.347 38.5943 78.351 38.5108 78.3298 38.4319V37.7034C78.3815 37.652 78.4449 37.6139 78.5145 37.5923C78.5841 37.5706 78.6578 37.5661 78.7296 37.579C78.7717 37.5791 78.8131 37.5908 78.8491 37.6127C78.8851 37.6346 78.9144 37.666 78.9339 37.7034L79.0316 38.6895C79.1738 38.9472 79.5025 38.7606 79.7423 38.7961C79.7946 38.7907 79.8444 38.7714 79.8866 38.7401C79.9288 38.7089 79.9618 38.6668 79.9822 38.6185V37.6235C79.9966 37.5747 80.0256 37.5315 80.0654 37.4997C80.1051 37.468 80.1536 37.4491 80.2043 37.4458C80.2998 37.4419 80.3954 37.4508 80.4886 37.4724V37.4724Z" fill="white"/>
<path d="M80.4353 41.0705C80.3245 40.9195 80.1737 40.8026 80 40.7329C79.8244 40.6557 79.6321 40.6242 79.441 40.6412C79.25 40.6583 79.0663 40.7235 78.9072 40.8306C78.8118 40.983 78.6679 41.0988 78.4986 41.1593C78.3666 41.0176 78.198 40.9151 78.0114 40.8634C77.8248 40.8116 77.6275 40.8126 77.4414 40.8661C77.2732 40.9355 77.1249 41.0458 77.0101 41.1869C76.8953 41.3281 76.8176 41.4957 76.784 41.6746C76.728 42.1343 76.7072 42.5976 76.7218 43.0605C76.7365 43.0959 76.7595 43.1274 76.7889 43.1521C76.8182 43.1768 76.8531 43.1942 76.8906 43.2026C78.0633 43.2648 79.2182 43.3536 80.4442 43.3714C80.4894 43.3637 80.5313 43.3426 80.5645 43.311C80.5977 43.2793 80.6208 43.2385 80.6307 43.1937C80.7608 42.4814 80.6932 41.7471 80.4353 41.0705ZM77.5125 42.4386C77.4815 42.4212 77.455 42.3969 77.435 42.3677C77.415 42.3384 77.402 42.3049 77.397 42.2698C77.3881 42.1575 77.4052 42.0446 77.4467 41.9399C77.4883 41.8352 77.5534 41.7414 77.6368 41.6657C77.691 41.6403 77.7497 41.626 77.8095 41.6234C77.8693 41.6209 77.929 41.6302 77.9852 41.6508C78.0413 41.6715 78.0929 41.703 78.1368 41.7437C78.1807 41.7844 78.2161 41.8334 78.2409 41.8878C78.2849 42.0447 78.2849 42.2106 78.2409 42.3675C78.1329 42.4339 78.0111 42.4748 77.8849 42.4871C77.7587 42.4994 77.6313 42.4828 77.5125 42.4386V42.4386ZM79.9555 42.483C79.8087 42.5615 79.6391 42.5866 79.4758 42.5541C79.3248 42.483 79.0583 42.5541 79.0138 42.3675C78.9659 42.2072 78.9683 42.0361 79.0208 41.8772C79.0732 41.7184 79.1731 41.5794 79.307 41.4791C79.3907 41.4308 79.4857 41.4053 79.5824 41.4053C79.6791 41.4053 79.7741 41.4308 79.8578 41.4791L79.9378 41.5946C80.028 41.883 80.0341 42.1912 79.9555 42.483V42.483Z" fill="white"/>
<path d="M77.1303 44.4197C77.1584 44.4857 77.1729 44.5567 77.1729 44.6285C77.1729 44.7002 77.1584 44.7712 77.1303 44.8372C77.0784 45.0794 77.0605 45.3275 77.077 45.5746C77.2845 45.7175 77.5391 45.7748 77.7877 45.7345C77.8282 45.735 77.8676 45.721 77.8986 45.6949C77.9296 45.6688 77.9501 45.6324 77.9565 45.5924C78.0115 45.2509 78.0857 44.9128 78.1786 44.5796C78.2613 44.5437 78.3505 44.5251 78.4407 44.5251C78.5309 44.5251 78.6201 44.5437 78.7028 44.5796C78.7393 44.6251 78.7634 44.6793 78.7728 44.7369C78.7821 44.7945 78.7764 44.8536 78.7561 44.9083C78.6918 45.201 78.6918 45.5041 78.7561 45.7967C78.8759 45.8737 79.0103 45.9253 79.1509 45.9483C79.2915 45.9712 79.4353 45.965 79.5734 45.93C79.6804 45.7415 79.7211 45.5225 79.6889 45.3081C79.6735 45.1984 79.684 45.0867 79.7195 44.9818C79.755 44.877 79.8145 44.7818 79.8932 44.704C80.0474 44.6983 80.2013 44.7224 80.3463 44.7751C80.3991 44.9031 80.3991 45.0468 80.3463 45.1748C80.3065 45.6569 80.2293 46.1351 80.1153 46.6052C80.0921 46.6491 80.0577 46.6862 80.0156 46.7127C79.9735 46.7392 79.9252 46.7542 79.8755 46.7562C78.7383 46.6318 77.5923 46.4808 76.4729 46.3298C76.4433 46.3203 76.4168 46.3029 76.3964 46.2794C76.376 46.2559 76.3625 46.2272 76.3574 46.1965C76.3945 45.6011 76.4627 45.008 76.5618 44.4197C76.6495 44.3738 76.747 44.3498 76.846 44.3498C76.9451 44.3498 77.0426 44.3738 77.1303 44.4197V44.4197Z" fill="white"/>
<path d="M79.3958 48.3819C79.1344 48.039 78.7885 47.7696 78.392 47.6001C78.0344 47.44 77.6373 47.39 77.2513 47.4564C76.8652 47.5229 76.5077 47.7028 76.2243 47.9733C75.8933 48.5215 75.659 49.1225 75.5313 49.75C75.5086 49.7956 75.4968 49.8458 75.4968 49.8966C75.4968 49.9475 75.5086 49.9977 75.5313 50.0432C76.6418 50.3986 77.8145 50.6384 78.9339 50.9316C78.9852 50.9544 79.0421 50.9615 79.0974 50.952C79.1528 50.9426 79.204 50.9169 79.2448 50.8783C79.4491 50.1498 79.8489 49.217 79.3958 48.3819ZM78.8095 50.0254C78.7718 50.0658 78.7225 50.0935 78.6684 50.1047C78.6143 50.1158 78.558 50.1099 78.5074 50.0876C77.8323 49.9277 77.1127 49.75 76.4019 49.5635C76.3457 49.4679 76.316 49.359 76.316 49.2481C76.316 49.1372 76.3457 49.0283 76.4019 48.9327C76.4735 48.7468 76.5937 48.5836 76.75 48.4601C76.9063 48.3366 77.0929 48.2574 77.2903 48.2309C77.5881 48.2029 77.8876 48.2618 78.1525 48.4006C78.4174 48.5393 78.6364 48.752 78.7828 49.0127C78.9023 49.3379 78.9147 49.6927 78.8184 50.0254H78.8095Z" fill="white"/>
<path d="M75.4425 52.7084C75.4775 52.7476 75.5016 52.7953 75.5125 52.8467C75.5234 52.8981 75.5208 52.9515 75.5047 53.0016C75.3898 53.0528 75.2902 53.1329 75.2154 53.2341C75.1407 53.3353 75.0935 53.4541 75.0783 53.579C75.0674 53.6874 75.0992 53.7958 75.1671 53.8811C75.2075 53.9272 75.2586 53.9627 75.3159 53.9844C75.3732 54.0061 75.435 54.0133 75.4958 54.0054C75.8131 53.8861 76.0861 53.6721 76.2776 53.3925C76.4025 53.2788 76.5507 53.1938 76.7117 53.1432C76.8728 53.0925 77.043 53.0776 77.2104 53.0993C77.4188 53.1295 77.6166 53.2101 77.7869 53.3339C77.9571 53.4577 78.0947 53.6211 78.1877 53.81C78.2791 54.0781 78.296 54.366 78.2365 54.643C78.1771 54.9199 78.0435 55.1755 77.8501 55.3825C77.657 55.4286 77.485 55.5381 77.3615 55.6934C77.2549 55.7467 77.1927 55.649 77.1394 55.5601C77.0344 55.4224 76.9781 55.2536 76.9795 55.0804C77.1141 55.0183 77.2334 54.9271 77.3286 54.8135C77.4238 54.6998 77.4927 54.5664 77.5303 54.423C77.546 54.3292 77.5311 54.2328 77.488 54.148C77.4448 54.0633 77.3755 53.9946 77.2904 53.9521C77.2275 53.9187 77.1573 53.9012 77.0861 53.9012C77.0148 53.9012 76.9446 53.9187 76.8817 53.9521C76.6205 54.2198 76.3211 54.4473 75.9933 54.6273C75.9219 54.7037 75.8323 54.7609 75.733 54.7935C75.6336 54.8261 75.5276 54.8331 75.4248 54.8139C75.1112 54.7448 74.8298 54.5728 74.6252 54.3253C74.499 54.1161 74.4324 53.8765 74.4324 53.6323C74.4324 53.3881 74.499 53.1485 74.6252 52.9394C74.7438 52.7102 74.9341 52.5261 75.1671 52.4152C75.3359 52.4152 75.3537 52.6196 75.4425 52.7084Z" fill="white"/>
<path d="M73.7367 55.4802C74.7938 55.9511 75.8333 56.4397 76.8638 56.9105C76.9028 56.9745 76.9188 57.0499 76.9092 57.1242C76.8995 57.1986 76.8646 57.2674 76.8105 57.3192C76.709 57.3785 76.6111 57.4438 76.5173 57.5146C75.5134 57.1326 74.5451 56.6884 73.559 56.2709C73.4435 56.1465 73.097 56.1287 73.2214 55.8711C73.2698 55.6933 73.3722 55.535 73.5146 55.418L73.7367 55.4802Z" fill="white"/>
<path d="M76.1175 58.7761C75.7 58.8206 75.2913 58.8472 74.8916 58.9094C74.8154 58.9328 74.7354 58.941 74.6561 58.9333C74.5769 58.9257 74.4999 58.9025 74.4296 58.865C74.4261 58.5595 74.3627 58.2577 74.243 57.9766C74.1345 57.7993 73.9814 57.6536 73.7991 57.5538C73.6167 57.4541 73.4114 57.4038 73.2036 57.408C72.9175 57.4655 72.6517 57.5976 72.4332 57.7911C72.2148 57.9846 72.0514 58.2325 71.9599 58.5096C71.8188 58.7219 71.7138 58.9561 71.6489 59.2026C72.253 59.6912 72.9815 59.9488 73.6212 60.4019C73.9943 60.5707 74.3496 60.8461 74.7494 61.0238L75.0604 60.9349L75.2291 60.6507C75.2538 60.6126 75.2629 60.5665 75.2546 60.5219C75.2463 60.4773 75.2213 60.4375 75.1847 60.4108C74.9093 60.2065 74.5895 60.0821 74.2963 59.86C74.2853 59.8517 74.2763 59.841 74.2702 59.8286C74.264 59.8163 74.2608 59.8027 74.2608 59.7889C74.2608 59.7751 74.264 59.7615 74.2702 59.7492C74.2763 59.7368 74.2853 59.7261 74.2963 59.7178C74.7072 59.6368 75.1225 59.5804 75.5401 59.549C75.5745 59.4973 75.6206 59.4543 75.6745 59.4234C75.7285 59.3926 75.7889 59.3748 75.851 59.3714C76.0004 59.2232 76.1104 59.0399 76.1708 58.8383C76.2241 58.785 76.1442 58.785 76.1175 58.7761ZM73.5057 59.3447C73.2682 59.3048 73.0433 59.2105 72.8483 59.0693C72.7348 59.0079 72.6444 58.9112 72.5906 58.7939C72.6163 58.6888 72.6657 58.5909 72.735 58.5078C72.8043 58.4246 72.8916 58.3584 72.9904 58.3142C73.0862 58.2765 73.1909 58.2673 73.2918 58.2878C73.3927 58.3083 73.4855 58.3576 73.559 58.4297C73.6188 58.4896 73.6643 58.5623 73.692 58.6423C73.7197 58.7223 73.7289 58.8076 73.7189 58.8916C73.7135 58.9781 73.6911 59.0626 73.653 59.1403C73.6149 59.2181 73.5618 59.2875 73.4968 59.3447H73.5057Z" fill="white"/>
<path d="M71.409 60.3575V60.4641L70.8671 61.3525C70.885 61.4256 70.918 61.4941 70.9639 61.5538C71.0097 61.6134 71.0675 61.6629 71.1336 61.6989C71.249 61.8242 71.4079 61.9005 71.5778 61.9122C71.871 61.6723 71.9865 61.308 72.2707 61.0238C72.365 61.0212 72.4582 61.0437 72.541 61.089C72.6237 61.1343 72.6929 61.2006 72.7416 61.2814V61.4146L72.1997 62.2497C72.2548 62.3787 72.3351 62.4953 72.4357 62.5929C72.5364 62.6905 72.6555 62.7672 72.786 62.8183C72.8124 62.8309 72.8412 62.8375 72.8704 62.8375C72.8996 62.8375 72.9285 62.8309 72.9548 62.8183C73.2213 62.5518 73.399 62.2231 73.63 61.9299C73.7254 61.9319 73.8188 61.9582 73.9012 62.0064C73.9836 62.0546 74.0524 62.1231 74.1008 62.2053C74.0309 62.4531 73.8995 62.6793 73.7188 62.8627C73.55 63.076 73.4434 63.3158 73.2746 63.5201C73.1808 63.6512 73.0466 63.748 72.8926 63.7955C72.4596 63.5262 72.0441 63.2294 71.6489 62.9072C71.0714 62.5607 70.494 62.1876 69.9343 61.7256C69.801 61.5657 70.0053 61.4058 70.0764 61.2636C70.2985 60.8994 70.6094 60.5529 70.8227 60.1887C70.8531 60.1413 70.8983 60.1052 70.9513 60.0859C71.0042 60.0667 71.062 60.0653 71.1158 60.0821C71.2357 60.147 71.3366 60.2419 71.409 60.3575V60.3575Z" fill="white"/>
<path d="M69.1791 62.6407C69.6145 63.0049 70.0054 63.4047 70.4584 63.7778C70.7673 63.958 71.0219 64.2182 71.1954 64.5308C71.3689 64.8435 71.455 65.1972 71.4445 65.5546C71.3377 65.986 71.0831 66.3664 70.725 66.6295C70.5364 66.7722 70.3118 66.8595 70.0764 66.8814C69.8409 66.9034 69.6041 66.8593 69.3924 66.7539C69.0089 66.5179 68.6437 66.2536 68.2996 65.9633C67.9354 65.5812 67.4734 65.2703 67.127 64.835C67.1555 64.7324 67.205 64.6368 67.2723 64.5543C67.3396 64.4717 67.4232 64.404 67.5178 64.3553H67.6067C67.8643 64.5774 68.1575 64.7906 68.3974 65.0304L69.57 66.0343C69.6663 66.0835 69.7729 66.1091 69.881 66.1091C69.9891 66.1091 70.0956 66.0835 70.1919 66.0343C70.3157 65.9886 70.4261 65.9126 70.513 65.8133C70.5999 65.714 70.6605 65.5945 70.6894 65.4658C70.7055 65.291 70.6725 65.1152 70.594 64.9582C70.5155 64.8013 70.3947 64.6693 70.2452 64.5774C69.7299 64.0799 69.1525 63.609 68.655 63.0937C68.7047 62.9373 68.7898 62.7944 68.9037 62.6762C68.9415 62.6446 68.9874 62.6244 69.0362 62.6181C69.0851 62.6118 69.1346 62.6197 69.1791 62.6407V62.6407Z" fill="white"/>
<path d="M67.2425 68.4863C67.1943 68.4463 67.1557 68.396 67.1295 68.3391C67.1034 68.2822 67.0904 68.2202 67.0915 68.1576C67.3441 67.8959 67.554 67.5961 67.7133 67.2692C67.7493 67.1181 67.7536 66.9612 67.7261 66.8083C67.6986 66.6554 67.6398 66.5099 67.5534 66.3808C67.4044 66.1755 67.2174 66.0006 67.0026 65.8655C66.8523 65.7904 66.6865 65.7513 66.5185 65.7513C66.3504 65.7513 66.1846 65.7904 66.0343 65.8655C65.9716 65.8974 65.9145 65.9394 65.8655 65.9899C65.5156 66.2616 65.186 66.5585 64.8794 66.8783C64.8599 66.912 64.8496 66.9503 64.8496 66.9893C64.8496 67.0283 64.8599 67.0666 64.8794 67.1004C65.7678 67.9888 66.5229 68.7972 67.3846 69.6412C67.4012 69.6587 67.4212 69.6726 67.4434 69.6821C67.4655 69.6916 67.4894 69.6965 67.5135 69.6965C67.5376 69.6965 67.5614 69.6916 67.5835 69.6821C67.6057 69.6726 67.6257 69.6587 67.6423 69.6412C67.7744 69.5495 67.8863 69.4315 67.971 69.2947C67.7564 69.0011 67.5123 68.7302 67.2425 68.4863V68.4863ZM66.8161 67.5179C66.7823 67.5679 66.7354 67.6075 66.6805 67.6326C66.6257 67.6577 66.565 67.6672 66.5051 67.6601C66.2714 67.4834 66.0674 67.2704 65.901 67.0293C65.8815 67.0021 65.871 66.9695 65.871 66.936C65.871 66.9026 65.8815 66.8699 65.901 66.8427C65.9832 66.731 66.0949 66.6444 66.2236 66.5926C66.3523 66.5408 66.4928 66.5259 66.6295 66.5496C66.7645 66.6402 66.8721 66.7662 66.9404 66.9138C66.9628 67.0176 66.9633 67.125 66.9419 67.229C66.9205 67.333 66.8776 67.4314 66.8161 67.5179Z" fill="white"/>
<path d="M60.4107 79.7333L57.861 77.2903C57.7541 77.147 57.5999 77.0462 57.4257 77.006C57.2985 77.0247 57.178 77.0752 57.0755 77.1529C56.9731 77.2305 56.8918 77.3328 56.8394 77.4502C56.8394 77.8144 56.8394 78.1875 56.9104 78.5251C56.9548 79.4579 57.0348 80.3819 57.0792 81.3147L57.1236 81.3858C57.2006 81.3958 57.2788 81.3854 57.3505 81.3558C57.4222 81.3262 57.4849 81.2783 57.5323 81.217C57.6117 81.207 57.6861 81.1729 57.7455 81.1192C57.7239 80.8536 57.748 80.5861 57.8166 80.3286C58.193 80.0972 58.5882 79.8981 58.9982 79.7333C59.318 79.5734 59.4957 79.9821 59.7089 80.1331C59.8151 80.1505 59.9238 80.1435 60.0269 80.1128C60.13 80.082 60.2248 80.0282 60.3041 79.9554C60.3106 79.9266 60.3236 79.8996 60.3421 79.8766C60.3605 79.8535 60.384 79.8349 60.4107 79.8222C60.4131 79.7926 60.4131 79.7629 60.4107 79.7333V79.7333ZM57.8255 79.529C57.7544 79.529 57.7455 79.4579 57.7278 79.3958C57.6816 79.0719 57.6549 78.7456 57.6478 78.4185C57.6425 78.3868 57.6498 78.3543 57.668 78.3278C57.6862 78.3013 57.714 78.2828 57.7455 78.2764C58.0491 78.4784 58.324 78.7204 58.5628 78.996C58.5792 79.0276 58.5877 79.0626 58.5877 79.0982C58.5877 79.1337 58.5792 79.1687 58.5628 79.2003C58.3347 79.3634 58.0741 79.4755 57.7988 79.529H57.8255Z" fill="white"/>
<path d="M54.6184 78.5695C55.0359 79.6711 55.4624 80.7639 55.8888 81.8566C55.894 81.8907 55.8858 81.9254 55.8659 81.9536C55.846 81.9817 55.816 82.0011 55.7822 82.0076C55.6498 82.0589 55.522 82.1213 55.4002 82.1942C55.3511 82.2001 55.3016 82.188 55.2608 82.1603C55.22 82.1325 55.1906 82.0909 55.1781 82.0431C54.7783 80.9326 54.2897 79.8488 53.8899 78.7383C53.9446 78.6422 54.0216 78.5606 54.1143 78.5003C54.2071 78.4401 54.3129 78.4029 54.4229 78.3918C54.4698 78.3979 54.5136 78.4182 54.5486 78.45C54.5835 78.4818 54.6079 78.5235 54.6184 78.5695V78.5695Z" fill="white"/>
<path d="M26.6519 79.067C26.8196 78.9583 26.9593 78.8115 27.0597 78.6387C27.16 78.4658 27.2181 78.2716 27.2293 78.072C27.2197 77.8745 27.1621 77.6823 27.0615 77.512C26.9609 77.3417 26.8203 77.1985 26.6519 77.0948C26.2922 76.8798 25.9182 76.6898 25.5325 76.5262C25.499 76.5017 25.4585 76.4885 25.417 76.4885C25.3755 76.4885 25.335 76.5017 25.3015 76.5262C24.8307 77.4946 24.4131 78.4896 23.8801 79.4402C23.7871 79.5591 23.7259 79.6997 23.7024 79.8488C23.7663 79.9324 23.8482 80.0006 23.942 80.0482C24.0358 80.0959 24.1391 80.1219 24.2443 80.1242C24.4306 79.8905 24.5803 79.6299 24.6885 79.3513C24.7369 79.2399 24.8258 79.151 24.9373 79.1026C24.9615 79.1141 24.981 79.1337 24.9923 79.158C25.0037 79.1823 25.0062 79.2099 24.9994 79.2358C25.1131 79.6083 25.1817 79.9931 25.2038 80.3819C25.2525 80.539 25.344 80.6795 25.4679 80.7878C25.5918 80.896 25.7433 80.9677 25.9056 80.9949C25.9225 80.9934 25.9385 80.9866 25.9513 80.9754C25.9641 80.9642 25.973 80.9492 25.9767 80.9327C25.9399 80.4765 25.8776 80.0227 25.7901 79.5734C25.7901 79.4313 25.7013 79.2447 25.879 79.1559C26.1399 79.1978 26.4073 79.1671 26.6519 79.067V79.067ZM25.5058 78.5162C25.4701 78.5096 25.4364 78.495 25.4071 78.4735C25.3779 78.4519 25.3539 78.424 25.337 78.3919C25.3903 78.1025 25.5088 77.829 25.6835 77.5923C25.75 77.51 25.8453 77.456 25.95 77.4413C26.0567 77.4814 26.1533 77.5443 26.2331 77.6256C26.3129 77.7069 26.374 77.8047 26.412 77.9121C26.4255 78.0115 26.4148 78.1127 26.3808 78.2071C26.3468 78.3015 26.2904 78.3862 26.2165 78.4541C26.1152 78.5318 25.9918 78.5754 25.8641 78.5786C25.7364 78.5817 25.611 78.5444 25.5058 78.4718V78.5162Z" fill="white"/>
<path d="M52.6196 79.2359C52.6564 79.2949 52.6802 79.3611 52.6894 79.43C52.6986 79.4989 52.693 79.569 52.6729 79.6356C52.5062 79.7344 52.3307 79.8177 52.1488 79.8844C52.1232 79.9401 52.11 80.0007 52.11 80.0621C52.11 80.1234 52.1232 80.184 52.1488 80.2397C52.4153 81.1281 52.7262 82.0165 52.9483 82.9049C52.9062 82.9734 52.8453 83.0282 52.7728 83.0629C52.7003 83.0976 52.6194 83.1106 52.5397 83.1004C52.507 83.1183 52.4703 83.1276 52.4331 83.1276C52.3958 83.1276 52.3591 83.1183 52.3264 83.1004L52.211 82.9227C51.9267 82.0343 51.6335 81.1015 51.3226 80.1864C51.1135 80.1272 50.892 80.1272 50.6829 80.1864C50.5941 80.1864 50.5674 80.0798 50.5408 80.0354C50.5111 79.9761 50.4956 79.9107 50.4956 79.8444C50.4956 79.7781 50.5111 79.7127 50.5408 79.6534C50.9139 79.4668 51.3314 79.3958 51.7223 79.2447L52.4153 79.0671C52.4643 79.0644 52.5126 79.0803 52.5504 79.1115C52.5883 79.1428 52.613 79.1872 52.6196 79.2359V79.2359Z" fill="white"/>
<path d="M30.4453 78.7828C30.4783 78.8657 30.4874 78.9563 30.4717 79.0442C30.456 79.132 30.4161 79.2138 30.3565 79.2803C30.3294 79.308 30.2946 79.327 30.2566 79.3349C30.2187 79.3428 30.1792 79.3393 30.1433 79.3247C29.8501 79.2536 29.5925 79.067 29.3171 79.067C29.1858 79.1328 29.076 79.2345 29.0005 79.3604C28.925 79.4863 28.8869 79.631 28.8906 79.7778C28.9643 79.8845 29.0591 79.9751 29.1691 80.0438C29.2791 80.1126 29.402 80.1581 29.5303 80.1775C29.691 80.2068 29.8377 80.2879 29.9478 80.4085C29.9529 80.4997 29.9322 80.5906 29.8883 80.6706C29.8443 80.7507 29.7787 80.8169 29.6991 80.8616C29.4237 80.8616 29.2193 80.6662 28.9439 80.6573C28.8445 80.5997 28.7264 80.5837 28.6152 80.6128C28.4606 80.8306 28.3546 81.079 28.3043 81.3413C28.3654 81.4441 28.4508 81.5303 28.553 81.5923C28.6553 81.6543 28.7712 81.6901 28.8906 81.6967C29.0745 81.7534 29.2462 81.8438 29.397 81.9632C29.4019 82.0556 29.3852 82.1479 29.3482 82.2327C29.3112 82.3175 29.2549 82.3926 29.1838 82.4518C28.9987 82.4236 28.817 82.376 28.6419 82.3097C28.5901 82.3135 28.5382 82.3051 28.4903 82.285C28.4424 82.2649 28.4 82.2338 28.3665 82.1942C28.0399 82.089 27.722 81.9583 27.4159 81.8033C27.3941 81.7655 27.3826 81.7226 27.3826 81.6789C27.3826 81.6353 27.3941 81.5924 27.4159 81.5545C27.5663 81.2008 27.6968 80.839 27.8068 80.4707C27.9552 80.1875 28.0743 79.8898 28.1621 79.5823C28.2421 79.3513 28.3398 79.1026 28.4198 78.8894C28.451 78.7399 28.5049 78.5961 28.5797 78.4629C28.6508 78.3741 28.5797 78.2053 28.7663 78.1964C29.3171 78.3297 29.8767 78.5784 30.4453 78.7828Z" fill="white"/>
<path d="M49.3948 80.1509C49.5458 81.3325 49.7412 82.514 49.8923 83.7045C49.8305 83.7863 49.7468 83.8489 49.6509 83.8851C49.555 83.9213 49.4508 83.9295 49.3503 83.9088C49.0908 83.8315 48.8691 83.6605 48.7285 83.4291C48.1777 82.8694 47.7068 82.2741 47.1382 81.7855C47.1269 81.7623 47.1082 81.7435 47.0849 81.7322L47.0228 81.8033C47.0228 82.5851 47.2182 83.2958 47.2715 84.0598C47.2432 84.1101 47.2035 84.1531 47.1557 84.1855C47.108 84.2179 47.0533 84.2387 46.9961 84.2464C46.8606 84.2722 46.7203 84.2535 46.5963 84.1931C46.4984 83.7297 46.4272 83.261 46.3831 82.7894C46.2943 82.0254 46.161 81.2969 46.0811 80.5507C46.0856 80.5187 46.0987 80.4886 46.1191 80.4636C46.1394 80.4385 46.1662 80.4195 46.1965 80.4085C46.2907 80.3629 46.394 80.3392 46.4986 80.3392C46.6032 80.3392 46.7065 80.3629 46.8007 80.4085C47.3692 81.0037 47.9467 81.5812 48.4708 82.1853L48.8617 82.4962C48.8737 82.4977 48.8859 82.4964 48.8973 82.4924C48.9088 82.4884 48.9192 82.4819 48.9277 82.4734C48.9363 82.4648 48.9428 82.4545 48.9467 82.443C48.9507 82.4316 48.952 82.4194 48.9506 82.4074C48.9183 81.9302 48.856 81.4554 48.764 80.986C48.7531 80.9094 48.7531 80.8316 48.764 80.755C48.7048 80.5338 48.7048 80.301 48.764 80.0798C48.915 80.0354 49.3059 79.8311 49.3948 80.1509Z" fill="white"/>
<path d="M32.0354 79.3869C32.1509 79.5734 32.0354 79.8133 32.1687 80.0087C32.1254 80.2496 32.1254 80.4963 32.1687 80.7372C32.1766 81.1357 32.2092 81.5333 32.2664 81.9277C32.2874 81.9605 32.3186 81.9854 32.3552 81.9987C32.4618 81.9381 32.546 81.8446 32.5951 81.7322C32.833 81.4567 33.0442 81.1593 33.2258 80.8438C33.4835 80.604 33.6167 80.2664 33.8477 80.0265C33.9485 79.9868 34.057 79.971 34.1649 79.9802C34.2728 79.9895 34.3771 80.0236 34.4696 80.0798C34.4925 80.1317 34.4989 80.1895 34.4877 80.2451C34.4766 80.3008 34.4486 80.3516 34.4074 80.3907C33.8477 81.2258 33.2258 82.052 32.6839 82.9049C32.4707 83.0915 32.3819 83.5623 31.991 83.4113C31.9068 83.4093 31.8253 83.3807 31.7583 83.3296C31.6913 83.2786 31.6422 83.2077 31.6179 83.127C31.5468 82.363 31.5024 81.5723 31.4313 80.8172C31.3602 80.3819 31.4313 79.9288 31.3158 79.4846C31.3092 79.4425 31.3113 79.3995 31.322 79.3582C31.3327 79.3169 31.3517 79.2783 31.378 79.2447C31.6052 79.2398 31.8305 79.2885 32.0354 79.3869V79.3869Z" fill="white"/>
<path d="M37.5347 80.4529C37.5782 80.5887 37.5782 80.7347 37.5347 80.8705C37.5347 80.9149 37.5347 81.0393 37.3925 81.0215C37.0355 80.9848 36.6765 80.9699 36.3176 80.9771C36.1787 81.2062 36.1194 81.4748 36.1488 81.7411C36.1778 81.7932 36.2203 81.8364 36.272 81.8661C36.3236 81.8958 36.3824 81.911 36.4419 81.9099C36.7419 81.9289 37.0394 81.9765 37.3303 82.052C37.3978 82.2368 37.3915 82.4404 37.3126 82.6206C37.1186 82.6545 36.9202 82.6545 36.7262 82.6206C36.5041 82.6206 36.1399 82.4341 36.0422 82.7361C36.0039 82.9739 35.989 83.215 35.9977 83.4557C36.1206 83.5495 36.2697 83.6023 36.4242 83.6067C36.6787 83.6289 36.9311 83.6705 37.1793 83.7311C37.22 83.8824 37.22 84.0418 37.1793 84.1931C37.1138 84.2448 37.0364 84.2793 36.9541 84.2932C36.8718 84.3072 36.7874 84.3003 36.7085 84.273C36.2287 84.2197 35.7312 84.1487 35.2515 84.0509C35.1271 83.9887 35.1982 83.8644 35.1982 83.74C35.3848 82.6384 35.4647 81.4657 35.6424 80.3463C35.6446 80.3149 35.6587 80.2855 35.6818 80.2641C35.7049 80.2426 35.7353 80.2308 35.7668 80.2308C36.2579 80.2526 36.7474 80.303 37.2326 80.3819L37.5347 80.4529Z" fill="white"/>
<path d="M44.6774 80.7906C44.7062 80.8642 44.7148 80.9442 44.7023 81.0223C44.6898 81.1004 44.6567 81.1737 44.6064 81.2347C44.2628 81.262 43.9215 81.3125 43.5847 81.3858C43.5345 81.4396 43.4997 81.5059 43.4841 81.5779C43.4684 81.6498 43.4725 81.7246 43.4959 81.7944C43.4888 81.8804 43.5001 81.9669 43.5293 82.0482C43.5584 82.1294 43.6045 82.2034 43.6647 82.2653C44.0311 82.2318 44.3998 82.2318 44.7663 82.2653C44.8254 82.4116 44.8468 82.5705 44.8285 82.7273C44.7835 82.7812 44.7259 82.8232 44.6608 82.8496C44.5958 82.8759 44.5252 82.8858 44.4553 82.8783C44.1689 82.8665 43.8852 82.9374 43.638 83.0826C43.601 83.3568 43.6378 83.6359 43.7446 83.8911C43.8597 83.9388 43.9857 83.9541 44.1089 83.9355C44.3803 83.9016 44.6548 83.9016 44.9262 83.9355C44.9637 84.0099 44.9832 84.092 44.9832 84.1753C44.9832 84.2587 44.9637 84.3408 44.9262 84.4152C44.9109 84.4533 44.8834 84.4852 44.8481 84.5061C44.8127 84.527 44.7715 84.5356 44.7307 84.5307C44.2244 84.584 43.718 84.6462 43.2205 84.6728C43.1727 84.6786 43.1244 84.6688 43.0828 84.6447C43.0411 84.6207 43.0084 84.5838 42.9895 84.5396C42.8385 83.5623 42.8029 82.5229 42.7052 81.519C42.6715 81.3012 42.6715 81.0795 42.7052 80.8616C42.8797 80.7792 43.0723 80.7425 43.2649 80.755C43.705 80.681 44.1514 80.6512 44.5975 80.6662L44.6774 80.7906Z" fill="white"/>
<path d="M41.4346 82.2031C41.5032 81.9711 41.5032 81.7243 41.4346 81.4924C41.0704 80.6573 40.1198 80.7461 39.3025 80.6839C39.2779 80.6802 39.2529 80.6813 39.2288 80.6874C39.2047 80.6934 39.1821 80.7042 39.1623 80.7191C39.1424 80.734 39.1257 80.7527 39.1132 80.7741C39.1007 80.7955 39.0925 80.8192 39.0893 80.8438C38.956 82.0254 38.8672 83.2247 38.7783 84.3974C38.7802 84.4354 38.7955 84.4714 38.8216 84.4991C38.8476 84.5268 38.8827 84.5443 38.9205 84.5484C39.0935 84.5824 39.2716 84.5824 39.4446 84.5484C39.5423 84.2108 39.5246 83.8555 39.5956 83.5179L39.6489 83.3846C39.6489 83.3313 39.7467 83.3846 39.7822 83.3846C40.0931 83.7933 40.2797 84.273 40.5906 84.6462C40.8141 84.7183 41.0496 84.7455 41.2836 84.7261C41.3458 84.7261 41.3724 84.6462 41.3547 84.5929L40.564 83.278C40.564 83.207 40.5018 83.0826 40.564 83.0382C40.7684 82.985 40.9558 82.8804 41.1082 82.7342C41.2606 82.588 41.373 82.4051 41.4346 82.2031V82.2031ZM39.9776 82.5407C39.8799 82.5407 39.6934 82.5407 39.6934 82.3896C39.6424 82.0839 39.6989 81.77 39.8533 81.5012C39.9823 81.443 40.128 81.4334 40.2635 81.4743C40.3991 81.5151 40.5152 81.6036 40.5906 81.7233C40.6278 81.8104 40.6469 81.9041 40.6469 81.9987C40.6469 82.0934 40.6278 82.1871 40.5906 82.2741C40.521 82.3686 40.4276 82.443 40.32 82.4898C40.2123 82.5366 40.0942 82.5542 39.9776 82.5407Z" fill="white"/>
<path d="M38.5652 15.7334C38.7688 15.7154 38.957 15.6174 39.0885 15.4608C39.2201 15.3043 39.2842 15.1021 39.267 14.8984C39.2872 14.7954 39.2844 14.6892 39.2587 14.5874C39.233 14.4857 39.1851 14.3909 39.1185 14.3098C39.0518 14.2288 38.968 14.1635 38.8731 14.1187C38.7782 14.0739 38.6745 14.0507 38.5696 14.0507C38.4647 14.0507 38.361 14.0739 38.2661 14.1187C38.1712 14.1635 38.0874 14.2288 38.0208 14.3098C37.9541 14.3909 37.9062 14.4857 37.8805 14.5874C37.8548 14.6892 37.852 14.7954 37.8722 14.8984C37.8549 15.1007 37.9178 15.3017 38.0475 15.458C38.1772 15.6142 38.3631 15.7132 38.5652 15.7334Z" fill="white"/>
<path d="M44.2065 15.7512C44.4503 15.7118 44.672 15.5869 44.8321 15.3989C44.9921 15.2109 45.08 14.972 45.08 14.7251C45.08 14.4782 44.9921 14.2394 44.8321 14.0514C44.672 13.8633 44.4503 13.7384 44.2065 13.699C43.9628 13.7384 43.741 13.8633 43.581 14.0514C43.4209 14.2394 43.333 14.4782 43.333 14.7251C43.333 14.972 43.4209 15.2109 43.581 15.3989C43.741 15.5869 43.9628 15.7118 44.2065 15.7512Z" fill="white"/>
<path d="M38.5653 13.166C38.725 13.1953 38.8899 13.1741 39.037 13.1054C39.1842 13.0367 39.3063 12.9239 39.3864 12.7827C39.4665 12.6414 39.5006 12.4787 39.484 12.3171C39.4675 12.1556 39.401 12.0032 39.2938 11.8812C39.1867 11.7592 39.0442 11.6735 38.8861 11.6362C38.7281 11.5988 38.5623 11.6116 38.4119 11.6728C38.2615 11.734 38.1338 11.8405 38.0467 11.9775C37.9595 12.1145 37.9172 12.2753 37.9256 12.4375C37.9223 12.6168 37.986 12.7909 38.1043 12.9256C38.2227 13.0604 38.387 13.1461 38.5653 13.166V13.166Z" fill="white"/>
<path d="M61.2991 34.0521C58.936 29.1659 60.5707 24.111 62.1875 20.4064C62.7571 18.996 63.2465 17.5545 63.6534 16.0888C61.2458 17.2881 58.5185 15.4936 54.5385 11.5935C52.1043 9.28369 46.9072 6.92944 41.4346 6.92944C35.9621 6.92944 30.7739 8.97275 28.3042 11.5491C24.4574 15.5824 21.7123 17.2881 19.3048 16.0888C19.7121 17.5641 20.2045 19.0146 20.7795 20.433C22.3431 24.1465 23.9866 29.1926 21.6235 34.0788C21.6235 34.0788 12.1798 31.9022 16.8528 44.7395C16.8528 44.7395 18.4252 47.991 23.267 51.0116C24.0724 51.6169 24.6637 52.4634 24.9549 53.428L28.1176 54.0321C27.9585 55.9703 28.5112 57.9001 29.6723 59.4602C31.4491 61.6368 33.6879 62.7917 34.7628 63.9643C36.6995 66.0609 37.4902 67.1448 37.73 68.6817L39.649 69.1081C39.649 69.1081 40.1287 71.5956 41.4258 71.5956C42.7228 71.5956 43.2026 69.1081 43.2026 69.1081L45.1215 68.6817C45.3614 67.1448 46.152 66.0165 48.0976 63.9643C49.1726 62.7917 51.3935 61.6368 53.1792 59.4602C54.3366 57.8983 54.889 55.9699 54.7339 54.0321L57.8966 53.428C58.1873 52.4632 58.7787 51.6165 59.5845 51.0116C64.4263 47.991 65.9987 44.7395 65.9987 44.7395C70.6983 31.8756 61.2991 34.0521 61.2991 34.0521ZM48.5151 10.9539H50.2919V16.453H49.1992V11.9044H48.4707V10.9716L48.5151 10.9539ZM42.9982 12.8995L44.4197 10.7495L45.2103 11.3181L44.0821 12.9172C44.2207 12.863 44.3685 12.8358 44.5174 12.8373C44.7508 12.8402 44.9811 12.891 45.1941 12.9866C45.4071 13.0821 45.5982 13.2203 45.7556 13.3927C45.913 13.5651 46.0333 13.768 46.1092 13.9888C46.185 14.2095 46.2147 14.4435 46.1964 14.6762C46.2064 14.9344 46.1629 15.1919 46.0687 15.4324C45.9745 15.673 45.8315 15.8915 45.6488 16.0742C45.4661 16.2569 45.2476 16.3998 45.0071 16.4941C44.7665 16.5883 44.509 16.6318 44.2509 16.6218C43.9986 16.634 43.7464 16.5943 43.5101 16.5052C43.2737 16.4162 43.0581 16.2796 42.8767 16.1039C42.6952 15.9282 42.5516 15.7172 42.4549 15.4839C42.3581 15.2506 42.3102 14.9999 42.3142 14.7473C42.3484 14.0887 42.5703 13.4537 42.9538 12.9172L42.9982 12.8995ZM41.7989 19.1182C41.9751 19.1105 42.1509 19.1413 42.3141 19.2083C42.4772 19.2753 42.6239 19.3769 42.7439 19.5062C42.8639 19.6355 42.9543 19.7893 43.009 19.957C43.0636 20.1247 43.0812 20.3023 43.0604 20.4775C43.0604 20.4775 43.0604 22.965 43.1315 24.1643C43.1759 24.7613 43.259 25.3548 43.3802 25.9411C43.3802 25.9411 43.5401 26.4919 43.167 26.4208C42.9998 26.3248 42.8159 26.2615 42.6251 26.2342C42.3319 26.3053 42.4385 26.6873 42.0832 26.6784C41.7278 26.6696 41.79 26.3142 41.5146 26.3142C41.2392 26.3142 41.2214 26.7051 40.8661 26.6518C40.5107 26.5985 40.6262 26.2076 40.2709 26.1987C39.9155 26.1898 39.8533 26.5274 39.5779 26.3586C39.3025 26.1898 40.1021 25.0171 39.9777 22.7429C39.88 20.9661 38.6806 21.6946 38.4496 20.9661C38.2187 20.2376 39.2048 19.5713 39.5424 19.3936C40.2376 19.0894 41.0079 18.9997 41.7545 19.136L41.7989 19.1182ZM36.9483 12.4375C36.9785 12.0305 37.1615 11.65 37.4605 11.3724C37.7596 11.0947 38.1526 10.9404 38.5607 10.9404C38.9688 10.9404 39.3618 11.0947 39.6608 11.3724C39.9599 11.65 40.1429 12.0305 40.1731 12.4375C40.1739 12.6863 40.1064 12.9305 39.9779 13.1435C39.8495 13.3566 39.665 13.5303 39.4446 13.6457C39.7221 13.753 39.958 13.9463 40.1178 14.1972C40.2777 14.4482 40.3531 14.7436 40.333 15.0405C40.333 15.5117 40.1458 15.9636 39.8126 16.2969C39.4794 16.6301 39.0275 16.8173 38.5563 16.8173C38.085 16.8173 37.6331 16.6301 37.2999 16.2969C36.9667 15.9636 36.7795 15.5117 36.7795 15.0405C36.7608 14.7439 36.8368 14.449 36.9965 14.1984C37.1561 13.9477 37.3912 13.7542 37.6679 13.6457C37.4498 13.5283 37.2677 13.3539 37.1409 13.1411C37.0142 12.9283 36.9476 12.6852 36.9483 12.4375V12.4375ZM32.5774 11.0072H34.3541V16.5063H33.2881V11.9044H32.5774V10.9716V11.0072ZM54.192 37.6945C54.0554 38.044 53.9455 38.4034 53.8633 38.7695C53.7986 38.9917 53.7452 39.217 53.7034 39.4447C53.5346 40.2176 53.3302 40.9905 53.2236 41.7634C53.117 42.2875 53.046 42.8117 52.966 43.3358C52.8276 43.9866 52.7297 44.6452 52.6728 45.3081C52.6275 45.5245 52.6007 45.7445 52.5929 45.9655C52.5929 46.4186 52.4596 46.8539 52.4507 47.3336C52.4468 47.6005 52.411 47.8659 52.3441 48.1243C52.363 48.5637 52.3181 49.0036 52.2109 49.4302C52.26 49.7277 52.2356 50.0327 52.1398 50.3186C52.1851 50.5772 52.1851 50.8418 52.1398 51.1004C52.2642 51.4113 51.9977 51.6956 52.1398 51.9888C52.1398 52.5129 52.0421 52.966 52.0954 53.4724C52.1155 53.5644 52.1047 53.6605 52.0645 53.7457C52.0243 53.8308 51.9571 53.9003 51.8733 53.9433C51.6512 53.9966 51.4202 54.0587 51.1714 54.0943C51.0674 54.127 50.9557 54.127 50.8516 54.0943C50.5246 54.2052 50.1888 54.2884 49.8477 54.343C49.5575 54.4217 49.2597 54.4694 48.9593 54.4852C48.8092 54.5893 48.6243 54.6307 48.4441 54.6007C48.3777 54.6546 48.3006 54.6937 48.2178 54.7152C48.135 54.7366 48.0486 54.74 47.9643 54.725C47.6404 54.8794 47.3009 54.9985 46.9516 55.0804C46.282 55.2507 45.6234 55.4613 44.9793 55.7112C44.8484 55.7308 44.7304 55.801 44.6506 55.9066C44.7382 56.1449 44.8546 56.3717 44.9971 56.5818C45.2136 57.0174 45.3203 57.4992 45.308 57.9854C45.2796 58.5022 45.2112 59.0161 45.1037 59.5224C44.8105 60.9705 44.0199 62.1876 44.393 63.7156C44.3843 63.8 44.3556 63.8811 44.3092 63.9522C44.2629 64.0233 44.2002 64.0823 44.1265 64.1243C44.0352 64.1608 43.9334 64.1608 43.8422 64.1243C43.6736 63.8896 43.5585 63.6208 43.5048 63.3369C43.4511 63.053 43.4601 62.7608 43.5313 62.4807C43.6556 61.5923 44.0199 60.8638 44.0909 59.9755C44.2392 59.3215 44.2054 58.6393 43.9932 58.0032C43.7858 57.4296 43.3747 56.9522 42.8383 56.6617C42.6996 56.6764 42.5668 56.7255 42.452 56.8046C42.3371 56.8838 42.2439 56.9904 42.1809 57.1148L41.9321 67.1359C41.9368 67.2036 41.9281 67.2715 41.9065 67.3358C41.8849 67.4001 41.8509 67.4595 41.8064 67.5107C41.7618 67.5618 41.7076 67.6037 41.6469 67.6339C41.5862 67.6641 41.5201 67.682 41.4524 67.6867C41.3847 67.6914 41.3168 67.6827 41.2525 67.6611C41.1882 67.6395 41.1288 67.6055 41.0777 67.5609C41.0265 67.5164 40.9846 67.4622 40.9544 67.4015C40.9242 67.3407 40.9063 67.2746 40.9016 67.207L40.8661 57.0349C40.8207 56.9302 40.7482 56.8397 40.656 56.7725C40.5639 56.7053 40.4554 56.664 40.3419 56.6529C40.176 56.7101 40.0307 56.8152 39.9244 56.9549C39.5582 57.3512 39.2744 57.8162 39.0893 58.323C39.0965 58.4766 39.0755 58.6302 39.0271 58.7761C39.0257 59.9156 39.1872 61.0494 39.5068 62.1431C39.5892 62.4468 39.6192 62.7622 39.5957 63.0759C39.5957 63.2536 39.5335 63.4313 39.5335 63.5734C39.5221 63.7023 39.4691 63.8239 39.3825 63.9199C39.3429 63.9634 39.295 63.9984 39.2415 64.0228C39.1881 64.0472 39.1303 64.0606 39.0715 64.0621C38.9549 63.9822 38.8647 63.8695 38.8124 63.7381C38.7602 63.6068 38.7484 63.4628 38.7784 63.3247C38.9248 62.7372 38.897 62.1199 38.6984 61.5479C38.5918 61.2636 38.5563 60.926 38.4496 60.6595C38.3633 60.4827 38.3034 60.2941 38.272 60.0998C38.1938 59.9588 38.1398 59.8056 38.1121 59.6467C38.051 59.3537 38.0095 59.0569 37.9877 58.7584C37.9751 58.6046 37.9751 58.4501 37.9877 58.2964C37.9877 58.1542 37.9877 57.9677 37.9344 57.8433C37.9295 57.7275 37.9508 57.6122 37.9966 57.5057C38.0011 57.3704 38.022 57.2362 38.0588 57.1059C38.0673 57.0233 38.0703 56.9402 38.0676 56.8572C38.1892 56.5436 38.3472 56.2454 38.5385 55.9688C38.5385 55.7911 38.3786 55.7911 38.2808 55.7112C38.0973 55.6416 37.9191 55.5584 37.7478 55.4624C37.2976 55.3425 36.8555 55.1941 36.4241 55.0182C36.0744 54.9735 35.7332 54.8777 35.4113 54.7339C35.2888 54.6993 35.1642 54.6726 35.0382 54.654C33.8211 54.3786 32.5951 54.1387 31.3336 53.9077C31.2746 53.9026 31.2191 53.878 31.1756 53.8378C31.1322 53.7976 31.1034 53.744 31.0937 53.6856C31.0937 53.1615 31.0404 52.6906 31.0493 52.1665C31.0582 51.6423 31.0493 51.3847 30.996 51.0116V50.1232C30.996 50.0521 31.1115 50.0077 30.996 49.9277C30.8805 49.8478 30.996 49.5457 30.8716 49.4036C30.8429 49.242 30.8429 49.0766 30.8716 48.9149C30.8505 48.8321 30.8207 48.7517 30.7828 48.6751C30.7659 48.4367 30.7212 48.2012 30.6495 47.9732C30.6026 47.8259 30.6026 47.6675 30.6495 47.5202C30.5679 47.1775 30.5056 46.8304 30.463 46.4807C30.463 46.0543 30.3475 45.6457 30.3564 45.2192C30.2729 45.0077 30.2454 44.7782 30.2764 44.5529C30.2764 44.4641 30.1876 44.4019 30.1876 44.3131C30.1491 44.0138 30.0928 43.7172 30.0188 43.4247C30.0373 43.3598 30.0406 43.2916 30.0282 43.2253C30.0159 43.159 29.9883 43.0965 29.9477 43.0427C29.9477 42.7317 29.8056 42.4652 29.7967 42.1543C29.814 42.0916 29.8157 42.0257 29.8018 41.9623C29.7878 41.8988 29.7587 41.8397 29.7167 41.79C29.6634 41.4258 29.5746 41.0882 29.5479 40.7151C29.4905 40.501 29.4132 40.2928 29.317 40.0932C29.3285 39.8919 29.2823 39.6916 29.1837 39.5157C29.1606 39.343 29.1189 39.1732 29.0593 39.0094C29.0042 38.7965 28.9655 38.5797 28.9438 38.3608C28.8201 38.181 28.7578 37.966 28.7662 37.7478C28.7248 37.7209 28.6937 37.6809 28.6776 37.6342C28.6615 37.5876 28.6614 37.5369 28.6773 37.4902C28.7925 37.4012 28.884 37.2853 28.9438 37.1526C29.1349 37.01 29.3002 36.8357 29.4324 36.6373C29.6183 36.4836 29.7907 36.3141 29.9477 36.131C30.0547 35.9279 30.2224 35.7632 30.4274 35.6601C30.6437 35.6605 30.8589 35.6904 31.0671 35.7489C31.4344 35.7966 31.7932 35.8953 32.1332 36.0421C32.2614 36.0453 32.388 36.0724 32.5063 36.1221C32.7324 36.1671 32.9488 36.2513 33.1459 36.3708C33.5325 36.4198 33.908 36.5339 34.2564 36.7084C34.63 36.8598 35.0209 36.9642 35.4202 37.0193C35.5637 36.9036 35.6715 36.7496 35.7312 36.5752C35.8416 36.4577 35.9317 36.3225 35.9977 36.1754C36.3172 35.8027 36.7104 35.5002 37.1526 35.287C37.3964 35.1798 37.6533 35.1051 37.9166 35.0649C38.1339 35.0299 38.3567 35.0609 38.5563 35.1537C38.751 35.2017 38.9348 35.2861 39.0982 35.4025C39.307 35.5476 39.4679 35.7518 39.5601 35.9888C39.554 36.1298 39.5094 36.2665 39.4311 36.384C39.3528 36.5014 39.2438 36.5952 39.1159 36.6551C38.5215 36.9387 38.0531 37.4324 37.8011 38.041C37.8286 38.1041 37.8701 38.16 37.9224 38.2047C37.9748 38.2493 38.0366 38.2814 38.1032 38.2986C38.9085 38.6435 39.6944 39.032 40.4574 39.4624C40.5374 39.4624 40.644 39.4624 40.6529 39.3736C40.7684 38.3075 40.5818 37.2326 40.6529 36.1576C40.8305 35.7756 41.1592 35.4558 41.3192 35.0649C41.3403 35.0438 41.3672 35.0295 41.3964 35.0237C41.4257 35.0179 41.456 35.0209 41.4835 35.0323C41.5111 35.0437 41.5346 35.063 41.5512 35.0878C41.5678 35.1125 41.5767 35.1417 41.5768 35.1715C41.7456 35.6601 42.2964 35.9977 42.252 36.5752C42.3053 37.5168 42.1987 38.4941 42.252 39.4002C42.2564 39.4287 42.2666 39.456 42.2818 39.4804C42.2971 39.5048 42.3172 39.5259 42.3408 39.5424C43.0249 39.2759 43.6645 38.8317 44.3308 38.5207C44.5672 38.4295 44.7959 38.3196 45.0149 38.192C45.0149 38.121 45.1304 38.0499 45.0593 37.9522C44.7128 37.385 44.2142 36.9264 43.6201 36.6285C43.5246 36.5695 43.4473 36.485 43.3971 36.3846C43.3469 36.2842 43.3257 36.1717 43.3358 36.0599C43.4052 35.8743 43.5132 35.7055 43.6525 35.5647C43.7919 35.4238 43.9594 35.314 44.1442 35.2426C44.4285 35.14 44.7316 35.1005 45.0326 35.1271C45.7021 35.2503 46.3081 35.6019 46.7472 36.1221C46.9664 36.4057 47.1681 36.7024 47.3514 37.0105C47.4681 37.0407 47.5901 37.0444 47.7085 37.0213C47.8268 36.9983 47.9386 36.949 48.0354 36.8772C48.2235 36.8683 48.404 36.7999 48.5507 36.6818C49.1637 36.4952 49.7323 36.2909 50.3275 36.1043C50.4695 36.0367 50.6234 35.9974 50.7806 35.9888C51.0915 35.8289 51.4646 35.8111 51.7756 35.6601C51.9742 35.6129 52.1811 35.6129 52.3797 35.6601C52.5998 35.762 52.7829 35.9296 52.9038 36.1398C53.0171 36.3545 53.182 36.5377 53.3835 36.6729C53.5833 36.9076 53.8001 37.1273 54.0321 37.3303C54.092 37.3681 54.1393 37.423 54.1678 37.4879C54.1963 37.5528 54.2047 37.6248 54.192 37.6945V37.6945ZM55.2758 21.9966C54.6529 22.4878 53.9053 22.7954 53.117 22.885C52.4152 23.0982 47.4846 24.2887 47.5646 24.875C47.6445 25.4613 53.6145 23.5868 54.0943 23.729C54.7517 23.9067 52.0065 26.0921 51.5179 26.2342C50.6295 26.5008 47.7067 26.1365 47.6445 26.6251C47.5823 27.1138 50.5052 26.9627 50.4874 27.3803C50.2668 27.8439 49.951 28.256 49.5607 28.5897C49.1704 28.9233 48.7143 29.1711 48.222 29.317C47.3336 29.388 46.4985 28.8017 46.2942 29.2281C46.0898 29.6546 46.8983 31.307 46.4097 31.7156C45.921 32.1243 44.4197 31.0938 44.1709 31.4225C43.9222 31.7512 44.3752 33.3236 43.5668 33.6701C42.7584 34.0166 42.0032 32.4086 41.4613 32.3819C40.9194 32.3553 39.9777 33.9722 39.3114 33.679C38.6451 33.3858 38.9827 31.7245 38.7162 31.4314C38.4496 31.1382 36.9394 32.1243 36.4685 31.7068C35.9977 31.2892 36.7972 29.6546 36.584 29.2193C36.3708 28.7839 35.5357 29.3703 34.6473 29.317C34.1546 29.1747 33.6978 28.9292 33.3072 28.5968C32.9166 28.2644 32.6012 27.8528 32.3819 27.3892C32.3819 26.9716 35.287 27.1049 35.2248 26.634C35.1626 26.1632 32.2131 26.5096 31.3425 26.2431C30.8628 26.0921 28.1087 23.9155 28.775 23.7379C29.2548 23.5957 35.2248 25.5146 35.3136 24.8839C35.4025 24.2531 30.4808 23.1071 29.7523 22.9205C28.9644 22.8296 28.2171 22.5221 27.5935 22.0321C25.87 20.664 24.3331 17.217 25.026 17.6346C25.719 18.0521 28.3486 19.4114 30.7562 20.4419C33.1637 21.4725 36.9038 22.5385 37.7389 23.2581C38.1214 23.5391 38.4269 23.9118 38.6273 24.342C39.0538 25.2304 38.5029 27.0071 38.9471 27.6113C39.3913 28.2154 39.6579 27.6113 40.0399 27.6912C40.4219 27.7712 40.182 28.2509 40.7328 28.2331C40.9816 28.2331 40.9993 27.8067 41.408 27.8067C41.8167 27.8067 41.6656 28.2776 42.0832 28.2331C42.5007 28.1887 42.403 27.7445 42.785 27.6912C43.167 27.6379 43.6201 28.0732 43.9044 27.5402C44.1331 27.0395 44.1894 26.4771 44.0643 25.9411C44.006 25.4025 44.0451 24.8578 44.1798 24.3331C44.4184 23.8282 44.7939 23.4003 45.2636 23.0982C46.152 22.423 49.7056 21.4369 52.122 20.3886C54.5385 19.3403 57.1681 17.9988 57.8522 17.5813C58.5362 17.1637 57.0082 20.6285 55.2847 21.9966H55.2758Z" fill="white"/>
<path d="M52.2286 37.3126V37.4014C51.7223 38.993 51.3683 40.6291 51.1714 42.2876C51.0976 42.6446 51.0531 43.0071 51.0381 43.3714C51.0914 43.5846 50.9671 43.7978 51.0381 44.0466C51.1092 44.2953 50.9493 44.7129 50.9404 45.0505C50.9645 45.0858 50.9773 45.1276 50.9773 45.1704C50.9773 45.2132 50.9645 45.255 50.9404 45.2903C50.9404 45.4858 50.8782 45.6901 50.896 45.8856C50.9138 46.081 50.8427 46.4275 50.896 46.7029V47.4225C50.8338 47.7601 50.896 48.1421 50.8338 48.4708C50.8338 48.9594 50.8338 49.4569 50.8338 49.9455C50.8531 49.992 50.863 50.0418 50.863 50.0921C50.863 50.1424 50.8531 50.1922 50.8338 50.2387C50.8642 50.4538 50.8642 50.6721 50.8338 50.8872C50.8338 51.3581 50.8871 51.7756 50.8871 52.2465C50.8171 52.3085 50.7356 52.3562 50.6472 52.3867C50.5588 52.4172 50.4652 52.4299 50.3718 52.4241C49.3058 52.6907 48.3019 53.0638 47.2536 53.428C46.765 53.5968 46.303 53.8278 45.7877 54.0055C45.5212 54.1032 45.2725 54.2809 44.9882 54.3608C44.6361 54.5651 44.2711 54.7461 43.8954 54.9028C43.6115 54.8119 43.3508 54.6604 43.1314 54.4586C43.115 54.4493 43.1005 54.4369 43.0889 54.4221C43.0773 54.4072 43.0688 54.3902 43.0638 54.372C43.0589 54.3538 43.0576 54.3348 43.06 54.3161C43.0625 54.2974 43.0686 54.2794 43.0781 54.2631C43.837 53.6371 44.4445 52.8474 44.8549 51.9533C45.2889 50.9796 45.3583 49.8823 45.0504 48.8617C44.734 47.8348 44.1147 46.9274 43.2736 46.2587C43.2594 46.2361 43.2519 46.2099 43.2519 46.1832C43.2519 46.1565 43.2594 46.1303 43.2736 46.1077C43.9843 45.5569 44.7483 45.1215 45.4413 44.4819C46.5545 43.6214 47.3662 42.4302 47.76 41.0794C47.76 40.7684 47.8843 40.4753 47.8843 40.191C48.0205 39.6234 47.9928 39.0288 47.8044 38.4764C47.7909 38.4175 47.8011 38.3557 47.8326 38.3043C47.8642 38.2528 47.9146 38.2157 47.9732 38.201C48.2042 38.1388 48.4529 37.9433 48.6661 37.9078C49.057 37.7656 49.3768 37.659 49.7677 37.5524C50.1586 37.4458 50.5673 37.4103 50.9493 37.3303C51.3513 37.2956 51.7555 37.2956 52.1575 37.3303L52.2286 37.3126Z" fill="white"/>
<path d="M33.5191 37.739C33.8034 37.739 34.0699 37.9433 34.3275 38.0055C34.5851 38.0677 34.8072 38.1832 34.9671 38.2009C35.0052 38.2215 35.0379 38.2506 35.0626 38.2861C35.0873 38.3216 35.1033 38.3625 35.1093 38.4053C35.0915 38.4632 35.0915 38.5251 35.1093 38.583C35.0276 38.835 35.0033 39.1021 35.0382 39.3647C34.9634 39.5561 34.9634 39.7686 35.0382 39.96C35.0464 40.3013 35.0911 40.6409 35.1715 40.9727C35.2679 41.1064 35.3122 41.2707 35.2959 41.4347C35.4523 41.6711 35.5749 41.9283 35.6601 42.1987C35.9081 42.7124 36.2281 43.1881 36.6107 43.6113C36.8657 43.877 37.1453 44.1179 37.4458 44.3309C37.5524 44.624 37.9255 44.5796 38.0232 44.8461C38.2013 44.9615 38.3733 45.086 38.5385 45.2193C38.7695 45.2193 38.8494 45.5391 39.0804 45.5568C39.2847 45.8323 39.6401 45.8856 39.8267 46.161C39.7144 46.3023 39.5927 46.4359 39.4624 46.5607C39.3638 46.7055 39.2405 46.8318 39.0982 46.9339C39.0982 47.1648 38.7339 47.2892 38.7073 47.5202C38.6263 47.5878 38.5726 47.6825 38.5563 47.7867C38.4838 47.8568 38.4266 47.9411 38.3884 48.0344C38.3501 48.1277 38.3317 48.2279 38.3342 48.3286C38.0803 48.7659 37.9285 49.2548 37.89 49.759C37.8586 50.0135 37.886 50.2718 37.9699 50.5141C37.9964 51.1252 38.1734 51.7202 38.4852 52.2465C38.7953 52.7983 39.1777 53.3062 39.6223 53.7567C39.8497 53.8955 40.0511 54.0729 40.2176 54.2809C40.1024 54.4946 39.9218 54.6658 39.7023 54.7695C39.68 54.8117 39.6469 54.8471 39.6062 54.8721C39.5656 54.8971 39.519 54.9108 39.4713 54.9116C39.1088 54.8241 38.7655 54.6705 38.4585 54.4586C37.7123 54.1032 36.9038 53.8456 36.1309 53.5257C35.0614 53.1399 33.9732 52.8079 32.8705 52.5307C32.675 52.4949 32.4899 52.416 32.3286 52.2998C32.3286 51.7401 32.3286 51.2248 32.3286 50.674C32.3448 50.5098 32.3297 50.344 32.2842 50.1854C32.3596 49.9911 32.3596 49.7756 32.2842 49.5813C32.3196 49.2862 32.3196 48.988 32.2842 48.6929C32.2557 48.6124 32.2557 48.5246 32.2842 48.4441C32.237 48.0906 32.2103 47.7347 32.2042 47.3781C32.1838 47.1653 32.1838 46.9511 32.2042 46.7384C32.2114 46.5967 32.1807 46.4557 32.1154 46.3298C32.1528 46.0526 32.1528 45.7718 32.1154 45.4947C32.0895 45.4618 32.0754 45.4211 32.0754 45.3792C32.0754 45.3373 32.0895 45.2966 32.1154 45.2637C32.0881 45.1288 32.0881 44.9899 32.1154 44.855C32.0448 44.6329 32.0001 44.4033 31.9821 44.171C31.9821 43.7179 31.8844 43.2826 31.84 42.8561C31.832 42.6498 31.8052 42.4446 31.76 42.2431C31.689 41.9766 31.7156 41.7012 31.6446 41.4436C31.6125 41.2651 31.5649 41.0897 31.5024 40.9194C31.4563 40.5033 31.3821 40.0907 31.2803 39.6846C31.1115 38.9561 30.8628 38.2631 30.6673 37.5524C30.6645 37.4901 30.6799 37.4284 30.7117 37.3747C31.0786 37.3049 31.4554 37.3049 31.8222 37.3747C32.3985 37.4399 32.9669 37.5619 33.5191 37.739V37.739Z" fill="white"/>
<path d="M45.5657 39.5424C45.7145 40.1554 45.7145 40.7951 45.5657 41.4081C45.4235 41.8256 45.1926 42.1987 45.0859 42.6163C44.8656 42.8626 44.6665 43.1271 44.4907 43.4069C44.2242 43.5047 44.0465 43.7712 43.78 43.8511C43.6218 44.0143 43.4494 44.1629 43.2647 44.2953C42.9668 44.5598 42.6352 44.7839 42.2786 44.9616C42.2073 44.7904 42.1858 44.6026 42.2164 44.4197C42.2964 43.3536 42.2164 42.2254 42.2786 41.186C42.2741 41.015 42.3238 40.8471 42.4208 40.7062C43.1226 40.2976 43.8511 39.9511 44.5796 39.6224C44.8157 39.5087 45.059 39.4108 45.308 39.3292C45.4946 39.2848 45.5301 39.4536 45.5657 39.5424Z" fill="white"/>
<path d="M40.4574 40.564C40.7772 40.644 40.6617 40.9727 40.7505 41.1682C40.7505 41.6745 40.7505 42.1809 40.7505 42.6962C40.7785 42.7859 40.7785 42.8819 40.7505 42.9716C40.7505 43.2914 40.7505 43.6024 40.7505 43.9311C40.8051 44.2426 40.8051 44.5612 40.7505 44.8728C40.6972 44.9705 40.5462 44.8728 40.4485 44.8728C39.5821 44.3232 38.7958 43.6565 38.112 42.8916C37.828 42.4308 37.5842 41.9463 37.3835 41.4436C37.4021 41.318 37.3701 41.1902 37.2947 41.0882C37.3234 40.8346 37.3293 40.5789 37.3124 40.3242C37.3318 40.0033 37.3945 39.6865 37.499 39.3825C37.5085 39.3586 37.5242 39.3378 37.5445 39.3221C37.5648 39.3065 37.589 39.2966 37.6145 39.2936C38.5892 39.6536 39.539 40.078 40.4574 40.564Z" fill="white"/>
<path d="M40.8661 47.5202C40.9194 49.297 40.9549 51.0738 40.9905 52.9572C40.9679 53.1248 40.9352 53.291 40.8927 53.4547C40.5936 53.3122 40.3387 53.0911 40.1554 52.815C39.3381 51.6246 38.7428 49.83 39.649 48.5063C39.8985 48.0438 40.2744 47.6618 40.7328 47.4047C40.8661 47.3692 40.8661 47.458 40.8661 47.5202Z" fill="white"/>
<path d="M43.327 48.2664C43.5977 48.6485 43.785 49.0832 43.8769 49.5424C43.9687 50.0015 43.963 50.4748 43.8601 50.9316C43.631 51.941 43.0977 52.8558 42.332 53.5524C42.332 53.5524 42.2787 53.5524 42.2432 53.5079C42.1366 52.0954 42.2432 50.5763 42.2432 49.1193C42.1977 48.5902 42.1977 48.0582 42.2432 47.5291C42.2568 47.5001 42.2809 47.4776 42.3107 47.466C42.3405 47.4544 42.3736 47.4547 42.4031 47.4669C42.7705 47.6557 43.0874 47.9299 43.327 48.2664V48.2664Z" fill="white"/>
</svg>
