<svg width="452" height="152" viewBox="0 0 452 152" fill="none" xmlns="http://www.w3.org/2000/svg">
<path d="M226.2 151.5C267.7 151.5 301.4 117.8 301.4 76.3C301.5 34.7 267.8 1 226.2 1C184.6 1 151 34.7 151 76.3C151 117.8 184.7 151.5 226.2 151.5Z" fill="white"/>
<path d="M226.2 137.5C260 137.5 287.5 110.1 287.5 76.2C287.5 42.3 260.1 15 226.2 15C192.4 15 165 42.4 165 76.3C165 110.2 192.4 137.5 226.2 137.5Z" fill="#BE0F34"/>
<path d="M189.5 35.9H203.4V80.6C203.4 83.4 204.3 85.9 208.2 85.9C211.8 85.9 212.9 82.7 212.9 80.2V35.9H226.8V78.8C226.8 88.8 222.3 96.6 208.1 96.6C196.3 96.6 189.5 91 189.5 78.8V35.9Z" fill="white"/>
<path d="M232.3 116.6V57.3H246.2V104.7H263.2V116.6H232.3Z" fill="white"/>
<rect width="150" height="152" fill="#BE0F34"/>
<rect x="302" width="150" height="152" fill="#BE0F34"/>
</svg>
